<mxfile modified="2020-12-09T06:31:29.419Z" host="app.diagrams.net" agent="5.0 (Macintosh; Intel Mac OS X 10_14_6) AppleWebKit/537.36 (KHTML, like Gecko) Chrome/87.0.4280.88 Safari/537.36" etag="nB87gQfclKZH8bMd7gdJ" version="13.6.6" type="github" pages="3">
  <diagram id="Ht1M8jgEwFfnCIfOTk4-" name="product-1">
    <mxGraphModel dx="946" dy="623" grid="1" gridSize="10" guides="1" tooltips="1" connect="1" arrows="1" fold="1" page="1" pageScale="1" pageWidth="1169" pageHeight="827" math="0" shadow="0">
      <root>
        <mxCell id="0" />
        <mxCell id="1" parent="0" />
        <mxCell id="-a6q5OrIec0-HFeY7hqp-24" value="数据冗余" style="whiteSpace=wrap;html=1;align=left;verticalAlign=top;rounded=1;fillColor=none;dashed=1;arcSize=3;" parent="1" vertex="1">
          <mxGeometry x="510" y="180" width="140" height="130" as="geometry" />
        </mxCell>
        <mxCell id="-a6q5OrIec0-HFeY7hqp-4" value="&lt;font style=&quot;font-size: 12px&quot;&gt;聚合层 unified-product&lt;/font&gt;" style="whiteSpace=wrap;html=1;align=left;verticalAlign=top;rounded=1;fillColor=#dae8fc;strokeColor=#6c8ebf;fontSize=1;spacingTop=-5;" parent="1" vertex="1">
          <mxGeometry x="180" y="70" width="650" height="70" as="geometry" />
        </mxCell>
        <mxCell id="-a6q5OrIec0-HFeY7hqp-5" value="&amp;nbsp; &amp;nbsp; &amp;nbsp;领域服务" style="whiteSpace=wrap;html=1;align=left;verticalAlign=top;rounded=1;fillColor=none;dashed=1;arcSize=3;" parent="1" vertex="1">
          <mxGeometry x="180" y="170" width="320" height="310" as="geometry" />
        </mxCell>
        <mxCell id="-a6q5OrIec0-HFeY7hqp-6" value="&lt;span style=&quot;font-size: 1px; color: rgb(38, 38, 38); line-height: 1.74; letter-spacing: 0.05em; outline-style: none; overflow-wrap: break-word;&quot;&gt;product-template&lt;/span&gt;" style="whiteSpace=wrap;html=1;align=left;verticalAlign=top;rounded=1;fontSize=1;spacing=2;spacingTop=-8;fillColor=#e1d5e7;strokeColor=#9673a6;" parent="1" vertex="1">
          <mxGeometry x="200" y="400" width="280" height="60" as="geometry" />
        </mxCell>
        <mxCell id="-a6q5OrIec0-HFeY7hqp-7" value="&lt;span style=&quot;font-size: 1px; color: rgb(38, 38, 38); line-height: 1.74; letter-spacing: 0.05em; outline-style: none; overflow-wrap: break-word;&quot;&gt;product&lt;/span&gt;" style="whiteSpace=wrap;html=1;align=left;verticalAlign=top;rounded=1;arcSize=3;fontSize=1;spacingTop=-8;fillColor=#e1d5e7;strokeColor=#9673a6;" parent="1" vertex="1">
          <mxGeometry x="310" y="210" width="170" height="170" as="geometry" />
        </mxCell>
        <mxCell id="-a6q5OrIec0-HFeY7hqp-8" value="&lt;span style=&quot;font-size: 1px; color: rgb(38, 38, 38); line-height: 1.74; letter-spacing: 0.05em; outline-style: none; overflow-wrap: break-word;&quot;&gt;product-seo&lt;/span&gt;" style="whiteSpace=wrap;html=1;align=left;verticalAlign=top;rounded=1;arcSize=3;fontSize=1;spacingTop=-8;fillColor=#e1d5e7;strokeColor=#9673a6;" parent="1" vertex="1">
          <mxGeometry x="200" y="210" width="90" height="170" as="geometry" />
        </mxCell>
        <mxCell id="-a6q5OrIec0-HFeY7hqp-9" value="" style="whiteSpace=wrap;html=1;align=left;verticalAlign=top;rounded=1;fillColor=none;dashed=1;arcSize=3;" parent="1" vertex="1">
          <mxGeometry x="180" y="500" width="650" height="70" as="geometry" />
        </mxCell>
        <mxCell id="-a6q5OrIec0-HFeY7hqp-10" value="在线库" style="whiteSpace=wrap;html=1;align=left;verticalAlign=top;rounded=1;fillColor=none;dashed=1;arcSize=3;" parent="1" vertex="1">
          <mxGeometry x="200" y="510" width="300" height="50" as="geometry" />
        </mxCell>
        <mxCell id="-a6q5OrIec0-HFeY7hqp-11" value="" style="shape=image;verticalLabelPosition=bottom;labelBackgroundColor=#ffffff;verticalAlign=top;aspect=fixed;imageAspect=0;image=data:image/svg+xml,PHN2ZyB4bWxuczpjYz0iaHR0cDovL2NyZWF0aXZlY29tbW9ucy5vcmcvbnMjIiB4bWxuczpkYz0iaHR0cDovL3B1cmwub3JnL2RjL2VsZW1lbnRzLzEuMS8iIHhtbG5zOmlua3NjYXBlPSJodHRwOi8vd3d3Lmlua3NjYXBlLm9yZy9uYW1lc3BhY2VzL2lua3NjYXBlIiB4bWxuczpyZGY9Imh0dHA6Ly93d3cudzMub3JnLzE5OTkvMDIvMjItcmRmLXN5bnRheC1ucyMiIHhtbG5zOnNvZGlwb2RpPSJodHRwOi8vc29kaXBvZGkuc291cmNlZm9yZ2UubmV0L0RURC9zb2RpcG9kaS0wLmR0ZCIgeG1sbnM6c3ZnPSJodHRwOi8vd3d3LnczLm9yZy8yMDAwL3N2ZyIgeG1sbnM9Imh0dHA6Ly93d3cudzMub3JnLzIwMDAvc3ZnIiB4bWxuczp4bGluaz0iaHR0cDovL3d3dy53My5vcmcvMTk5OS94bGluayIgdmVyc2lvbj0iMS4xIiBpZD0ic3ZnMTAwMzAzIiBpbmtzY2FwZTp2ZXJzaW9uPSIwLjkyLjMgKDI0MDU1NDYsIDIwMTgtMDMtMTEpIiBzb2RpcG9kaTpkb2NuYW1lPSJnZW5lcmljX2RhdGFiYXNlX2JsdWUuc3ZnIiB4PSIwcHgiIHk9IjBweCIgdmlld0JveD0iMCAwIDM2Ljc5IDQ3LjY5IiBzdHlsZT0iZW5hYmxlLWJhY2tncm91bmQ6bmV3IDAgMCAzNi43OSA0Ny42OTsiIHhtbDpzcGFjZT0icHJlc2VydmUiPiYjeGE7PHNvZGlwb2RpOm5hbWVkdmlldyBib3JkZXJjb2xvcj0iIzY2NjY2NiIgYm9yZGVyb3BhY2l0eT0iMSIgZml0LW1hcmdpbi1ib3R0b209IjAiIGZpdC1tYXJnaW4tbGVmdD0iMCIgZml0LW1hcmdpbi1yaWdodD0iMCIgZml0LW1hcmdpbi10b3A9IjAiIGdyaWR0b2xlcmFuY2U9IjEwIiBndWlkZXRvbGVyYW5jZT0iMTAiIGlkPSJuYW1lZHZpZXcxMDAzMDUiIGlua3NjYXBlOmN1cnJlbnQtbGF5ZXI9InN2ZzEwMDMwMyIgaW5rc2NhcGU6Y3g9IjI0LjUzMDAwMSIgaW5rc2NhcGU6Y3k9IjMxLjc5MTY2OSIgaW5rc2NhcGU6cGFnZW9wYWNpdHk9IjAiIGlua3NjYXBlOnBhZ2VzaGFkb3c9IjIiIGlua3NjYXBlOndpbmRvdy1oZWlnaHQ9IjEwMTciIGlua3NjYXBlOndpbmRvdy1tYXhpbWl6ZWQ9IjEiIGlua3NjYXBlOndpbmRvdy13aWR0aD0iMTkyMCIgaW5rc2NhcGU6d2luZG93LXg9Ii04IiBpbmtzY2FwZTp3aW5kb3cteT0iLTgiIGlua3NjYXBlOnpvb209IjEzLjIxODQ4MSIgb2JqZWN0dG9sZXJhbmNlPSIxMCIgcGFnZWNvbG9yPSIjZmZmZmZmIiBzaG93Z3JpZD0iZmFsc2UiPiYjeGE7CTwvc29kaXBvZGk6bmFtZWR2aWV3PiYjeGE7PGcgaWQ9ImcxMDAzMDEiIHRyYW5zZm9ybT0idHJhbnNsYXRlKC0wLjc1LC0wLjc0NSkiPiYjeGE7CTx0aXRsZSBpZD0idGl0bGUxMDAyNjkiPlBhZ2UtMTwvdGl0bGU+JiN4YTsJPGcgaWQ9Imdyb3VwMzQ5My0xIiB0cmFuc2Zvcm09InRyYW5zbGF0ZSgxLjUsLTEuNSkiPiYjeGE7CQk8dGl0bGUgaWQ9InRpdGxlMTAwMjcxIj5HZW5lcmljIERhdGFiYXNlIChCbHVlKTwvdGl0bGU+JiN4YTsJCTxnIGlkPSJncm91cDM0OTQtMiI+JiN4YTsJCQk8dGl0bGUgaWQ9InRpdGxlMTAwMjczIj5nMTQ1MDwvdGl0bGU+JiN4YTsJCQk8ZyBpZD0ic2hhcGUzNDk1LTMiPiYjeGE7CQkJCTx0aXRsZSBpZD0idGl0bGUxMDAyNzUiPnBhdGgxNDQyPC90aXRsZT4mI3hhOwkJCQk8cGF0aCBpZD0icGF0aDEwMDI3NyIgaW5rc2NhcGU6Y29ubmVjdG9yLWN1cnZhdHVyZT0iMCIgc3R5bGU9ImZpbGw6I0ZGRkZGRjsiIGQ9Ik0zMS43OSw5TDIxLjQ0LDkuMDlMMCw5LjI3djMzLjM3ICAgICAgYzAsMy40Miw3LjUsNi4zNywxNy4yNSw2LjU1aDAuMzdjMS4zMiwwLDIuNi0wLjA3LDMuODItMC4xOWMzLjU3LTAuMjIsNy4wOC0xLjA3LDEwLjM1LTIuNTNjMi4xOS0xLjEsMy40Ni0yLjQ0LDMuNDYtMy44M1Y4Ljk3ICAgICAgTDMxLjc5LDl6Ii8+JiN4YTsJCQk8L2c+JiN4YTsJCQk8ZyBpZD0ic2hhcGUzNDk2LTUiIHRyYW5zZm9ybT0idHJhbnNsYXRlKDIxLjQ0MjUsLTAuMjEpIj4mI3hhOwkJCQk8dGl0bGUgaWQ9InRpdGxlMTAwMjgwIj5wYXRoMTQ0NDwvdGl0bGU+JiN4YTsJCQkJPHBhdGggaWQ9InBhdGgxMDAyODIiIGlua3NjYXBlOmNvbm5lY3Rvci1jdXJ2YXR1cmU9IjAiIHN0eWxlPSJmaWxsOiNFNUU1RTU7IiBkPSJNMTAuMzUsOS4yMXYzNy40NSAgICAgIEM3LjA4LDQ4LjEyLDMuNTcsNDguOTcsMCw0OS4xOVY5LjNMMTAuMzUsOS4yMXoiLz4mI3hhOwkJCTwvZz4mI3hhOwkJCTxnIGlkPSJzaGFwZTM0OTctNyI+JiN4YTsJCQkJPHRpdGxlIGlkPSJ0aXRsZTEwMDI4NSI+cGF0aDE0NDY8L3RpdGxlPiYjeGE7CQkJCTxwYXRoIGlkPSJwYXRoMTAwMjg3IiBpbmtzY2FwZTpjb25uZWN0b3ItY3VydmF0dXJlPSIwIiBzdHlsZT0iZmlsbDpub25lOyIgZD0iTTAsOS4yN3YzMy4zN2MwLDMuNDIsNy40Niw2LjM3LDE3LjI1LDYuNTVoMC4zNyAgICAgIGM5Ljk3LTAuMTMsMTcuNjMtMy4xLDE3LjYzLTYuNTVWOC45N0wwLDkuMjd6Ii8+JiN4YTsJCQkJJiN4YTsJCQkJCTxwYXRoIGlkPSJwYXRoMTAwMjg5IiBpbmtzY2FwZTpjb25uZWN0b3ItY3VydmF0dXJlPSIwIiBzdHlsZT0iZmlsbDpub25lO3N0cm9rZTojNTU2QThBO3N0cm9rZS13aWR0aDoxLjU7c3Ryb2tlLW1pdGVybGltaXQ6MzsiIGQ9IiAgICAgIE0wLDkuMjd2MzMuMzdjMCwzLjQyLDcuNDYsNi4zNywxNy4yNSw2LjU1aDAuMzdjOS45Ny0wLjEzLDE3LjYzLTMuMSwxNy42My02LjU1VjguOTciLz4mI3hhOwkJCTwvZz4mI3hhOwkJCTxnIGlkPSJzaGFwZTM0OTgtMTAiIHRyYW5zZm9ybT0idHJhbnNsYXRlKDAuMDQ1LC0zMy40NjUpIj4mI3hhOwkJCQk8dGl0bGUgaWQ9InRpdGxlMTAwMjkyIj5wYXRoMTQ0ODwvdGl0bGU+JiN4YTsJCQkJPHBhdGggaWQ9InBhdGgxMDAyOTQiIGlua3NjYXBlOmNvbm5lY3Rvci1jdXJ2YXR1cmU9IjAiIHN0eWxlPSJmaWxsOiM1NUQyRjY7IiBkPSJNMzUuMjUsNDIuODJjMCwzLjUyLTcuODksNi4zNy0xNy42Myw2LjM3ICAgICAgQzcuODksNDkuMTksMCw0Ni4zNCwwLDQyLjgyYzAtMy41MSw4LjEyLTYuMzYsMTcuODYtNi4zNkMyNy41OSwzNi40NiwzNS4yNSwzOS4zMSwzNS4yNSw0Mi44MkwzNS4yNSw0Mi44MnoiLz4mI3hhOwkJCQkmI3hhOwkJCQkJPHBhdGggaWQ9InBhdGgxMDAyOTYiIGlua3NjYXBlOmNvbm5lY3Rvci1jdXJ2YXR1cmU9IjAiIHN0eWxlPSJmaWxsOm5vbmU7c3Ryb2tlOiM1NTZBOEE7c3Ryb2tlLXdpZHRoOjEuNTtzdHJva2UtbWl0ZXJsaW1pdDozOyIgZD0iICAgICAgTTM1LjI1LDQyLjgyYzAsMy41Mi03Ljg5LDYuMzctMTcuNjMsNi4zN0M3Ljg5LDQ5LjE5LDAsNDYuMzQsMCw0Mi44MmMwLTMuNTEsOC4xMi02LjM2LDE3Ljg2LTYuMzYgICAgICBDMjcuNTksMzYuNDYsMzUuMjUsMzkuMzEsMzUuMjUsNDIuODIiLz4mI3hhOwkJCTwvZz4mI3hhOwkJPC9nPiYjeGE7CTwvZz4mI3hhOzwvZz4mI3hhOzwvc3ZnPg==;rounded=1;dashed=1;strokeColor=#000000;fillColor=none;align=left;" parent="1" vertex="1">
          <mxGeometry x="240" y="515.5" width="30.06" height="39" as="geometry" />
        </mxCell>
        <mxCell id="-a6q5OrIec0-HFeY7hqp-12" value="" style="shape=image;verticalLabelPosition=bottom;labelBackgroundColor=#ffffff;verticalAlign=top;aspect=fixed;imageAspect=0;image=data:image/svg+xml,PHN2ZyB4bWxuczpjYz0iaHR0cDovL2NyZWF0aXZlY29tbW9ucy5vcmcvbnMjIiB4bWxuczpkYz0iaHR0cDovL3B1cmwub3JnL2RjL2VsZW1lbnRzLzEuMS8iIHhtbG5zOmlua3NjYXBlPSJodHRwOi8vd3d3Lmlua3NjYXBlLm9yZy9uYW1lc3BhY2VzL2lua3NjYXBlIiB4bWxuczpyZGY9Imh0dHA6Ly93d3cudzMub3JnLzE5OTkvMDIvMjItcmRmLXN5bnRheC1ucyMiIHhtbG5zOnNvZGlwb2RpPSJodHRwOi8vc29kaXBvZGkuc291cmNlZm9yZ2UubmV0L0RURC9zb2RpcG9kaS0wLmR0ZCIgeG1sbnM6c3ZnPSJodHRwOi8vd3d3LnczLm9yZy8yMDAwL3N2ZyIgeG1sbnM9Imh0dHA6Ly93d3cudzMub3JnLzIwMDAvc3ZnIiB4bWxuczp4bGluaz0iaHR0cDovL3d3dy53My5vcmcvMTk5OS94bGluayIgdmVyc2lvbj0iMS4xIiBpZD0ic3ZnMTAwMzAzIiBpbmtzY2FwZTp2ZXJzaW9uPSIwLjkyLjMgKDI0MDU1NDYsIDIwMTgtMDMtMTEpIiBzb2RpcG9kaTpkb2NuYW1lPSJnZW5lcmljX2RhdGFiYXNlX2JsdWUuc3ZnIiB4PSIwcHgiIHk9IjBweCIgdmlld0JveD0iMCAwIDM2Ljc5IDQ3LjY5IiBzdHlsZT0iZW5hYmxlLWJhY2tncm91bmQ6bmV3IDAgMCAzNi43OSA0Ny42OTsiIHhtbDpzcGFjZT0icHJlc2VydmUiPiYjeGE7PHNvZGlwb2RpOm5hbWVkdmlldyBib3JkZXJjb2xvcj0iIzY2NjY2NiIgYm9yZGVyb3BhY2l0eT0iMSIgZml0LW1hcmdpbi1ib3R0b209IjAiIGZpdC1tYXJnaW4tbGVmdD0iMCIgZml0LW1hcmdpbi1yaWdodD0iMCIgZml0LW1hcmdpbi10b3A9IjAiIGdyaWR0b2xlcmFuY2U9IjEwIiBndWlkZXRvbGVyYW5jZT0iMTAiIGlkPSJuYW1lZHZpZXcxMDAzMDUiIGlua3NjYXBlOmN1cnJlbnQtbGF5ZXI9InN2ZzEwMDMwMyIgaW5rc2NhcGU6Y3g9IjI0LjUzMDAwMSIgaW5rc2NhcGU6Y3k9IjMxLjc5MTY2OSIgaW5rc2NhcGU6cGFnZW9wYWNpdHk9IjAiIGlua3NjYXBlOnBhZ2VzaGFkb3c9IjIiIGlua3NjYXBlOndpbmRvdy1oZWlnaHQ9IjEwMTciIGlua3NjYXBlOndpbmRvdy1tYXhpbWl6ZWQ9IjEiIGlua3NjYXBlOndpbmRvdy13aWR0aD0iMTkyMCIgaW5rc2NhcGU6d2luZG93LXg9Ii04IiBpbmtzY2FwZTp3aW5kb3cteT0iLTgiIGlua3NjYXBlOnpvb209IjEzLjIxODQ4MSIgb2JqZWN0dG9sZXJhbmNlPSIxMCIgcGFnZWNvbG9yPSIjZmZmZmZmIiBzaG93Z3JpZD0iZmFsc2UiPiYjeGE7CTwvc29kaXBvZGk6bmFtZWR2aWV3PiYjeGE7PGcgaWQ9ImcxMDAzMDEiIHRyYW5zZm9ybT0idHJhbnNsYXRlKC0wLjc1LC0wLjc0NSkiPiYjeGE7CTx0aXRsZSBpZD0idGl0bGUxMDAyNjkiPlBhZ2UtMTwvdGl0bGU+JiN4YTsJPGcgaWQ9Imdyb3VwMzQ5My0xIiB0cmFuc2Zvcm09InRyYW5zbGF0ZSgxLjUsLTEuNSkiPiYjeGE7CQk8dGl0bGUgaWQ9InRpdGxlMTAwMjcxIj5HZW5lcmljIERhdGFiYXNlIChCbHVlKTwvdGl0bGU+JiN4YTsJCTxnIGlkPSJncm91cDM0OTQtMiI+JiN4YTsJCQk8dGl0bGUgaWQ9InRpdGxlMTAwMjczIj5nMTQ1MDwvdGl0bGU+JiN4YTsJCQk8ZyBpZD0ic2hhcGUzNDk1LTMiPiYjeGE7CQkJCTx0aXRsZSBpZD0idGl0bGUxMDAyNzUiPnBhdGgxNDQyPC90aXRsZT4mI3hhOwkJCQk8cGF0aCBpZD0icGF0aDEwMDI3NyIgaW5rc2NhcGU6Y29ubmVjdG9yLWN1cnZhdHVyZT0iMCIgc3R5bGU9ImZpbGw6I0ZGRkZGRjsiIGQ9Ik0zMS43OSw5TDIxLjQ0LDkuMDlMMCw5LjI3djMzLjM3ICAgICAgYzAsMy40Miw3LjUsNi4zNywxNy4yNSw2LjU1aDAuMzdjMS4zMiwwLDIuNi0wLjA3LDMuODItMC4xOWMzLjU3LTAuMjIsNy4wOC0xLjA3LDEwLjM1LTIuNTNjMi4xOS0xLjEsMy40Ni0yLjQ0LDMuNDYtMy44M1Y4Ljk3ICAgICAgTDMxLjc5LDl6Ii8+JiN4YTsJCQk8L2c+JiN4YTsJCQk8ZyBpZD0ic2hhcGUzNDk2LTUiIHRyYW5zZm9ybT0idHJhbnNsYXRlKDIxLjQ0MjUsLTAuMjEpIj4mI3hhOwkJCQk8dGl0bGUgaWQ9InRpdGxlMTAwMjgwIj5wYXRoMTQ0NDwvdGl0bGU+JiN4YTsJCQkJPHBhdGggaWQ9InBhdGgxMDAyODIiIGlua3NjYXBlOmNvbm5lY3Rvci1jdXJ2YXR1cmU9IjAiIHN0eWxlPSJmaWxsOiNFNUU1RTU7IiBkPSJNMTAuMzUsOS4yMXYzNy40NSAgICAgIEM3LjA4LDQ4LjEyLDMuNTcsNDguOTcsMCw0OS4xOVY5LjNMMTAuMzUsOS4yMXoiLz4mI3hhOwkJCTwvZz4mI3hhOwkJCTxnIGlkPSJzaGFwZTM0OTctNyI+JiN4YTsJCQkJPHRpdGxlIGlkPSJ0aXRsZTEwMDI4NSI+cGF0aDE0NDY8L3RpdGxlPiYjeGE7CQkJCTxwYXRoIGlkPSJwYXRoMTAwMjg3IiBpbmtzY2FwZTpjb25uZWN0b3ItY3VydmF0dXJlPSIwIiBzdHlsZT0iZmlsbDpub25lOyIgZD0iTTAsOS4yN3YzMy4zN2MwLDMuNDIsNy40Niw2LjM3LDE3LjI1LDYuNTVoMC4zNyAgICAgIGM5Ljk3LTAuMTMsMTcuNjMtMy4xLDE3LjYzLTYuNTVWOC45N0wwLDkuMjd6Ii8+JiN4YTsJCQkJJiN4YTsJCQkJCTxwYXRoIGlkPSJwYXRoMTAwMjg5IiBpbmtzY2FwZTpjb25uZWN0b3ItY3VydmF0dXJlPSIwIiBzdHlsZT0iZmlsbDpub25lO3N0cm9rZTojNTU2QThBO3N0cm9rZS13aWR0aDoxLjU7c3Ryb2tlLW1pdGVybGltaXQ6MzsiIGQ9IiAgICAgIE0wLDkuMjd2MzMuMzdjMCwzLjQyLDcuNDYsNi4zNywxNy4yNSw2LjU1aDAuMzdjOS45Ny0wLjEzLDE3LjYzLTMuMSwxNy42My02LjU1VjguOTciLz4mI3hhOwkJCTwvZz4mI3hhOwkJCTxnIGlkPSJzaGFwZTM0OTgtMTAiIHRyYW5zZm9ybT0idHJhbnNsYXRlKDAuMDQ1LC0zMy40NjUpIj4mI3hhOwkJCQk8dGl0bGUgaWQ9InRpdGxlMTAwMjkyIj5wYXRoMTQ0ODwvdGl0bGU+JiN4YTsJCQkJPHBhdGggaWQ9InBhdGgxMDAyOTQiIGlua3NjYXBlOmNvbm5lY3Rvci1jdXJ2YXR1cmU9IjAiIHN0eWxlPSJmaWxsOiM1NUQyRjY7IiBkPSJNMzUuMjUsNDIuODJjMCwzLjUyLTcuODksNi4zNy0xNy42Myw2LjM3ICAgICAgQzcuODksNDkuMTksMCw0Ni4zNCwwLDQyLjgyYzAtMy41MSw4LjEyLTYuMzYsMTcuODYtNi4zNkMyNy41OSwzNi40NiwzNS4yNSwzOS4zMSwzNS4yNSw0Mi44MkwzNS4yNSw0Mi44MnoiLz4mI3hhOwkJCQkmI3hhOwkJCQkJPHBhdGggaWQ9InBhdGgxMDAyOTYiIGlua3NjYXBlOmNvbm5lY3Rvci1jdXJ2YXR1cmU9IjAiIHN0eWxlPSJmaWxsOm5vbmU7c3Ryb2tlOiM1NTZBOEE7c3Ryb2tlLXdpZHRoOjEuNTtzdHJva2UtbWl0ZXJsaW1pdDozOyIgZD0iICAgICAgTTM1LjI1LDQyLjgyYzAsMy41Mi03Ljg5LDYuMzctMTcuNjMsNi4zN0M3Ljg5LDQ5LjE5LDAsNDYuMzQsMCw0Mi44MmMwLTMuNTEsOC4xMi02LjM2LDE3Ljg2LTYuMzYgICAgICBDMjcuNTksMzYuNDYsMzUuMjUsMzkuMzEsMzUuMjUsNDIuODIiLz4mI3hhOwkJCTwvZz4mI3hhOwkJPC9nPiYjeGE7CTwvZz4mI3hhOzwvZz4mI3hhOzwvc3ZnPg==;rounded=1;dashed=1;strokeColor=#000000;fillColor=none;align=left;" parent="1" vertex="1">
          <mxGeometry x="300" y="515.5" width="30.06" height="39" as="geometry" />
        </mxCell>
        <mxCell id="-a6q5OrIec0-HFeY7hqp-13" value="" style="shape=image;verticalLabelPosition=bottom;labelBackgroundColor=#ffffff;verticalAlign=top;aspect=fixed;imageAspect=0;image=data:image/svg+xml,PHN2ZyB4bWxuczpjYz0iaHR0cDovL2NyZWF0aXZlY29tbW9ucy5vcmcvbnMjIiB4bWxuczpkYz0iaHR0cDovL3B1cmwub3JnL2RjL2VsZW1lbnRzLzEuMS8iIHhtbG5zOmlua3NjYXBlPSJodHRwOi8vd3d3Lmlua3NjYXBlLm9yZy9uYW1lc3BhY2VzL2lua3NjYXBlIiB4bWxuczpyZGY9Imh0dHA6Ly93d3cudzMub3JnLzE5OTkvMDIvMjItcmRmLXN5bnRheC1ucyMiIHhtbG5zOnNvZGlwb2RpPSJodHRwOi8vc29kaXBvZGkuc291cmNlZm9yZ2UubmV0L0RURC9zb2RpcG9kaS0wLmR0ZCIgeG1sbnM6c3ZnPSJodHRwOi8vd3d3LnczLm9yZy8yMDAwL3N2ZyIgeG1sbnM9Imh0dHA6Ly93d3cudzMub3JnLzIwMDAvc3ZnIiB4bWxuczp4bGluaz0iaHR0cDovL3d3dy53My5vcmcvMTk5OS94bGluayIgdmVyc2lvbj0iMS4xIiBpZD0ic3ZnMTAwMzAzIiBpbmtzY2FwZTp2ZXJzaW9uPSIwLjkyLjMgKDI0MDU1NDYsIDIwMTgtMDMtMTEpIiBzb2RpcG9kaTpkb2NuYW1lPSJnZW5lcmljX2RhdGFiYXNlX2JsdWUuc3ZnIiB4PSIwcHgiIHk9IjBweCIgdmlld0JveD0iMCAwIDM2Ljc5IDQ3LjY5IiBzdHlsZT0iZW5hYmxlLWJhY2tncm91bmQ6bmV3IDAgMCAzNi43OSA0Ny42OTsiIHhtbDpzcGFjZT0icHJlc2VydmUiPiYjeGE7PHNvZGlwb2RpOm5hbWVkdmlldyBib3JkZXJjb2xvcj0iIzY2NjY2NiIgYm9yZGVyb3BhY2l0eT0iMSIgZml0LW1hcmdpbi1ib3R0b209IjAiIGZpdC1tYXJnaW4tbGVmdD0iMCIgZml0LW1hcmdpbi1yaWdodD0iMCIgZml0LW1hcmdpbi10b3A9IjAiIGdyaWR0b2xlcmFuY2U9IjEwIiBndWlkZXRvbGVyYW5jZT0iMTAiIGlkPSJuYW1lZHZpZXcxMDAzMDUiIGlua3NjYXBlOmN1cnJlbnQtbGF5ZXI9InN2ZzEwMDMwMyIgaW5rc2NhcGU6Y3g9IjI0LjUzMDAwMSIgaW5rc2NhcGU6Y3k9IjMxLjc5MTY2OSIgaW5rc2NhcGU6cGFnZW9wYWNpdHk9IjAiIGlua3NjYXBlOnBhZ2VzaGFkb3c9IjIiIGlua3NjYXBlOndpbmRvdy1oZWlnaHQ9IjEwMTciIGlua3NjYXBlOndpbmRvdy1tYXhpbWl6ZWQ9IjEiIGlua3NjYXBlOndpbmRvdy13aWR0aD0iMTkyMCIgaW5rc2NhcGU6d2luZG93LXg9Ii04IiBpbmtzY2FwZTp3aW5kb3cteT0iLTgiIGlua3NjYXBlOnpvb209IjEzLjIxODQ4MSIgb2JqZWN0dG9sZXJhbmNlPSIxMCIgcGFnZWNvbG9yPSIjZmZmZmZmIiBzaG93Z3JpZD0iZmFsc2UiPiYjeGE7CTwvc29kaXBvZGk6bmFtZWR2aWV3PiYjeGE7PGcgaWQ9ImcxMDAzMDEiIHRyYW5zZm9ybT0idHJhbnNsYXRlKC0wLjc1LC0wLjc0NSkiPiYjeGE7CTx0aXRsZSBpZD0idGl0bGUxMDAyNjkiPlBhZ2UtMTwvdGl0bGU+JiN4YTsJPGcgaWQ9Imdyb3VwMzQ5My0xIiB0cmFuc2Zvcm09InRyYW5zbGF0ZSgxLjUsLTEuNSkiPiYjeGE7CQk8dGl0bGUgaWQ9InRpdGxlMTAwMjcxIj5HZW5lcmljIERhdGFiYXNlIChCbHVlKTwvdGl0bGU+JiN4YTsJCTxnIGlkPSJncm91cDM0OTQtMiI+JiN4YTsJCQk8dGl0bGUgaWQ9InRpdGxlMTAwMjczIj5nMTQ1MDwvdGl0bGU+JiN4YTsJCQk8ZyBpZD0ic2hhcGUzNDk1LTMiPiYjeGE7CQkJCTx0aXRsZSBpZD0idGl0bGUxMDAyNzUiPnBhdGgxNDQyPC90aXRsZT4mI3hhOwkJCQk8cGF0aCBpZD0icGF0aDEwMDI3NyIgaW5rc2NhcGU6Y29ubmVjdG9yLWN1cnZhdHVyZT0iMCIgc3R5bGU9ImZpbGw6I0ZGRkZGRjsiIGQ9Ik0zMS43OSw5TDIxLjQ0LDkuMDlMMCw5LjI3djMzLjM3ICAgICAgYzAsMy40Miw3LjUsNi4zNywxNy4yNSw2LjU1aDAuMzdjMS4zMiwwLDIuNi0wLjA3LDMuODItMC4xOWMzLjU3LTAuMjIsNy4wOC0xLjA3LDEwLjM1LTIuNTNjMi4xOS0xLjEsMy40Ni0yLjQ0LDMuNDYtMy44M1Y4Ljk3ICAgICAgTDMxLjc5LDl6Ii8+JiN4YTsJCQk8L2c+JiN4YTsJCQk8ZyBpZD0ic2hhcGUzNDk2LTUiIHRyYW5zZm9ybT0idHJhbnNsYXRlKDIxLjQ0MjUsLTAuMjEpIj4mI3hhOwkJCQk8dGl0bGUgaWQ9InRpdGxlMTAwMjgwIj5wYXRoMTQ0NDwvdGl0bGU+JiN4YTsJCQkJPHBhdGggaWQ9InBhdGgxMDAyODIiIGlua3NjYXBlOmNvbm5lY3Rvci1jdXJ2YXR1cmU9IjAiIHN0eWxlPSJmaWxsOiNFNUU1RTU7IiBkPSJNMTAuMzUsOS4yMXYzNy40NSAgICAgIEM3LjA4LDQ4LjEyLDMuNTcsNDguOTcsMCw0OS4xOVY5LjNMMTAuMzUsOS4yMXoiLz4mI3hhOwkJCTwvZz4mI3hhOwkJCTxnIGlkPSJzaGFwZTM0OTctNyI+JiN4YTsJCQkJPHRpdGxlIGlkPSJ0aXRsZTEwMDI4NSI+cGF0aDE0NDY8L3RpdGxlPiYjeGE7CQkJCTxwYXRoIGlkPSJwYXRoMTAwMjg3IiBpbmtzY2FwZTpjb25uZWN0b3ItY3VydmF0dXJlPSIwIiBzdHlsZT0iZmlsbDpub25lOyIgZD0iTTAsOS4yN3YzMy4zN2MwLDMuNDIsNy40Niw2LjM3LDE3LjI1LDYuNTVoMC4zNyAgICAgIGM5Ljk3LTAuMTMsMTcuNjMtMy4xLDE3LjYzLTYuNTVWOC45N0wwLDkuMjd6Ii8+JiN4YTsJCQkJJiN4YTsJCQkJCTxwYXRoIGlkPSJwYXRoMTAwMjg5IiBpbmtzY2FwZTpjb25uZWN0b3ItY3VydmF0dXJlPSIwIiBzdHlsZT0iZmlsbDpub25lO3N0cm9rZTojNTU2QThBO3N0cm9rZS13aWR0aDoxLjU7c3Ryb2tlLW1pdGVybGltaXQ6MzsiIGQ9IiAgICAgIE0wLDkuMjd2MzMuMzdjMCwzLjQyLDcuNDYsNi4zNywxNy4yNSw2LjU1aDAuMzdjOS45Ny0wLjEzLDE3LjYzLTMuMSwxNy42My02LjU1VjguOTciLz4mI3hhOwkJCTwvZz4mI3hhOwkJCTxnIGlkPSJzaGFwZTM0OTgtMTAiIHRyYW5zZm9ybT0idHJhbnNsYXRlKDAuMDQ1LC0zMy40NjUpIj4mI3hhOwkJCQk8dGl0bGUgaWQ9InRpdGxlMTAwMjkyIj5wYXRoMTQ0ODwvdGl0bGU+JiN4YTsJCQkJPHBhdGggaWQ9InBhdGgxMDAyOTQiIGlua3NjYXBlOmNvbm5lY3Rvci1jdXJ2YXR1cmU9IjAiIHN0eWxlPSJmaWxsOiM1NUQyRjY7IiBkPSJNMzUuMjUsNDIuODJjMCwzLjUyLTcuODksNi4zNy0xNy42Myw2LjM3ICAgICAgQzcuODksNDkuMTksMCw0Ni4zNCwwLDQyLjgyYzAtMy41MSw4LjEyLTYuMzYsMTcuODYtNi4zNkMyNy41OSwzNi40NiwzNS4yNSwzOS4zMSwzNS4yNSw0Mi44MkwzNS4yNSw0Mi44MnoiLz4mI3hhOwkJCQkmI3hhOwkJCQkJPHBhdGggaWQ9InBhdGgxMDAyOTYiIGlua3NjYXBlOmNvbm5lY3Rvci1jdXJ2YXR1cmU9IjAiIHN0eWxlPSJmaWxsOm5vbmU7c3Ryb2tlOiM1NTZBOEE7c3Ryb2tlLXdpZHRoOjEuNTtzdHJva2UtbWl0ZXJsaW1pdDozOyIgZD0iICAgICAgTTM1LjI1LDQyLjgyYzAsMy41Mi03Ljg5LDYuMzctMTcuNjMsNi4zN0M3Ljg5LDQ5LjE5LDAsNDYuMzQsMCw0Mi44MmMwLTMuNTEsOC4xMi02LjM2LDE3Ljg2LTYuMzYgICAgICBDMjcuNTksMzYuNDYsMzUuMjUsMzkuMzEsMzUuMjUsNDIuODIiLz4mI3hhOwkJCTwvZz4mI3hhOwkJPC9nPiYjeGE7CTwvZz4mI3hhOzwvZz4mI3hhOzwvc3ZnPg==;rounded=1;dashed=1;strokeColor=#000000;fillColor=none;align=left;" parent="1" vertex="1">
          <mxGeometry x="360" y="515.5" width="30.06" height="39" as="geometry" />
        </mxCell>
        <mxCell id="-a6q5OrIec0-HFeY7hqp-14" value="" style="shape=image;verticalLabelPosition=bottom;labelBackgroundColor=#ffffff;verticalAlign=top;aspect=fixed;imageAspect=0;image=data:image/svg+xml,PHN2ZyB4bWxuczpjYz0iaHR0cDovL2NyZWF0aXZlY29tbW9ucy5vcmcvbnMjIiB4bWxuczpkYz0iaHR0cDovL3B1cmwub3JnL2RjL2VsZW1lbnRzLzEuMS8iIHhtbG5zOmlua3NjYXBlPSJodHRwOi8vd3d3Lmlua3NjYXBlLm9yZy9uYW1lc3BhY2VzL2lua3NjYXBlIiB4bWxuczpyZGY9Imh0dHA6Ly93d3cudzMub3JnLzE5OTkvMDIvMjItcmRmLXN5bnRheC1ucyMiIHhtbG5zOnNvZGlwb2RpPSJodHRwOi8vc29kaXBvZGkuc291cmNlZm9yZ2UubmV0L0RURC9zb2RpcG9kaS0wLmR0ZCIgeG1sbnM6c3ZnPSJodHRwOi8vd3d3LnczLm9yZy8yMDAwL3N2ZyIgeG1sbnM9Imh0dHA6Ly93d3cudzMub3JnLzIwMDAvc3ZnIiB4bWxuczp4bGluaz0iaHR0cDovL3d3dy53My5vcmcvMTk5OS94bGluayIgdmVyc2lvbj0iMS4xIiBpZD0ic3ZnMTAwMzAzIiBpbmtzY2FwZTp2ZXJzaW9uPSIwLjkyLjMgKDI0MDU1NDYsIDIwMTgtMDMtMTEpIiBzb2RpcG9kaTpkb2NuYW1lPSJnZW5lcmljX2RhdGFiYXNlX2JsdWUuc3ZnIiB4PSIwcHgiIHk9IjBweCIgdmlld0JveD0iMCAwIDM2Ljc5IDQ3LjY5IiBzdHlsZT0iZW5hYmxlLWJhY2tncm91bmQ6bmV3IDAgMCAzNi43OSA0Ny42OTsiIHhtbDpzcGFjZT0icHJlc2VydmUiPiYjeGE7PHNvZGlwb2RpOm5hbWVkdmlldyBib3JkZXJjb2xvcj0iIzY2NjY2NiIgYm9yZGVyb3BhY2l0eT0iMSIgZml0LW1hcmdpbi1ib3R0b209IjAiIGZpdC1tYXJnaW4tbGVmdD0iMCIgZml0LW1hcmdpbi1yaWdodD0iMCIgZml0LW1hcmdpbi10b3A9IjAiIGdyaWR0b2xlcmFuY2U9IjEwIiBndWlkZXRvbGVyYW5jZT0iMTAiIGlkPSJuYW1lZHZpZXcxMDAzMDUiIGlua3NjYXBlOmN1cnJlbnQtbGF5ZXI9InN2ZzEwMDMwMyIgaW5rc2NhcGU6Y3g9IjI0LjUzMDAwMSIgaW5rc2NhcGU6Y3k9IjMxLjc5MTY2OSIgaW5rc2NhcGU6cGFnZW9wYWNpdHk9IjAiIGlua3NjYXBlOnBhZ2VzaGFkb3c9IjIiIGlua3NjYXBlOndpbmRvdy1oZWlnaHQ9IjEwMTciIGlua3NjYXBlOndpbmRvdy1tYXhpbWl6ZWQ9IjEiIGlua3NjYXBlOndpbmRvdy13aWR0aD0iMTkyMCIgaW5rc2NhcGU6d2luZG93LXg9Ii04IiBpbmtzY2FwZTp3aW5kb3cteT0iLTgiIGlua3NjYXBlOnpvb209IjEzLjIxODQ4MSIgb2JqZWN0dG9sZXJhbmNlPSIxMCIgcGFnZWNvbG9yPSIjZmZmZmZmIiBzaG93Z3JpZD0iZmFsc2UiPiYjeGE7CTwvc29kaXBvZGk6bmFtZWR2aWV3PiYjeGE7PGcgaWQ9ImcxMDAzMDEiIHRyYW5zZm9ybT0idHJhbnNsYXRlKC0wLjc1LC0wLjc0NSkiPiYjeGE7CTx0aXRsZSBpZD0idGl0bGUxMDAyNjkiPlBhZ2UtMTwvdGl0bGU+JiN4YTsJPGcgaWQ9Imdyb3VwMzQ5My0xIiB0cmFuc2Zvcm09InRyYW5zbGF0ZSgxLjUsLTEuNSkiPiYjeGE7CQk8dGl0bGUgaWQ9InRpdGxlMTAwMjcxIj5HZW5lcmljIERhdGFiYXNlIChCbHVlKTwvdGl0bGU+JiN4YTsJCTxnIGlkPSJncm91cDM0OTQtMiI+JiN4YTsJCQk8dGl0bGUgaWQ9InRpdGxlMTAwMjczIj5nMTQ1MDwvdGl0bGU+JiN4YTsJCQk8ZyBpZD0ic2hhcGUzNDk1LTMiPiYjeGE7CQkJCTx0aXRsZSBpZD0idGl0bGUxMDAyNzUiPnBhdGgxNDQyPC90aXRsZT4mI3hhOwkJCQk8cGF0aCBpZD0icGF0aDEwMDI3NyIgaW5rc2NhcGU6Y29ubmVjdG9yLWN1cnZhdHVyZT0iMCIgc3R5bGU9ImZpbGw6I0ZGRkZGRjsiIGQ9Ik0zMS43OSw5TDIxLjQ0LDkuMDlMMCw5LjI3djMzLjM3ICAgICAgYzAsMy40Miw3LjUsNi4zNywxNy4yNSw2LjU1aDAuMzdjMS4zMiwwLDIuNi0wLjA3LDMuODItMC4xOWMzLjU3LTAuMjIsNy4wOC0xLjA3LDEwLjM1LTIuNTNjMi4xOS0xLjEsMy40Ni0yLjQ0LDMuNDYtMy44M1Y4Ljk3ICAgICAgTDMxLjc5LDl6Ii8+JiN4YTsJCQk8L2c+JiN4YTsJCQk8ZyBpZD0ic2hhcGUzNDk2LTUiIHRyYW5zZm9ybT0idHJhbnNsYXRlKDIxLjQ0MjUsLTAuMjEpIj4mI3hhOwkJCQk8dGl0bGUgaWQ9InRpdGxlMTAwMjgwIj5wYXRoMTQ0NDwvdGl0bGU+JiN4YTsJCQkJPHBhdGggaWQ9InBhdGgxMDAyODIiIGlua3NjYXBlOmNvbm5lY3Rvci1jdXJ2YXR1cmU9IjAiIHN0eWxlPSJmaWxsOiNFNUU1RTU7IiBkPSJNMTAuMzUsOS4yMXYzNy40NSAgICAgIEM3LjA4LDQ4LjEyLDMuNTcsNDguOTcsMCw0OS4xOVY5LjNMMTAuMzUsOS4yMXoiLz4mI3hhOwkJCTwvZz4mI3hhOwkJCTxnIGlkPSJzaGFwZTM0OTctNyI+JiN4YTsJCQkJPHRpdGxlIGlkPSJ0aXRsZTEwMDI4NSI+cGF0aDE0NDY8L3RpdGxlPiYjeGE7CQkJCTxwYXRoIGlkPSJwYXRoMTAwMjg3IiBpbmtzY2FwZTpjb25uZWN0b3ItY3VydmF0dXJlPSIwIiBzdHlsZT0iZmlsbDpub25lOyIgZD0iTTAsOS4yN3YzMy4zN2MwLDMuNDIsNy40Niw2LjM3LDE3LjI1LDYuNTVoMC4zNyAgICAgIGM5Ljk3LTAuMTMsMTcuNjMtMy4xLDE3LjYzLTYuNTVWOC45N0wwLDkuMjd6Ii8+JiN4YTsJCQkJJiN4YTsJCQkJCTxwYXRoIGlkPSJwYXRoMTAwMjg5IiBpbmtzY2FwZTpjb25uZWN0b3ItY3VydmF0dXJlPSIwIiBzdHlsZT0iZmlsbDpub25lO3N0cm9rZTojNTU2QThBO3N0cm9rZS13aWR0aDoxLjU7c3Ryb2tlLW1pdGVybGltaXQ6MzsiIGQ9IiAgICAgIE0wLDkuMjd2MzMuMzdjMCwzLjQyLDcuNDYsNi4zNywxNy4yNSw2LjU1aDAuMzdjOS45Ny0wLjEzLDE3LjYzLTMuMSwxNy42My02LjU1VjguOTciLz4mI3hhOwkJCTwvZz4mI3hhOwkJCTxnIGlkPSJzaGFwZTM0OTgtMTAiIHRyYW5zZm9ybT0idHJhbnNsYXRlKDAuMDQ1LC0zMy40NjUpIj4mI3hhOwkJCQk8dGl0bGUgaWQ9InRpdGxlMTAwMjkyIj5wYXRoMTQ0ODwvdGl0bGU+JiN4YTsJCQkJPHBhdGggaWQ9InBhdGgxMDAyOTQiIGlua3NjYXBlOmNvbm5lY3Rvci1jdXJ2YXR1cmU9IjAiIHN0eWxlPSJmaWxsOiM1NUQyRjY7IiBkPSJNMzUuMjUsNDIuODJjMCwzLjUyLTcuODksNi4zNy0xNy42Myw2LjM3ICAgICAgQzcuODksNDkuMTksMCw0Ni4zNCwwLDQyLjgyYzAtMy41MSw4LjEyLTYuMzYsMTcuODYtNi4zNkMyNy41OSwzNi40NiwzNS4yNSwzOS4zMSwzNS4yNSw0Mi44MkwzNS4yNSw0Mi44MnoiLz4mI3hhOwkJCQkmI3hhOwkJCQkJPHBhdGggaWQ9InBhdGgxMDAyOTYiIGlua3NjYXBlOmNvbm5lY3Rvci1jdXJ2YXR1cmU9IjAiIHN0eWxlPSJmaWxsOm5vbmU7c3Ryb2tlOiM1NTZBOEE7c3Ryb2tlLXdpZHRoOjEuNTtzdHJva2UtbWl0ZXJsaW1pdDozOyIgZD0iICAgICAgTTM1LjI1LDQyLjgyYzAsMy41Mi03Ljg5LDYuMzctMTcuNjMsNi4zN0M3Ljg5LDQ5LjE5LDAsNDYuMzQsMCw0Mi44MmMwLTMuNTEsOC4xMi02LjM2LDE3Ljg2LTYuMzYgICAgICBDMjcuNTksMzYuNDYsMzUuMjUsMzkuMzEsMzUuMjUsNDIuODIiLz4mI3hhOwkJCTwvZz4mI3hhOwkJPC9nPiYjeGE7CTwvZz4mI3hhOzwvZz4mI3hhOzwvc3ZnPg==;rounded=1;dashed=1;strokeColor=#000000;fillColor=none;align=left;" parent="1" vertex="1">
          <mxGeometry x="420" y="515.5" width="30.06" height="39" as="geometry" />
        </mxCell>
        <mxCell id="-a6q5OrIec0-HFeY7hqp-16" value="离线数据" style="whiteSpace=wrap;html=1;align=left;verticalAlign=top;rounded=1;fillColor=none;dashed=1;arcSize=3;" parent="1" vertex="1">
          <mxGeometry x="520" y="510" width="300" height="50" as="geometry" />
        </mxCell>
        <mxCell id="-a6q5OrIec0-HFeY7hqp-17" value="" style="shape=image;verticalLabelPosition=bottom;labelBackgroundColor=#ffffff;verticalAlign=top;aspect=fixed;imageAspect=0;image=data:image/svg+xml,PHN2ZyB4bWxuczpjYz0iaHR0cDovL2NyZWF0aXZlY29tbW9ucy5vcmcvbnMjIiB4bWxuczpkYz0iaHR0cDovL3B1cmwub3JnL2RjL2VsZW1lbnRzLzEuMS8iIHhtbG5zOmlua3NjYXBlPSJodHRwOi8vd3d3Lmlua3NjYXBlLm9yZy9uYW1lc3BhY2VzL2lua3NjYXBlIiB4bWxuczpyZGY9Imh0dHA6Ly93d3cudzMub3JnLzE5OTkvMDIvMjItcmRmLXN5bnRheC1ucyMiIHhtbG5zOnNvZGlwb2RpPSJodHRwOi8vc29kaXBvZGkuc291cmNlZm9yZ2UubmV0L0RURC9zb2RpcG9kaS0wLmR0ZCIgeG1sbnM6c3ZnPSJodHRwOi8vd3d3LnczLm9yZy8yMDAwL3N2ZyIgeG1sbnM9Imh0dHA6Ly93d3cudzMub3JnLzIwMDAvc3ZnIiB4bWxuczp4bGluaz0iaHR0cDovL3d3dy53My5vcmcvMTk5OS94bGluayIgdmVyc2lvbj0iMS4xIiBpZD0ic3ZnMTAwMzAzIiBpbmtzY2FwZTp2ZXJzaW9uPSIwLjkyLjMgKDI0MDU1NDYsIDIwMTgtMDMtMTEpIiBzb2RpcG9kaTpkb2NuYW1lPSJnZW5lcmljX2RhdGFiYXNlX2JsdWUuc3ZnIiB4PSIwcHgiIHk9IjBweCIgdmlld0JveD0iMCAwIDM2Ljc5IDQ3LjY5IiBzdHlsZT0iZW5hYmxlLWJhY2tncm91bmQ6bmV3IDAgMCAzNi43OSA0Ny42OTsiIHhtbDpzcGFjZT0icHJlc2VydmUiPiYjeGE7PHNvZGlwb2RpOm5hbWVkdmlldyBib3JkZXJjb2xvcj0iIzY2NjY2NiIgYm9yZGVyb3BhY2l0eT0iMSIgZml0LW1hcmdpbi1ib3R0b209IjAiIGZpdC1tYXJnaW4tbGVmdD0iMCIgZml0LW1hcmdpbi1yaWdodD0iMCIgZml0LW1hcmdpbi10b3A9IjAiIGdyaWR0b2xlcmFuY2U9IjEwIiBndWlkZXRvbGVyYW5jZT0iMTAiIGlkPSJuYW1lZHZpZXcxMDAzMDUiIGlua3NjYXBlOmN1cnJlbnQtbGF5ZXI9InN2ZzEwMDMwMyIgaW5rc2NhcGU6Y3g9IjI0LjUzMDAwMSIgaW5rc2NhcGU6Y3k9IjMxLjc5MTY2OSIgaW5rc2NhcGU6cGFnZW9wYWNpdHk9IjAiIGlua3NjYXBlOnBhZ2VzaGFkb3c9IjIiIGlua3NjYXBlOndpbmRvdy1oZWlnaHQ9IjEwMTciIGlua3NjYXBlOndpbmRvdy1tYXhpbWl6ZWQ9IjEiIGlua3NjYXBlOndpbmRvdy13aWR0aD0iMTkyMCIgaW5rc2NhcGU6d2luZG93LXg9Ii04IiBpbmtzY2FwZTp3aW5kb3cteT0iLTgiIGlua3NjYXBlOnpvb209IjEzLjIxODQ4MSIgb2JqZWN0dG9sZXJhbmNlPSIxMCIgcGFnZWNvbG9yPSIjZmZmZmZmIiBzaG93Z3JpZD0iZmFsc2UiPiYjeGE7CTwvc29kaXBvZGk6bmFtZWR2aWV3PiYjeGE7PGcgaWQ9ImcxMDAzMDEiIHRyYW5zZm9ybT0idHJhbnNsYXRlKC0wLjc1LC0wLjc0NSkiPiYjeGE7CTx0aXRsZSBpZD0idGl0bGUxMDAyNjkiPlBhZ2UtMTwvdGl0bGU+JiN4YTsJPGcgaWQ9Imdyb3VwMzQ5My0xIiB0cmFuc2Zvcm09InRyYW5zbGF0ZSgxLjUsLTEuNSkiPiYjeGE7CQk8dGl0bGUgaWQ9InRpdGxlMTAwMjcxIj5HZW5lcmljIERhdGFiYXNlIChCbHVlKTwvdGl0bGU+JiN4YTsJCTxnIGlkPSJncm91cDM0OTQtMiI+JiN4YTsJCQk8dGl0bGUgaWQ9InRpdGxlMTAwMjczIj5nMTQ1MDwvdGl0bGU+JiN4YTsJCQk8ZyBpZD0ic2hhcGUzNDk1LTMiPiYjeGE7CQkJCTx0aXRsZSBpZD0idGl0bGUxMDAyNzUiPnBhdGgxNDQyPC90aXRsZT4mI3hhOwkJCQk8cGF0aCBpZD0icGF0aDEwMDI3NyIgaW5rc2NhcGU6Y29ubmVjdG9yLWN1cnZhdHVyZT0iMCIgc3R5bGU9ImZpbGw6I0ZGRkZGRjsiIGQ9Ik0zMS43OSw5TDIxLjQ0LDkuMDlMMCw5LjI3djMzLjM3ICAgICAgYzAsMy40Miw3LjUsNi4zNywxNy4yNSw2LjU1aDAuMzdjMS4zMiwwLDIuNi0wLjA3LDMuODItMC4xOWMzLjU3LTAuMjIsNy4wOC0xLjA3LDEwLjM1LTIuNTNjMi4xOS0xLjEsMy40Ni0yLjQ0LDMuNDYtMy44M1Y4Ljk3ICAgICAgTDMxLjc5LDl6Ii8+JiN4YTsJCQk8L2c+JiN4YTsJCQk8ZyBpZD0ic2hhcGUzNDk2LTUiIHRyYW5zZm9ybT0idHJhbnNsYXRlKDIxLjQ0MjUsLTAuMjEpIj4mI3hhOwkJCQk8dGl0bGUgaWQ9InRpdGxlMTAwMjgwIj5wYXRoMTQ0NDwvdGl0bGU+JiN4YTsJCQkJPHBhdGggaWQ9InBhdGgxMDAyODIiIGlua3NjYXBlOmNvbm5lY3Rvci1jdXJ2YXR1cmU9IjAiIHN0eWxlPSJmaWxsOiNFNUU1RTU7IiBkPSJNMTAuMzUsOS4yMXYzNy40NSAgICAgIEM3LjA4LDQ4LjEyLDMuNTcsNDguOTcsMCw0OS4xOVY5LjNMMTAuMzUsOS4yMXoiLz4mI3hhOwkJCTwvZz4mI3hhOwkJCTxnIGlkPSJzaGFwZTM0OTctNyI+JiN4YTsJCQkJPHRpdGxlIGlkPSJ0aXRsZTEwMDI4NSI+cGF0aDE0NDY8L3RpdGxlPiYjeGE7CQkJCTxwYXRoIGlkPSJwYXRoMTAwMjg3IiBpbmtzY2FwZTpjb25uZWN0b3ItY3VydmF0dXJlPSIwIiBzdHlsZT0iZmlsbDpub25lOyIgZD0iTTAsOS4yN3YzMy4zN2MwLDMuNDIsNy40Niw2LjM3LDE3LjI1LDYuNTVoMC4zNyAgICAgIGM5Ljk3LTAuMTMsMTcuNjMtMy4xLDE3LjYzLTYuNTVWOC45N0wwLDkuMjd6Ii8+JiN4YTsJCQkJJiN4YTsJCQkJCTxwYXRoIGlkPSJwYXRoMTAwMjg5IiBpbmtzY2FwZTpjb25uZWN0b3ItY3VydmF0dXJlPSIwIiBzdHlsZT0iZmlsbDpub25lO3N0cm9rZTojNTU2QThBO3N0cm9rZS13aWR0aDoxLjU7c3Ryb2tlLW1pdGVybGltaXQ6MzsiIGQ9IiAgICAgIE0wLDkuMjd2MzMuMzdjMCwzLjQyLDcuNDYsNi4zNywxNy4yNSw2LjU1aDAuMzdjOS45Ny0wLjEzLDE3LjYzLTMuMSwxNy42My02LjU1VjguOTciLz4mI3hhOwkJCTwvZz4mI3hhOwkJCTxnIGlkPSJzaGFwZTM0OTgtMTAiIHRyYW5zZm9ybT0idHJhbnNsYXRlKDAuMDQ1LC0zMy40NjUpIj4mI3hhOwkJCQk8dGl0bGUgaWQ9InRpdGxlMTAwMjkyIj5wYXRoMTQ0ODwvdGl0bGU+JiN4YTsJCQkJPHBhdGggaWQ9InBhdGgxMDAyOTQiIGlua3NjYXBlOmNvbm5lY3Rvci1jdXJ2YXR1cmU9IjAiIHN0eWxlPSJmaWxsOiM1NUQyRjY7IiBkPSJNMzUuMjUsNDIuODJjMCwzLjUyLTcuODksNi4zNy0xNy42Myw2LjM3ICAgICAgQzcuODksNDkuMTksMCw0Ni4zNCwwLDQyLjgyYzAtMy41MSw4LjEyLTYuMzYsMTcuODYtNi4zNkMyNy41OSwzNi40NiwzNS4yNSwzOS4zMSwzNS4yNSw0Mi44MkwzNS4yNSw0Mi44MnoiLz4mI3hhOwkJCQkmI3hhOwkJCQkJPHBhdGggaWQ9InBhdGgxMDAyOTYiIGlua3NjYXBlOmNvbm5lY3Rvci1jdXJ2YXR1cmU9IjAiIHN0eWxlPSJmaWxsOm5vbmU7c3Ryb2tlOiM1NTZBOEE7c3Ryb2tlLXdpZHRoOjEuNTtzdHJva2UtbWl0ZXJsaW1pdDozOyIgZD0iICAgICAgTTM1LjI1LDQyLjgyYzAsMy41Mi03Ljg5LDYuMzctMTcuNjMsNi4zN0M3Ljg5LDQ5LjE5LDAsNDYuMzQsMCw0Mi44MmMwLTMuNTEsOC4xMi02LjM2LDE3Ljg2LTYuMzYgICAgICBDMjcuNTksMzYuNDYsMzUuMjUsMzkuMzEsMzUuMjUsNDIuODIiLz4mI3hhOwkJCTwvZz4mI3hhOwkJPC9nPiYjeGE7CTwvZz4mI3hhOzwvZz4mI3hhOzwvc3ZnPg==;rounded=1;dashed=1;strokeColor=#000000;fillColor=none;align=left;" parent="1" vertex="1">
          <mxGeometry x="580" y="515.5" width="30.06" height="39" as="geometry" />
        </mxCell>
        <mxCell id="-a6q5OrIec0-HFeY7hqp-18" value="" style="shape=image;verticalLabelPosition=bottom;labelBackgroundColor=#ffffff;verticalAlign=top;aspect=fixed;imageAspect=0;image=data:image/svg+xml,PHN2ZyB4bWxuczpjYz0iaHR0cDovL2NyZWF0aXZlY29tbW9ucy5vcmcvbnMjIiB4bWxuczpkYz0iaHR0cDovL3B1cmwub3JnL2RjL2VsZW1lbnRzLzEuMS8iIHhtbG5zOmlua3NjYXBlPSJodHRwOi8vd3d3Lmlua3NjYXBlLm9yZy9uYW1lc3BhY2VzL2lua3NjYXBlIiB4bWxuczpyZGY9Imh0dHA6Ly93d3cudzMub3JnLzE5OTkvMDIvMjItcmRmLXN5bnRheC1ucyMiIHhtbG5zOnNvZGlwb2RpPSJodHRwOi8vc29kaXBvZGkuc291cmNlZm9yZ2UubmV0L0RURC9zb2RpcG9kaS0wLmR0ZCIgeG1sbnM6c3ZnPSJodHRwOi8vd3d3LnczLm9yZy8yMDAwL3N2ZyIgeG1sbnM9Imh0dHA6Ly93d3cudzMub3JnLzIwMDAvc3ZnIiB4bWxuczp4bGluaz0iaHR0cDovL3d3dy53My5vcmcvMTk5OS94bGluayIgdmVyc2lvbj0iMS4xIiBpZD0ic3ZnMTAwMzAzIiBpbmtzY2FwZTp2ZXJzaW9uPSIwLjkyLjMgKDI0MDU1NDYsIDIwMTgtMDMtMTEpIiBzb2RpcG9kaTpkb2NuYW1lPSJnZW5lcmljX2RhdGFiYXNlX2JsdWUuc3ZnIiB4PSIwcHgiIHk9IjBweCIgdmlld0JveD0iMCAwIDM2Ljc5IDQ3LjY5IiBzdHlsZT0iZW5hYmxlLWJhY2tncm91bmQ6bmV3IDAgMCAzNi43OSA0Ny42OTsiIHhtbDpzcGFjZT0icHJlc2VydmUiPiYjeGE7PHNvZGlwb2RpOm5hbWVkdmlldyBib3JkZXJjb2xvcj0iIzY2NjY2NiIgYm9yZGVyb3BhY2l0eT0iMSIgZml0LW1hcmdpbi1ib3R0b209IjAiIGZpdC1tYXJnaW4tbGVmdD0iMCIgZml0LW1hcmdpbi1yaWdodD0iMCIgZml0LW1hcmdpbi10b3A9IjAiIGdyaWR0b2xlcmFuY2U9IjEwIiBndWlkZXRvbGVyYW5jZT0iMTAiIGlkPSJuYW1lZHZpZXcxMDAzMDUiIGlua3NjYXBlOmN1cnJlbnQtbGF5ZXI9InN2ZzEwMDMwMyIgaW5rc2NhcGU6Y3g9IjI0LjUzMDAwMSIgaW5rc2NhcGU6Y3k9IjMxLjc5MTY2OSIgaW5rc2NhcGU6cGFnZW9wYWNpdHk9IjAiIGlua3NjYXBlOnBhZ2VzaGFkb3c9IjIiIGlua3NjYXBlOndpbmRvdy1oZWlnaHQ9IjEwMTciIGlua3NjYXBlOndpbmRvdy1tYXhpbWl6ZWQ9IjEiIGlua3NjYXBlOndpbmRvdy13aWR0aD0iMTkyMCIgaW5rc2NhcGU6d2luZG93LXg9Ii04IiBpbmtzY2FwZTp3aW5kb3cteT0iLTgiIGlua3NjYXBlOnpvb209IjEzLjIxODQ4MSIgb2JqZWN0dG9sZXJhbmNlPSIxMCIgcGFnZWNvbG9yPSIjZmZmZmZmIiBzaG93Z3JpZD0iZmFsc2UiPiYjeGE7CTwvc29kaXBvZGk6bmFtZWR2aWV3PiYjeGE7PGcgaWQ9ImcxMDAzMDEiIHRyYW5zZm9ybT0idHJhbnNsYXRlKC0wLjc1LC0wLjc0NSkiPiYjeGE7CTx0aXRsZSBpZD0idGl0bGUxMDAyNjkiPlBhZ2UtMTwvdGl0bGU+JiN4YTsJPGcgaWQ9Imdyb3VwMzQ5My0xIiB0cmFuc2Zvcm09InRyYW5zbGF0ZSgxLjUsLTEuNSkiPiYjeGE7CQk8dGl0bGUgaWQ9InRpdGxlMTAwMjcxIj5HZW5lcmljIERhdGFiYXNlIChCbHVlKTwvdGl0bGU+JiN4YTsJCTxnIGlkPSJncm91cDM0OTQtMiI+JiN4YTsJCQk8dGl0bGUgaWQ9InRpdGxlMTAwMjczIj5nMTQ1MDwvdGl0bGU+JiN4YTsJCQk8ZyBpZD0ic2hhcGUzNDk1LTMiPiYjeGE7CQkJCTx0aXRsZSBpZD0idGl0bGUxMDAyNzUiPnBhdGgxNDQyPC90aXRsZT4mI3hhOwkJCQk8cGF0aCBpZD0icGF0aDEwMDI3NyIgaW5rc2NhcGU6Y29ubmVjdG9yLWN1cnZhdHVyZT0iMCIgc3R5bGU9ImZpbGw6I0ZGRkZGRjsiIGQ9Ik0zMS43OSw5TDIxLjQ0LDkuMDlMMCw5LjI3djMzLjM3ICAgICAgYzAsMy40Miw3LjUsNi4zNywxNy4yNSw2LjU1aDAuMzdjMS4zMiwwLDIuNi0wLjA3LDMuODItMC4xOWMzLjU3LTAuMjIsNy4wOC0xLjA3LDEwLjM1LTIuNTNjMi4xOS0xLjEsMy40Ni0yLjQ0LDMuNDYtMy44M1Y4Ljk3ICAgICAgTDMxLjc5LDl6Ii8+JiN4YTsJCQk8L2c+JiN4YTsJCQk8ZyBpZD0ic2hhcGUzNDk2LTUiIHRyYW5zZm9ybT0idHJhbnNsYXRlKDIxLjQ0MjUsLTAuMjEpIj4mI3hhOwkJCQk8dGl0bGUgaWQ9InRpdGxlMTAwMjgwIj5wYXRoMTQ0NDwvdGl0bGU+JiN4YTsJCQkJPHBhdGggaWQ9InBhdGgxMDAyODIiIGlua3NjYXBlOmNvbm5lY3Rvci1jdXJ2YXR1cmU9IjAiIHN0eWxlPSJmaWxsOiNFNUU1RTU7IiBkPSJNMTAuMzUsOS4yMXYzNy40NSAgICAgIEM3LjA4LDQ4LjEyLDMuNTcsNDguOTcsMCw0OS4xOVY5LjNMMTAuMzUsOS4yMXoiLz4mI3hhOwkJCTwvZz4mI3hhOwkJCTxnIGlkPSJzaGFwZTM0OTctNyI+JiN4YTsJCQkJPHRpdGxlIGlkPSJ0aXRsZTEwMDI4NSI+cGF0aDE0NDY8L3RpdGxlPiYjeGE7CQkJCTxwYXRoIGlkPSJwYXRoMTAwMjg3IiBpbmtzY2FwZTpjb25uZWN0b3ItY3VydmF0dXJlPSIwIiBzdHlsZT0iZmlsbDpub25lOyIgZD0iTTAsOS4yN3YzMy4zN2MwLDMuNDIsNy40Niw2LjM3LDE3LjI1LDYuNTVoMC4zNyAgICAgIGM5Ljk3LTAuMTMsMTcuNjMtMy4xLDE3LjYzLTYuNTVWOC45N0wwLDkuMjd6Ii8+JiN4YTsJCQkJJiN4YTsJCQkJCTxwYXRoIGlkPSJwYXRoMTAwMjg5IiBpbmtzY2FwZTpjb25uZWN0b3ItY3VydmF0dXJlPSIwIiBzdHlsZT0iZmlsbDpub25lO3N0cm9rZTojNTU2QThBO3N0cm9rZS13aWR0aDoxLjU7c3Ryb2tlLW1pdGVybGltaXQ6MzsiIGQ9IiAgICAgIE0wLDkuMjd2MzMuMzdjMCwzLjQyLDcuNDYsNi4zNywxNy4yNSw2LjU1aDAuMzdjOS45Ny0wLjEzLDE3LjYzLTMuMSwxNy42My02LjU1VjguOTciLz4mI3hhOwkJCTwvZz4mI3hhOwkJCTxnIGlkPSJzaGFwZTM0OTgtMTAiIHRyYW5zZm9ybT0idHJhbnNsYXRlKDAuMDQ1LC0zMy40NjUpIj4mI3hhOwkJCQk8dGl0bGUgaWQ9InRpdGxlMTAwMjkyIj5wYXRoMTQ0ODwvdGl0bGU+JiN4YTsJCQkJPHBhdGggaWQ9InBhdGgxMDAyOTQiIGlua3NjYXBlOmNvbm5lY3Rvci1jdXJ2YXR1cmU9IjAiIHN0eWxlPSJmaWxsOiM1NUQyRjY7IiBkPSJNMzUuMjUsNDIuODJjMCwzLjUyLTcuODksNi4zNy0xNy42Myw2LjM3ICAgICAgQzcuODksNDkuMTksMCw0Ni4zNCwwLDQyLjgyYzAtMy41MSw4LjEyLTYuMzYsMTcuODYtNi4zNkMyNy41OSwzNi40NiwzNS4yNSwzOS4zMSwzNS4yNSw0Mi44MkwzNS4yNSw0Mi44MnoiLz4mI3hhOwkJCQkmI3hhOwkJCQkJPHBhdGggaWQ9InBhdGgxMDAyOTYiIGlua3NjYXBlOmNvbm5lY3Rvci1jdXJ2YXR1cmU9IjAiIHN0eWxlPSJmaWxsOm5vbmU7c3Ryb2tlOiM1NTZBOEE7c3Ryb2tlLXdpZHRoOjEuNTtzdHJva2UtbWl0ZXJsaW1pdDozOyIgZD0iICAgICAgTTM1LjI1LDQyLjgyYzAsMy41Mi03Ljg5LDYuMzctMTcuNjMsNi4zN0M3Ljg5LDQ5LjE5LDAsNDYuMzQsMCw0Mi44MmMwLTMuNTEsOC4xMi02LjM2LDE3Ljg2LTYuMzYgICAgICBDMjcuNTksMzYuNDYsMzUuMjUsMzkuMzEsMzUuMjUsNDIuODIiLz4mI3hhOwkJCTwvZz4mI3hhOwkJPC9nPiYjeGE7CTwvZz4mI3hhOzwvZz4mI3hhOzwvc3ZnPg==;rounded=1;dashed=1;strokeColor=#000000;fillColor=none;align=left;" parent="1" vertex="1">
          <mxGeometry x="630" y="515.5" width="30.06" height="39" as="geometry" />
        </mxCell>
        <mxCell id="-a6q5OrIec0-HFeY7hqp-19" value="" style="shape=image;verticalLabelPosition=bottom;labelBackgroundColor=#ffffff;verticalAlign=top;aspect=fixed;imageAspect=0;image=data:image/svg+xml,PHN2ZyB4bWxuczpjYz0iaHR0cDovL2NyZWF0aXZlY29tbW9ucy5vcmcvbnMjIiB4bWxuczpkYz0iaHR0cDovL3B1cmwub3JnL2RjL2VsZW1lbnRzLzEuMS8iIHhtbG5zOmlua3NjYXBlPSJodHRwOi8vd3d3Lmlua3NjYXBlLm9yZy9uYW1lc3BhY2VzL2lua3NjYXBlIiB4bWxuczpyZGY9Imh0dHA6Ly93d3cudzMub3JnLzE5OTkvMDIvMjItcmRmLXN5bnRheC1ucyMiIHhtbG5zOnNvZGlwb2RpPSJodHRwOi8vc29kaXBvZGkuc291cmNlZm9yZ2UubmV0L0RURC9zb2RpcG9kaS0wLmR0ZCIgeG1sbnM6c3ZnPSJodHRwOi8vd3d3LnczLm9yZy8yMDAwL3N2ZyIgeG1sbnM9Imh0dHA6Ly93d3cudzMub3JnLzIwMDAvc3ZnIiB4bWxuczp4bGluaz0iaHR0cDovL3d3dy53My5vcmcvMTk5OS94bGluayIgdmVyc2lvbj0iMS4xIiBpZD0ic3ZnMTAwMzAzIiBpbmtzY2FwZTp2ZXJzaW9uPSIwLjkyLjMgKDI0MDU1NDYsIDIwMTgtMDMtMTEpIiBzb2RpcG9kaTpkb2NuYW1lPSJnZW5lcmljX2RhdGFiYXNlX2JsdWUuc3ZnIiB4PSIwcHgiIHk9IjBweCIgdmlld0JveD0iMCAwIDM2Ljc5IDQ3LjY5IiBzdHlsZT0iZW5hYmxlLWJhY2tncm91bmQ6bmV3IDAgMCAzNi43OSA0Ny42OTsiIHhtbDpzcGFjZT0icHJlc2VydmUiPiYjeGE7PHNvZGlwb2RpOm5hbWVkdmlldyBib3JkZXJjb2xvcj0iIzY2NjY2NiIgYm9yZGVyb3BhY2l0eT0iMSIgZml0LW1hcmdpbi1ib3R0b209IjAiIGZpdC1tYXJnaW4tbGVmdD0iMCIgZml0LW1hcmdpbi1yaWdodD0iMCIgZml0LW1hcmdpbi10b3A9IjAiIGdyaWR0b2xlcmFuY2U9IjEwIiBndWlkZXRvbGVyYW5jZT0iMTAiIGlkPSJuYW1lZHZpZXcxMDAzMDUiIGlua3NjYXBlOmN1cnJlbnQtbGF5ZXI9InN2ZzEwMDMwMyIgaW5rc2NhcGU6Y3g9IjI0LjUzMDAwMSIgaW5rc2NhcGU6Y3k9IjMxLjc5MTY2OSIgaW5rc2NhcGU6cGFnZW9wYWNpdHk9IjAiIGlua3NjYXBlOnBhZ2VzaGFkb3c9IjIiIGlua3NjYXBlOndpbmRvdy1oZWlnaHQ9IjEwMTciIGlua3NjYXBlOndpbmRvdy1tYXhpbWl6ZWQ9IjEiIGlua3NjYXBlOndpbmRvdy13aWR0aD0iMTkyMCIgaW5rc2NhcGU6d2luZG93LXg9Ii04IiBpbmtzY2FwZTp3aW5kb3cteT0iLTgiIGlua3NjYXBlOnpvb209IjEzLjIxODQ4MSIgb2JqZWN0dG9sZXJhbmNlPSIxMCIgcGFnZWNvbG9yPSIjZmZmZmZmIiBzaG93Z3JpZD0iZmFsc2UiPiYjeGE7CTwvc29kaXBvZGk6bmFtZWR2aWV3PiYjeGE7PGcgaWQ9ImcxMDAzMDEiIHRyYW5zZm9ybT0idHJhbnNsYXRlKC0wLjc1LC0wLjc0NSkiPiYjeGE7CTx0aXRsZSBpZD0idGl0bGUxMDAyNjkiPlBhZ2UtMTwvdGl0bGU+JiN4YTsJPGcgaWQ9Imdyb3VwMzQ5My0xIiB0cmFuc2Zvcm09InRyYW5zbGF0ZSgxLjUsLTEuNSkiPiYjeGE7CQk8dGl0bGUgaWQ9InRpdGxlMTAwMjcxIj5HZW5lcmljIERhdGFiYXNlIChCbHVlKTwvdGl0bGU+JiN4YTsJCTxnIGlkPSJncm91cDM0OTQtMiI+JiN4YTsJCQk8dGl0bGUgaWQ9InRpdGxlMTAwMjczIj5nMTQ1MDwvdGl0bGU+JiN4YTsJCQk8ZyBpZD0ic2hhcGUzNDk1LTMiPiYjeGE7CQkJCTx0aXRsZSBpZD0idGl0bGUxMDAyNzUiPnBhdGgxNDQyPC90aXRsZT4mI3hhOwkJCQk8cGF0aCBpZD0icGF0aDEwMDI3NyIgaW5rc2NhcGU6Y29ubmVjdG9yLWN1cnZhdHVyZT0iMCIgc3R5bGU9ImZpbGw6I0ZGRkZGRjsiIGQ9Ik0zMS43OSw5TDIxLjQ0LDkuMDlMMCw5LjI3djMzLjM3ICAgICAgYzAsMy40Miw3LjUsNi4zNywxNy4yNSw2LjU1aDAuMzdjMS4zMiwwLDIuNi0wLjA3LDMuODItMC4xOWMzLjU3LTAuMjIsNy4wOC0xLjA3LDEwLjM1LTIuNTNjMi4xOS0xLjEsMy40Ni0yLjQ0LDMuNDYtMy44M1Y4Ljk3ICAgICAgTDMxLjc5LDl6Ii8+JiN4YTsJCQk8L2c+JiN4YTsJCQk8ZyBpZD0ic2hhcGUzNDk2LTUiIHRyYW5zZm9ybT0idHJhbnNsYXRlKDIxLjQ0MjUsLTAuMjEpIj4mI3hhOwkJCQk8dGl0bGUgaWQ9InRpdGxlMTAwMjgwIj5wYXRoMTQ0NDwvdGl0bGU+JiN4YTsJCQkJPHBhdGggaWQ9InBhdGgxMDAyODIiIGlua3NjYXBlOmNvbm5lY3Rvci1jdXJ2YXR1cmU9IjAiIHN0eWxlPSJmaWxsOiNFNUU1RTU7IiBkPSJNMTAuMzUsOS4yMXYzNy40NSAgICAgIEM3LjA4LDQ4LjEyLDMuNTcsNDguOTcsMCw0OS4xOVY5LjNMMTAuMzUsOS4yMXoiLz4mI3hhOwkJCTwvZz4mI3hhOwkJCTxnIGlkPSJzaGFwZTM0OTctNyI+JiN4YTsJCQkJPHRpdGxlIGlkPSJ0aXRsZTEwMDI4NSI+cGF0aDE0NDY8L3RpdGxlPiYjeGE7CQkJCTxwYXRoIGlkPSJwYXRoMTAwMjg3IiBpbmtzY2FwZTpjb25uZWN0b3ItY3VydmF0dXJlPSIwIiBzdHlsZT0iZmlsbDpub25lOyIgZD0iTTAsOS4yN3YzMy4zN2MwLDMuNDIsNy40Niw2LjM3LDE3LjI1LDYuNTVoMC4zNyAgICAgIGM5Ljk3LTAuMTMsMTcuNjMtMy4xLDE3LjYzLTYuNTVWOC45N0wwLDkuMjd6Ii8+JiN4YTsJCQkJJiN4YTsJCQkJCTxwYXRoIGlkPSJwYXRoMTAwMjg5IiBpbmtzY2FwZTpjb25uZWN0b3ItY3VydmF0dXJlPSIwIiBzdHlsZT0iZmlsbDpub25lO3N0cm9rZTojNTU2QThBO3N0cm9rZS13aWR0aDoxLjU7c3Ryb2tlLW1pdGVybGltaXQ6MzsiIGQ9IiAgICAgIE0wLDkuMjd2MzMuMzdjMCwzLjQyLDcuNDYsNi4zNywxNy4yNSw2LjU1aDAuMzdjOS45Ny0wLjEzLDE3LjYzLTMuMSwxNy42My02LjU1VjguOTciLz4mI3hhOwkJCTwvZz4mI3hhOwkJCTxnIGlkPSJzaGFwZTM0OTgtMTAiIHRyYW5zZm9ybT0idHJhbnNsYXRlKDAuMDQ1LC0zMy40NjUpIj4mI3hhOwkJCQk8dGl0bGUgaWQ9InRpdGxlMTAwMjkyIj5wYXRoMTQ0ODwvdGl0bGU+JiN4YTsJCQkJPHBhdGggaWQ9InBhdGgxMDAyOTQiIGlua3NjYXBlOmNvbm5lY3Rvci1jdXJ2YXR1cmU9IjAiIHN0eWxlPSJmaWxsOiM1NUQyRjY7IiBkPSJNMzUuMjUsNDIuODJjMCwzLjUyLTcuODksNi4zNy0xNy42Myw2LjM3ICAgICAgQzcuODksNDkuMTksMCw0Ni4zNCwwLDQyLjgyYzAtMy41MSw4LjEyLTYuMzYsMTcuODYtNi4zNkMyNy41OSwzNi40NiwzNS4yNSwzOS4zMSwzNS4yNSw0Mi44MkwzNS4yNSw0Mi44MnoiLz4mI3hhOwkJCQkmI3hhOwkJCQkJPHBhdGggaWQ9InBhdGgxMDAyOTYiIGlua3NjYXBlOmNvbm5lY3Rvci1jdXJ2YXR1cmU9IjAiIHN0eWxlPSJmaWxsOm5vbmU7c3Ryb2tlOiM1NTZBOEE7c3Ryb2tlLXdpZHRoOjEuNTtzdHJva2UtbWl0ZXJsaW1pdDozOyIgZD0iICAgICAgTTM1LjI1LDQyLjgyYzAsMy41Mi03Ljg5LDYuMzctMTcuNjMsNi4zN0M3Ljg5LDQ5LjE5LDAsNDYuMzQsMCw0Mi44MmMwLTMuNTEsOC4xMi02LjM2LDE3Ljg2LTYuMzYgICAgICBDMjcuNTksMzYuNDYsMzUuMjUsMzkuMzEsMzUuMjUsNDIuODIiLz4mI3hhOwkJCTwvZz4mI3hhOwkJPC9nPiYjeGE7CTwvZz4mI3hhOzwvZz4mI3hhOzwvc3ZnPg==;rounded=1;dashed=1;strokeColor=#000000;fillColor=none;align=left;" parent="1" vertex="1">
          <mxGeometry x="690" y="515.5" width="30.06" height="39" as="geometry" />
        </mxCell>
        <mxCell id="-a6q5OrIec0-HFeY7hqp-20" value="" style="shape=image;verticalLabelPosition=bottom;labelBackgroundColor=#ffffff;verticalAlign=top;aspect=fixed;imageAspect=0;image=data:image/svg+xml,PHN2ZyB4bWxuczpjYz0iaHR0cDovL2NyZWF0aXZlY29tbW9ucy5vcmcvbnMjIiB4bWxuczpkYz0iaHR0cDovL3B1cmwub3JnL2RjL2VsZW1lbnRzLzEuMS8iIHhtbG5zOmlua3NjYXBlPSJodHRwOi8vd3d3Lmlua3NjYXBlLm9yZy9uYW1lc3BhY2VzL2lua3NjYXBlIiB4bWxuczpyZGY9Imh0dHA6Ly93d3cudzMub3JnLzE5OTkvMDIvMjItcmRmLXN5bnRheC1ucyMiIHhtbG5zOnNvZGlwb2RpPSJodHRwOi8vc29kaXBvZGkuc291cmNlZm9yZ2UubmV0L0RURC9zb2RpcG9kaS0wLmR0ZCIgeG1sbnM6c3ZnPSJodHRwOi8vd3d3LnczLm9yZy8yMDAwL3N2ZyIgeG1sbnM9Imh0dHA6Ly93d3cudzMub3JnLzIwMDAvc3ZnIiB4bWxuczp4bGluaz0iaHR0cDovL3d3dy53My5vcmcvMTk5OS94bGluayIgdmVyc2lvbj0iMS4xIiBpZD0ic3ZnMTAwMzAzIiBpbmtzY2FwZTp2ZXJzaW9uPSIwLjkyLjMgKDI0MDU1NDYsIDIwMTgtMDMtMTEpIiBzb2RpcG9kaTpkb2NuYW1lPSJnZW5lcmljX2RhdGFiYXNlX2JsdWUuc3ZnIiB4PSIwcHgiIHk9IjBweCIgdmlld0JveD0iMCAwIDM2Ljc5IDQ3LjY5IiBzdHlsZT0iZW5hYmxlLWJhY2tncm91bmQ6bmV3IDAgMCAzNi43OSA0Ny42OTsiIHhtbDpzcGFjZT0icHJlc2VydmUiPiYjeGE7PHNvZGlwb2RpOm5hbWVkdmlldyBib3JkZXJjb2xvcj0iIzY2NjY2NiIgYm9yZGVyb3BhY2l0eT0iMSIgZml0LW1hcmdpbi1ib3R0b209IjAiIGZpdC1tYXJnaW4tbGVmdD0iMCIgZml0LW1hcmdpbi1yaWdodD0iMCIgZml0LW1hcmdpbi10b3A9IjAiIGdyaWR0b2xlcmFuY2U9IjEwIiBndWlkZXRvbGVyYW5jZT0iMTAiIGlkPSJuYW1lZHZpZXcxMDAzMDUiIGlua3NjYXBlOmN1cnJlbnQtbGF5ZXI9InN2ZzEwMDMwMyIgaW5rc2NhcGU6Y3g9IjI0LjUzMDAwMSIgaW5rc2NhcGU6Y3k9IjMxLjc5MTY2OSIgaW5rc2NhcGU6cGFnZW9wYWNpdHk9IjAiIGlua3NjYXBlOnBhZ2VzaGFkb3c9IjIiIGlua3NjYXBlOndpbmRvdy1oZWlnaHQ9IjEwMTciIGlua3NjYXBlOndpbmRvdy1tYXhpbWl6ZWQ9IjEiIGlua3NjYXBlOndpbmRvdy13aWR0aD0iMTkyMCIgaW5rc2NhcGU6d2luZG93LXg9Ii04IiBpbmtzY2FwZTp3aW5kb3cteT0iLTgiIGlua3NjYXBlOnpvb209IjEzLjIxODQ4MSIgb2JqZWN0dG9sZXJhbmNlPSIxMCIgcGFnZWNvbG9yPSIjZmZmZmZmIiBzaG93Z3JpZD0iZmFsc2UiPiYjeGE7CTwvc29kaXBvZGk6bmFtZWR2aWV3PiYjeGE7PGcgaWQ9ImcxMDAzMDEiIHRyYW5zZm9ybT0idHJhbnNsYXRlKC0wLjc1LC0wLjc0NSkiPiYjeGE7CTx0aXRsZSBpZD0idGl0bGUxMDAyNjkiPlBhZ2UtMTwvdGl0bGU+JiN4YTsJPGcgaWQ9Imdyb3VwMzQ5My0xIiB0cmFuc2Zvcm09InRyYW5zbGF0ZSgxLjUsLTEuNSkiPiYjeGE7CQk8dGl0bGUgaWQ9InRpdGxlMTAwMjcxIj5HZW5lcmljIERhdGFiYXNlIChCbHVlKTwvdGl0bGU+JiN4YTsJCTxnIGlkPSJncm91cDM0OTQtMiI+JiN4YTsJCQk8dGl0bGUgaWQ9InRpdGxlMTAwMjczIj5nMTQ1MDwvdGl0bGU+JiN4YTsJCQk8ZyBpZD0ic2hhcGUzNDk1LTMiPiYjeGE7CQkJCTx0aXRsZSBpZD0idGl0bGUxMDAyNzUiPnBhdGgxNDQyPC90aXRsZT4mI3hhOwkJCQk8cGF0aCBpZD0icGF0aDEwMDI3NyIgaW5rc2NhcGU6Y29ubmVjdG9yLWN1cnZhdHVyZT0iMCIgc3R5bGU9ImZpbGw6I0ZGRkZGRjsiIGQ9Ik0zMS43OSw5TDIxLjQ0LDkuMDlMMCw5LjI3djMzLjM3ICAgICAgYzAsMy40Miw3LjUsNi4zNywxNy4yNSw2LjU1aDAuMzdjMS4zMiwwLDIuNi0wLjA3LDMuODItMC4xOWMzLjU3LTAuMjIsNy4wOC0xLjA3LDEwLjM1LTIuNTNjMi4xOS0xLjEsMy40Ni0yLjQ0LDMuNDYtMy44M1Y4Ljk3ICAgICAgTDMxLjc5LDl6Ii8+JiN4YTsJCQk8L2c+JiN4YTsJCQk8ZyBpZD0ic2hhcGUzNDk2LTUiIHRyYW5zZm9ybT0idHJhbnNsYXRlKDIxLjQ0MjUsLTAuMjEpIj4mI3hhOwkJCQk8dGl0bGUgaWQ9InRpdGxlMTAwMjgwIj5wYXRoMTQ0NDwvdGl0bGU+JiN4YTsJCQkJPHBhdGggaWQ9InBhdGgxMDAyODIiIGlua3NjYXBlOmNvbm5lY3Rvci1jdXJ2YXR1cmU9IjAiIHN0eWxlPSJmaWxsOiNFNUU1RTU7IiBkPSJNMTAuMzUsOS4yMXYzNy40NSAgICAgIEM3LjA4LDQ4LjEyLDMuNTcsNDguOTcsMCw0OS4xOVY5LjNMMTAuMzUsOS4yMXoiLz4mI3hhOwkJCTwvZz4mI3hhOwkJCTxnIGlkPSJzaGFwZTM0OTctNyI+JiN4YTsJCQkJPHRpdGxlIGlkPSJ0aXRsZTEwMDI4NSI+cGF0aDE0NDY8L3RpdGxlPiYjeGE7CQkJCTxwYXRoIGlkPSJwYXRoMTAwMjg3IiBpbmtzY2FwZTpjb25uZWN0b3ItY3VydmF0dXJlPSIwIiBzdHlsZT0iZmlsbDpub25lOyIgZD0iTTAsOS4yN3YzMy4zN2MwLDMuNDIsNy40Niw2LjM3LDE3LjI1LDYuNTVoMC4zNyAgICAgIGM5Ljk3LTAuMTMsMTcuNjMtMy4xLDE3LjYzLTYuNTVWOC45N0wwLDkuMjd6Ii8+JiN4YTsJCQkJJiN4YTsJCQkJCTxwYXRoIGlkPSJwYXRoMTAwMjg5IiBpbmtzY2FwZTpjb25uZWN0b3ItY3VydmF0dXJlPSIwIiBzdHlsZT0iZmlsbDpub25lO3N0cm9rZTojNTU2QThBO3N0cm9rZS13aWR0aDoxLjU7c3Ryb2tlLW1pdGVybGltaXQ6MzsiIGQ9IiAgICAgIE0wLDkuMjd2MzMuMzdjMCwzLjQyLDcuNDYsNi4zNywxNy4yNSw2LjU1aDAuMzdjOS45Ny0wLjEzLDE3LjYzLTMuMSwxNy42My02LjU1VjguOTciLz4mI3hhOwkJCTwvZz4mI3hhOwkJCTxnIGlkPSJzaGFwZTM0OTgtMTAiIHRyYW5zZm9ybT0idHJhbnNsYXRlKDAuMDQ1LC0zMy40NjUpIj4mI3hhOwkJCQk8dGl0bGUgaWQ9InRpdGxlMTAwMjkyIj5wYXRoMTQ0ODwvdGl0bGU+JiN4YTsJCQkJPHBhdGggaWQ9InBhdGgxMDAyOTQiIGlua3NjYXBlOmNvbm5lY3Rvci1jdXJ2YXR1cmU9IjAiIHN0eWxlPSJmaWxsOiM1NUQyRjY7IiBkPSJNMzUuMjUsNDIuODJjMCwzLjUyLTcuODksNi4zNy0xNy42Myw2LjM3ICAgICAgQzcuODksNDkuMTksMCw0Ni4zNCwwLDQyLjgyYzAtMy41MSw4LjEyLTYuMzYsMTcuODYtNi4zNkMyNy41OSwzNi40NiwzNS4yNSwzOS4zMSwzNS4yNSw0Mi44MkwzNS4yNSw0Mi44MnoiLz4mI3hhOwkJCQkmI3hhOwkJCQkJPHBhdGggaWQ9InBhdGgxMDAyOTYiIGlua3NjYXBlOmNvbm5lY3Rvci1jdXJ2YXR1cmU9IjAiIHN0eWxlPSJmaWxsOm5vbmU7c3Ryb2tlOiM1NTZBOEE7c3Ryb2tlLXdpZHRoOjEuNTtzdHJva2UtbWl0ZXJsaW1pdDozOyIgZD0iICAgICAgTTM1LjI1LDQyLjgyYzAsMy41Mi03Ljg5LDYuMzctMTcuNjMsNi4zN0M3Ljg5LDQ5LjE5LDAsNDYuMzQsMCw0Mi44MmMwLTMuNTEsOC4xMi02LjM2LDE3Ljg2LTYuMzYgICAgICBDMjcuNTksMzYuNDYsMzUuMjUsMzkuMzEsMzUuMjUsNDIuODIiLz4mI3hhOwkJCTwvZz4mI3hhOwkJPC9nPiYjeGE7CTwvZz4mI3hhOzwvZz4mI3hhOzwvc3ZnPg==;rounded=1;dashed=1;strokeColor=#000000;fillColor=none;align=left;" parent="1" vertex="1">
          <mxGeometry x="740" y="515.5" width="30.06" height="39" as="geometry" />
        </mxCell>
        <mxCell id="-a6q5OrIec0-HFeY7hqp-21" value="异步任务" style="whiteSpace=wrap;html=1;align=left;verticalAlign=top;rounded=1;fillColor=none;dashed=1;arcSize=3;" parent="1" vertex="1">
          <mxGeometry x="660" y="170" width="160" height="310" as="geometry" />
        </mxCell>
        <mxCell id="-a6q5OrIec0-HFeY7hqp-22" value="&lt;span style=&quot;font-size: 1px; color: rgb(38, 38, 38); line-height: 1.74; letter-spacing: 0.05em; outline-style: none; overflow-wrap: break-word;&quot;&gt;product-sync&lt;/span&gt;" style="whiteSpace=wrap;html=1;align=left;verticalAlign=top;rounded=1;arcSize=3;spacingTop=-8;fontSize=1;fillColor=#f8cecc;strokeColor=#b85450;" parent="1" vertex="1">
          <mxGeometry x="677.5" y="200" width="125" height="260" as="geometry" />
        </mxCell>
        <mxCell id="-a6q5OrIec0-HFeY7hqp-25" value="消息队列" style="whiteSpace=wrap;html=1;align=left;verticalAlign=top;rounded=1;fillColor=none;dashed=1;arcSize=3;" parent="1" vertex="1">
          <mxGeometry x="533" y="324" width="90" height="156" as="geometry" />
        </mxCell>
        <mxCell id="-a6q5OrIec0-HFeY7hqp-26" value="" style="shape=image;verticalLabelPosition=bottom;labelBackgroundColor=#ffffff;verticalAlign=top;aspect=fixed;imageAspect=0;image=data:image/svg+xml,PHN2ZyB4bWxuczpjYz0iaHR0cDovL2NyZWF0aXZlY29tbW9ucy5vcmcvbnMjIiB4bWxuczpkYz0iaHR0cDovL3B1cmwub3JnL2RjL2VsZW1lbnRzLzEuMS8iIHhtbG5zOmlua3NjYXBlPSJodHRwOi8vd3d3Lmlua3NjYXBlLm9yZy9uYW1lc3BhY2VzL2lua3NjYXBlIiB4bWxuczpyZGY9Imh0dHA6Ly93d3cudzMub3JnLzE5OTkvMDIvMjItcmRmLXN5bnRheC1ucyMiIHhtbG5zOnNvZGlwb2RpPSJodHRwOi8vc29kaXBvZGkuc291cmNlZm9yZ2UubmV0L0RURC9zb2RpcG9kaS0wLmR0ZCIgeG1sbnM6c3ZnPSJodHRwOi8vd3d3LnczLm9yZy8yMDAwL3N2ZyIgeG1sbnM9Imh0dHA6Ly93d3cudzMub3JnLzIwMDAvc3ZnIiB4bWxuczp4bGluaz0iaHR0cDovL3d3dy53My5vcmcvMTk5OS94bGluayIgdmVyc2lvbj0iMS4xIiBpZD0ic3ZnMTAzNDc0IiBpbmtzY2FwZTp2ZXJzaW9uPSIwLjkyLjMgKDI0MDU1NDYsIDIwMTgtMDMtMTEpIiBzb2RpcG9kaTpkb2NuYW1lPSJyZWRpcy5zdmciIHg9IjBweCIgeT0iMHB4IiB2aWV3Qm94PSIwIDAgMzcuNTEgMzEuNiIgc3R5bGU9ImVuYWJsZS1iYWNrZ3JvdW5kOm5ldyAwIDAgMzcuNTEgMzEuNjsiIHhtbDpzcGFjZT0icHJlc2VydmUiPiYjeGE7PHNvZGlwb2RpOm5hbWVkdmlldyBib3JkZXJjb2xvcj0iIzY2NjY2NiIgYm9yZGVyb3BhY2l0eT0iMSIgZml0LW1hcmdpbi1ib3R0b209IjAiIGZpdC1tYXJnaW4tbGVmdD0iMCIgZml0LW1hcmdpbi1yaWdodD0iMCIgZml0LW1hcmdpbi10b3A9IjAiIGdyaWR0b2xlcmFuY2U9IjEwIiBndWlkZXRvbGVyYW5jZT0iMTAiIGlkPSJuYW1lZHZpZXcxMDM0NzYiIGlua3NjYXBlOmN1cnJlbnQtbGF5ZXI9InN2ZzEwMzQ3NCIgaW5rc2NhcGU6Y3g9IjI1LjAwNTA2MyIgaW5rc2NhcGU6Y3k9IjIxLjA2NDU5MiIgaW5rc2NhcGU6cGFnZW9wYWNpdHk9IjAiIGlua3NjYXBlOnBhZ2VzaGFkb3c9IjIiIGlua3NjYXBlOndpbmRvdy1oZWlnaHQ9IjEwMTciIGlua3NjYXBlOndpbmRvdy1tYXhpbWl6ZWQ9IjEiIGlua3NjYXBlOndpbmRvdy13aWR0aD0iMTkyMCIgaW5rc2NhcGU6d2luZG93LXg9Ii04IiBpbmtzY2FwZTp3aW5kb3cteT0iLTgiIGlua3NjYXBlOnpvb209IjE5LjY0MjUwNCIgb2JqZWN0dG9sZXJhbmNlPSIxMCIgcGFnZWNvbG9yPSIjZmZmZmZmIiBzaG93Z3JpZD0iZmFsc2UiPiYjeGE7CTwvc29kaXBvZGk6bmFtZWR2aWV3PiYjeGE7PGcgaWQ9ImcxMDM0NzIiIHRyYW5zZm9ybT0idHJhbnNsYXRlKC0wLjc0NjgyNzEsLTAuNzUxNjI1KSI+JiN4YTsJPHRpdGxlIGlkPSJ0aXRsZTEwMzM4OCI+UGFnZS0xPC90aXRsZT4mI3hhOwk8ZyBpZD0iZ3JvdXAzNzc2LTEiIHRyYW5zZm9ybT0idHJhbnNsYXRlKDAuNDA3MjksLTAuNjA5Mzc1KSI+JiN4YTsJCTx0aXRsZSBpZD0idGl0bGUxMDMzOTAiPlJlZGlzLjYzNjwvdGl0bGU+JiN4YTsJCTxnIGlkPSJncm91cDM3NzctMiI+JiN4YTsJCQk8dGl0bGUgaWQ9InRpdGxlMTAzMzkyIj5TaGVldC4zNzc3PC90aXRsZT4mI3hhOwkJCTxnIGlkPSJzaGFwZTM3NzgtMyIgdHJhbnNmb3JtPSJ0cmFuc2xhdGUoMC4yMzcpIj4mI3hhOwkJCQk8dGl0bGUgaWQ9InRpdGxlMTAzMzk0Ij5TaGVldC4zNzc4PC90aXRsZT4mI3hhOwkJCQk8cGF0aCBpZD0icGF0aDEwMzM5NiIgaW5rc2NhcGU6Y29ubmVjdG9yLWN1cnZhdHVyZT0iMCIgc3R5bGU9ImZpbGw6I0JBMTQxQTsiIGQ9Ik0wLjExLDI1LjE5Yy0wLjA2LDAuNCwwLjI4LDAuOCwxLjAyLDEuMTEgICAgICBsMTUuMjQsNi4yNGMxLjM3LDAuNTYsMy42LDAuNTYsNC45NywwbDE1LjI0LTYuMjRjMC43NC0wLjMxLDEuMDgtMC43MSwxLjAyLTEuMTF2LTMuNThjMC4wNSwwLjM5LTAuMjksMC43OS0xLjAyLDEuMDkgICAgICBsLTE1LjI0LDYuMjRjLTEuMzcsMC41Ni0zLjYsMC41Ni00Ljk3LDBMMS4xMywyMi43Yy0wLjgtMC4zMy0xLjEzLTAuNzgtMS0xLjJMMC4xMSwyNS4xOXoiLz4mI3hhOwkJCTwvZz4mI3hhOwkJCTxnIGlkPSJzaGFwZTM3NzktNSIgdHJhbnNmb3JtPSJ0cmFuc2xhdGUoMCwtMy42KSI+JiN4YTsJCQkJPHRpdGxlIGlkPSJ0aXRsZTEwMzM5OSI+U2hlZXQuMzc3OTwvdGl0bGU+JiN4YTsJCQkJPHBhdGggaWQ9InBhdGgxMDM0MDEiIGlua3NjYXBlOmNvbm5lY3Rvci1jdXJ2YXR1cmU9IjAiIHN0eWxlPSJmaWxsOiNCQTE0MUE7IiBkPSJNMzYuODEsMjQuMjZjMS4zOCwwLjU3LDEuMzgsMS40OCwwLDIuMDQgICAgICBsLTE1LjIzLDYuMjRjLTEuMzcsMC41Ni0zLjYsMC41Ni00Ljk3LDBMMS4zNywyNi4zQzAsMjUuNzQsMCwyNC44MywxLjM3LDI0LjI2bDE1LjI0LTYuMjRjMS4zNy0wLjU2LDMuNi0wLjU2LDQuOTcsMCAgICAgIEwzNi44MSwyNC4yNnoiLz4mI3hhOwkJCTwvZz4mI3hhOwkJPC9nPiYjeGE7CQk8ZyBpZD0iZ3JvdXAzNzgwLTciIHRyYW5zZm9ybT0idHJhbnNsYXRlKDAsLTYuMzE5NSkiPiYjeGE7CQkJPHRpdGxlIGlkPSJ0aXRsZTEwMzQwNSI+U2hlZXQuMzc4MDwvdGl0bGU+JiN4YTsJCQk8ZyBpZD0ic2hhcGUzNzgxLTgiIHRyYW5zZm9ybT0idHJhbnNsYXRlKDAuMjM3KSI+JiN4YTsJCQkJPHRpdGxlIGlkPSJ0aXRsZTEwMzQwNyI+U2hlZXQuMzc4MTwvdGl0bGU+JiN4YTsJCQkJPHBhdGggaWQ9InBhdGgxMDM0MDkiIGlua3NjYXBlOmNvbm5lY3Rvci1jdXJ2YXR1cmU9IjAiIHN0eWxlPSJmaWxsOiNCQTE0MUE7IiBkPSJNMC4xMSwyNS4xOWMtMC4wNiwwLjQsMC4yOCwwLjgsMS4wMiwxLjExICAgICAgbDE1LjI0LDYuMjRjMS4zNywwLjU2LDMuNiwwLjU2LDQuOTcsMGwxNS4yNC02LjI0YzAuNzQtMC4zMSwxLjA4LTAuNzEsMS4wMi0xLjExdi0zLjU4YzAuMDUsMC4zOS0wLjI5LDAuNzktMS4wMiwxLjA5ICAgICAgbC0xNS4yNCw2LjI0Yy0xLjM3LDAuNTYtMy42LDAuNTYtNC45NywwTDEuMTMsMjIuN2MtMC44LTAuMzMtMS4xMy0wLjc4LTEtMS4yTDAuMTEsMjUuMTl6Ii8+JiN4YTsJCQk8L2c+JiN4YTsJCQk8ZyBpZD0ic2hhcGUzNzgyLTEwIiB0cmFuc2Zvcm09InRyYW5zbGF0ZSgwLC0zLjYpIj4mI3hhOwkJCQk8dGl0bGUgaWQ9InRpdGxlMTAzNDEyIj5TaGVldC4zNzgyPC90aXRsZT4mI3hhOwkJCQk8cGF0aCBpZD0icGF0aDEwMzQxNCIgaW5rc2NhcGU6Y29ubmVjdG9yLWN1cnZhdHVyZT0iMCIgc3R5bGU9ImZpbGw6I0JBMTQxQTsiIGQ9Ik0zNi44MSwyNC4yNmMxLjM4LDAuNTcsMS4zOCwxLjQ4LDAsMi4wNCAgICAgIGwtMTUuMjMsNi4yNGMtMS4zNywwLjU2LTMuNiwwLjU2LTQuOTcsMEwxLjM3LDI2LjNDMCwyNS43NCwwLDI0LjgzLDEuMzcsMjQuMjZsMTUuMjQtNi4yNGMxLjM3LTAuNTYsMy42LTAuNTYsNC45NywwICAgICAgTDM2LjgxLDI0LjI2eiIvPiYjeGE7CQkJPC9nPiYjeGE7CQk8L2c+JiN4YTsJCTxnIGlkPSJncm91cDM3ODMtMTIiPiYjeGE7CQkJPHRpdGxlIGlkPSJ0aXRsZTEwMzQxOCI+U2hlZXQuMzc4MzwvdGl0bGU+JiN4YTsJCQk8ZyBpZD0ic2hhcGUzNzg0LTEzIiB0cmFuc2Zvcm09InRyYW5zbGF0ZSgwLjIzNywtMTIuNjM5KSI+JiN4YTsJCQkJPHRpdGxlIGlkPSJ0aXRsZTEwMzQyMCI+U2hlZXQuMzc4NDwvdGl0bGU+JiN4YTsJCQkJPHBhdGggaWQ9InBhdGgxMDM0MjIiIGlua3NjYXBlOmNvbm5lY3Rvci1jdXJ2YXR1cmU9IjAiIHN0eWxlPSJmaWxsOiNCQTE0MUE7IiBkPSJNMC4xMSwyNS4xOWMtMC4wNiwwLjQsMC4yOCwwLjgsMS4wMiwxLjExICAgICAgbDE1LjI0LDYuMjRjMS4zNywwLjU2LDMuNiwwLjU2LDQuOTcsMGwxNS4yNC02LjI0YzAuNzQtMC4zMSwxLjA4LTAuNzEsMS4wMi0xLjExdi0zLjU4YzAuMDUsMC4zOS0wLjI5LDAuNzktMS4wMiwxLjA5ICAgICAgbC0xNS4yNCw2LjI0Yy0xLjM3LDAuNTYtMy42LDAuNTYtNC45NywwTDEuMTMsMjIuN2MtMC44LTAuMzMtMS4xMy0wLjc4LTEtMS4yTDAuMTEsMjUuMTl6Ii8+JiN4YTsJCQk8L2c+JiN4YTsJCQk8ZyBpZD0ic2hhcGUzNzg1LTE1IiB0cmFuc2Zvcm09InRyYW5zbGF0ZSgwLjIzNykiPiYjeGE7CQkJCTx0aXRsZSBpZD0idGl0bGUxMDM0MjUiPlNoZWV0LjM3ODU8L3RpdGxlPiYjeGE7CQkJCTxwYXRoIGlkPSJwYXRoMTAzNDI3IiBpbmtzY2FwZTpjb25uZWN0b3ItY3VydmF0dXJlPSIwIiBzdHlsZT0iZmlsbDojMUUxRTFFO2ZpbGwtb3BhY2l0eTowLjI1OyIgZD0iTTAuMTEsMjUuMTkgICAgICBjLTAuMDYsMC40LDAuMjgsMC44LDEuMDIsMS4xMWwxNS4yNCw2LjI0YzEuMzcsMC41NiwzLjYsMC41Niw0Ljk3LDBsMTUuMjQtNi4yNGMwLjc0LTAuMzEsMS4wOC0wLjcxLDEuMDItMS4xMXYtMy41OCAgICAgIGMwLjA1LDAuMzktMC4yOSwwLjc5LTEuMDIsMS4wOWwtMTUuMjQsNi4yNGMtMS4zNywwLjU2LTMuNiwwLjU2LTQuOTcsMEwxLjEzLDIyLjdjLTAuOC0wLjMzLTEuMTMtMC43OC0xLTEuMkwwLjExLDI1LjE5eiIvPiYjeGE7CQkJPC9nPiYjeGE7CQkJPGcgaWQ9InNoYXBlMzc4Ni0xNyIgdHJhbnNmb3JtPSJ0cmFuc2xhdGUoMC4yMzcsLTYuMzE5NSkiPiYjeGE7CQkJCTx0aXRsZSBpZD0idGl0bGUxMDM0MzAiPlNoZWV0LjM3ODY8L3RpdGxlPiYjeGE7CQkJCTxwYXRoIGlkPSJwYXRoMTAzNDMyIiBpbmtzY2FwZTpjb25uZWN0b3ItY3VydmF0dXJlPSIwIiBzdHlsZT0iZmlsbDojMUUxRTFFO2ZpbGwtb3BhY2l0eTowLjI1OyIgZD0iTTAuMTEsMjUuMTkgICAgICBjLTAuMDYsMC40LDAuMjgsMC44LDEuMDIsMS4xMWwxNS4yNCw2LjI0YzEuMzcsMC41NiwzLjYsMC41Niw0Ljk3LDBsMTUuMjQtNi4yNGMwLjc0LTAuMzEsMS4wOC0wLjcxLDEuMDItMS4xMXYtMy41OCAgICAgIGMwLjA1LDAuMzktMC4yOSwwLjc5LTEuMDIsMS4wOWwtMTUuMjQsNi4yNGMtMS4zNywwLjU2LTMuNiwwLjU2LTQuOTcsMEwxLjEzLDIyLjdjLTAuOC0wLjMzLTEuMTMtMC43OC0xLTEuMkwwLjExLDI1LjE5eiIvPiYjeGE7CQkJPC9nPiYjeGE7CQkJPGcgaWQ9InNoYXBlMzc4Ny0xOSIgdHJhbnNmb3JtPSJ0cmFuc2xhdGUoMC4yMzcsLTEyLjYzOSkiPiYjeGE7CQkJCTx0aXRsZSBpZD0idGl0bGUxMDM0MzUiPlNoZWV0LjM3ODc8L3RpdGxlPiYjeGE7CQkJCTxwYXRoIGlkPSJwYXRoMTAzNDM3IiBpbmtzY2FwZTpjb25uZWN0b3ItY3VydmF0dXJlPSIwIiBzdHlsZT0iZmlsbDojMUUxRTFFO2ZpbGwtb3BhY2l0eTowLjI1OyIgZD0iTTAuMTEsMjUuMTkgICAgICBjLTAuMDYsMC40LDAuMjgsMC44LDEuMDIsMS4xMWwxNS4yNCw2LjI0YzEuMzcsMC41NiwzLjYsMC41Niw0Ljk3LDBsMTUuMjQtNi4yNGMwLjc0LTAuMzEsMS4wOC0wLjcxLDEuMDItMS4xMXYtMy41OCAgICAgIGMwLjA1LDAuMzktMC4yOSwwLjc5LTEuMDIsMS4wOWwtMTUuMjQsNi4yNGMtMS4zNywwLjU2LTMuNiwwLjU2LTQuOTcsMEwxLjEzLDIyLjdjLTAuOC0wLjMzLTEuMTMtMC43OC0xLTEuMkwwLjExLDI1LjE5eiIvPiYjeGE7CQkJPC9nPiYjeGE7CQkJPGcgaWQ9InNoYXBlMzc4OC0yMSIgdHJhbnNmb3JtPSJ0cmFuc2xhdGUoMCwtMTYuMjM5KSI+JiN4YTsJCQkJPHRpdGxlIGlkPSJ0aXRsZTEwMzQ0MCI+U2hlZXQuMzc4ODwvdGl0bGU+JiN4YTsJCQkJPHBhdGggaWQ9InBhdGgxMDM0NDIiIGlua3NjYXBlOmNvbm5lY3Rvci1jdXJ2YXR1cmU9IjAiIHN0eWxlPSJmaWxsOiNCQTE0MUE7IiBkPSJNMzYuODEsMjQuMjZjMS4zOCwwLjU3LDEuMzgsMS40OCwwLDIuMDQgICAgICBsLTE1LjIzLDYuMjRjLTEuMzcsMC41Ni0zLjYsMC41Ni00Ljk3LDBMMS4zNywyNi4zQzAsMjUuNzQsMCwyNC44MywxLjM3LDI0LjI2bDE1LjI0LTYuMjRjMS4zNy0wLjU2LDMuNi0wLjU2LDQuOTcsMCAgICAgIEwzNi44MSwyNC4yNnoiLz4mI3hhOwkJCTwvZz4mI3hhOwkJPC9nPiYjeGE7CQk8ZyBpZD0ic2hhcGUzNzg5LTIzIiB0cmFuc2Zvcm09InRyYW5zbGF0ZSg2LjM2MTUsLTIyLjExMjMpIj4mI3hhOwkJCTx0aXRsZSBpZD0idGl0bGUxMDM0NDYiPlNoZWV0LjM3ODk8L3RpdGxlPiYjeGE7CQkJPHBhdGggaWQ9InBhdGgxMDM0NDgiIGlua3NjYXBlOmNvbm5lY3Rvci1jdXJ2YXR1cmU9IjAiIHN0eWxlPSJmaWxsOiNGRkZGRkY7IiBkPSJNOC4wNCwzMi4zM2MtMS43NCwwLjc3LTQuNTYsMC43Ny02LjMsMCAgICAgQzAsMzEuNTYsMCwzMC4zLDEuNzQsMjkuNTNjMS43NC0wLjc3LDQuNTYtMC43Nyw2LjMsMEM5Ljc3LDMwLjMsOS43OCwzMS41Niw4LjA0LDMyLjMzeiIvPiYjeGE7CQk8L2c+JiN4YTsJCTxnIGlkPSJzaGFwZTM3OTAtMjUiIHRyYW5zZm9ybT0idHJhbnNsYXRlKDEzLjIxOCwtMTcuOTg4KSI+JiN4YTsJCQk8dGl0bGUgaWQ9InRpdGxlMTAzNDUxIj5TaGVldC4zNzkwPC90aXRsZT4mI3hhOwkJCTxwYXRoIGlkPSJwYXRoMTAzNDUzIiBpbmtzY2FwZTpjb25uZWN0b3ItY3VydmF0dXJlPSIwIiBzdHlsZT0iZmlsbDojRkZGRkZGOyIgZD0iTTAsMzAuMmw4LjkyLTEuMDZMNi41MywzMy4xTDAsMzAuMnoiLz4mI3hhOwkJPC9nPiYjeGE7CQk8ZyBpZD0ic2hhcGUzNzkxLTI3IiB0cmFuc2Zvcm09InRyYW5zbGF0ZSgyMS44NjQsLTIxLjg5MSkiPiYjeGE7CQkJPHRpdGxlIGlkPSJ0aXRsZTEwMzQ1NiI+U2hlZXQuMzc5MTwvdGl0bGU+JiN4YTsJCQk8cGF0aCBpZD0icGF0aDEwMzQ1OCIgaW5rc2NhcGU6Y29ubmVjdG9yLWN1cnZhdHVyZT0iMCIgc3R5bGU9ImZpbGw6IzFFMUUxRTtmaWxsLW9wYWNpdHk6MC4yNTsiIGQ9Ik01LjM0LDMzLjFMMCwzMC43MyAgICAgbDUuMzQtMi4zN2w1LjMzLDIuMzdMNS4zNCwzMy4xeiIvPiYjeGE7CQk8L2c+JiN4YTsJCTxnIGlkPSJzaGFwZTM3OTItMjkiIHRyYW5zZm9ybT0idHJhbnNsYXRlKDIxLjg2NCwtMjEuODkxKSI+JiN4YTsJCQk8dGl0bGUgaWQ9InRpdGxlMTAzNDYxIj5TaGVldC4zNzkyPC90aXRsZT4mI3hhOwkJCTxwYXRoIGlkPSJwYXRoMTAzNDYzIiBpbmtzY2FwZTpjb25uZWN0b3ItY3VydmF0dXJlPSIwIiBzdHlsZT0iZmlsbDojMUUxRTFFO2ZpbGwtb3BhY2l0eTowLjI1OyIgZD0iTTUuMzQsMzMuMUwwLDMwLjczICAgICBsNS4zNC0yLjM3VjMzLjF6Ii8+JiN4YTsJCTwvZz4mI3hhOwkJPGcgaWQ9InNoYXBlMzc5My0zMSIgdHJhbnNmb3JtPSJ0cmFuc2xhdGUoMTMuODk2NywtMjUuNjE1NSkiPiYjeGE7CQkJPHRpdGxlIGlkPSJ0aXRsZTEwMzQ2NiI+U2hlZXQuMzc5MzwvdGl0bGU+JiN4YTsJCQk8cGF0aCBpZD0icGF0aDEwMzQ2OCIgaW5rc2NhcGU6Y29ubmVjdG9yLWN1cnZhdHVyZT0iMCIgc3R5bGU9ImZpbGw6I0ZGRkZGRjsiIGQ9Ik0zLjQ4LDMxLjU1TDAsMzEuMjRsMy4wOS0wLjc4bC0wLjQtMS41NyAgICAgbDIuNjIsMS4wN2wzLjI0LTAuNjZsLTEuNDgsMS40NGwyLjQxLDEuMTdsLTMuNTQtMC4xOEw0LjE5LDMzLjFMMy40OCwzMS41NXoiLz4mI3hhOwkJPC9nPiYjeGE7CTwvZz4mI3hhOzwvZz4mI3hhOzwvc3ZnPg==;rounded=1;dashed=1;strokeColor=#000000;fillColor=none;align=left;" parent="1" vertex="1">
          <mxGeometry x="530" y="212" width="38" height="32" as="geometry" />
        </mxCell>
        <mxCell id="-a6q5OrIec0-HFeY7hqp-27" value="" style="shape=image;verticalLabelPosition=bottom;labelBackgroundColor=#ffffff;verticalAlign=top;aspect=fixed;imageAspect=0;image=data:image/svg+xml,PHN2ZyB4bWxuczpjYz0iaHR0cDovL2NyZWF0aXZlY29tbW9ucy5vcmcvbnMjIiB4bWxuczpkYz0iaHR0cDovL3B1cmwub3JnL2RjL2VsZW1lbnRzLzEuMS8iIHhtbG5zOmlua3NjYXBlPSJodHRwOi8vd3d3Lmlua3NjYXBlLm9yZy9uYW1lc3BhY2VzL2lua3NjYXBlIiB4bWxuczpyZGY9Imh0dHA6Ly93d3cudzMub3JnLzE5OTkvMDIvMjItcmRmLXN5bnRheC1ucyMiIHhtbG5zOnNvZGlwb2RpPSJodHRwOi8vc29kaXBvZGkuc291cmNlZm9yZ2UubmV0L0RURC9zb2RpcG9kaS0wLmR0ZCIgeG1sbnM6c3ZnPSJodHRwOi8vd3d3LnczLm9yZy8yMDAwL3N2ZyIgeG1sbnM9Imh0dHA6Ly93d3cudzMub3JnLzIwMDAvc3ZnIiB4bWxuczp4bGluaz0iaHR0cDovL3d3dy53My5vcmcvMTk5OS94bGluayIgdmVyc2lvbj0iMS4xIiBpZD0ic3ZnMTAzNDc0IiBpbmtzY2FwZTp2ZXJzaW9uPSIwLjkyLjMgKDI0MDU1NDYsIDIwMTgtMDMtMTEpIiBzb2RpcG9kaTpkb2NuYW1lPSJyZWRpcy5zdmciIHg9IjBweCIgeT0iMHB4IiB2aWV3Qm94PSIwIDAgMzcuNTEgMzEuNiIgc3R5bGU9ImVuYWJsZS1iYWNrZ3JvdW5kOm5ldyAwIDAgMzcuNTEgMzEuNjsiIHhtbDpzcGFjZT0icHJlc2VydmUiPiYjeGE7PHNvZGlwb2RpOm5hbWVkdmlldyBib3JkZXJjb2xvcj0iIzY2NjY2NiIgYm9yZGVyb3BhY2l0eT0iMSIgZml0LW1hcmdpbi1ib3R0b209IjAiIGZpdC1tYXJnaW4tbGVmdD0iMCIgZml0LW1hcmdpbi1yaWdodD0iMCIgZml0LW1hcmdpbi10b3A9IjAiIGdyaWR0b2xlcmFuY2U9IjEwIiBndWlkZXRvbGVyYW5jZT0iMTAiIGlkPSJuYW1lZHZpZXcxMDM0NzYiIGlua3NjYXBlOmN1cnJlbnQtbGF5ZXI9InN2ZzEwMzQ3NCIgaW5rc2NhcGU6Y3g9IjI1LjAwNTA2MyIgaW5rc2NhcGU6Y3k9IjIxLjA2NDU5MiIgaW5rc2NhcGU6cGFnZW9wYWNpdHk9IjAiIGlua3NjYXBlOnBhZ2VzaGFkb3c9IjIiIGlua3NjYXBlOndpbmRvdy1oZWlnaHQ9IjEwMTciIGlua3NjYXBlOndpbmRvdy1tYXhpbWl6ZWQ9IjEiIGlua3NjYXBlOndpbmRvdy13aWR0aD0iMTkyMCIgaW5rc2NhcGU6d2luZG93LXg9Ii04IiBpbmtzY2FwZTp3aW5kb3cteT0iLTgiIGlua3NjYXBlOnpvb209IjE5LjY0MjUwNCIgb2JqZWN0dG9sZXJhbmNlPSIxMCIgcGFnZWNvbG9yPSIjZmZmZmZmIiBzaG93Z3JpZD0iZmFsc2UiPiYjeGE7CTwvc29kaXBvZGk6bmFtZWR2aWV3PiYjeGE7PGcgaWQ9ImcxMDM0NzIiIHRyYW5zZm9ybT0idHJhbnNsYXRlKC0wLjc0NjgyNzEsLTAuNzUxNjI1KSI+JiN4YTsJPHRpdGxlIGlkPSJ0aXRsZTEwMzM4OCI+UGFnZS0xPC90aXRsZT4mI3hhOwk8ZyBpZD0iZ3JvdXAzNzc2LTEiIHRyYW5zZm9ybT0idHJhbnNsYXRlKDAuNDA3MjksLTAuNjA5Mzc1KSI+JiN4YTsJCTx0aXRsZSBpZD0idGl0bGUxMDMzOTAiPlJlZGlzLjYzNjwvdGl0bGU+JiN4YTsJCTxnIGlkPSJncm91cDM3NzctMiI+JiN4YTsJCQk8dGl0bGUgaWQ9InRpdGxlMTAzMzkyIj5TaGVldC4zNzc3PC90aXRsZT4mI3hhOwkJCTxnIGlkPSJzaGFwZTM3NzgtMyIgdHJhbnNmb3JtPSJ0cmFuc2xhdGUoMC4yMzcpIj4mI3hhOwkJCQk8dGl0bGUgaWQ9InRpdGxlMTAzMzk0Ij5TaGVldC4zNzc4PC90aXRsZT4mI3hhOwkJCQk8cGF0aCBpZD0icGF0aDEwMzM5NiIgaW5rc2NhcGU6Y29ubmVjdG9yLWN1cnZhdHVyZT0iMCIgc3R5bGU9ImZpbGw6I0JBMTQxQTsiIGQ9Ik0wLjExLDI1LjE5Yy0wLjA2LDAuNCwwLjI4LDAuOCwxLjAyLDEuMTEgICAgICBsMTUuMjQsNi4yNGMxLjM3LDAuNTYsMy42LDAuNTYsNC45NywwbDE1LjI0LTYuMjRjMC43NC0wLjMxLDEuMDgtMC43MSwxLjAyLTEuMTF2LTMuNThjMC4wNSwwLjM5LTAuMjksMC43OS0xLjAyLDEuMDkgICAgICBsLTE1LjI0LDYuMjRjLTEuMzcsMC41Ni0zLjYsMC41Ni00Ljk3LDBMMS4xMywyMi43Yy0wLjgtMC4zMy0xLjEzLTAuNzgtMS0xLjJMMC4xMSwyNS4xOXoiLz4mI3hhOwkJCTwvZz4mI3hhOwkJCTxnIGlkPSJzaGFwZTM3NzktNSIgdHJhbnNmb3JtPSJ0cmFuc2xhdGUoMCwtMy42KSI+JiN4YTsJCQkJPHRpdGxlIGlkPSJ0aXRsZTEwMzM5OSI+U2hlZXQuMzc3OTwvdGl0bGU+JiN4YTsJCQkJPHBhdGggaWQ9InBhdGgxMDM0MDEiIGlua3NjYXBlOmNvbm5lY3Rvci1jdXJ2YXR1cmU9IjAiIHN0eWxlPSJmaWxsOiNCQTE0MUE7IiBkPSJNMzYuODEsMjQuMjZjMS4zOCwwLjU3LDEuMzgsMS40OCwwLDIuMDQgICAgICBsLTE1LjIzLDYuMjRjLTEuMzcsMC41Ni0zLjYsMC41Ni00Ljk3LDBMMS4zNywyNi4zQzAsMjUuNzQsMCwyNC44MywxLjM3LDI0LjI2bDE1LjI0LTYuMjRjMS4zNy0wLjU2LDMuNi0wLjU2LDQuOTcsMCAgICAgIEwzNi44MSwyNC4yNnoiLz4mI3hhOwkJCTwvZz4mI3hhOwkJPC9nPiYjeGE7CQk8ZyBpZD0iZ3JvdXAzNzgwLTciIHRyYW5zZm9ybT0idHJhbnNsYXRlKDAsLTYuMzE5NSkiPiYjeGE7CQkJPHRpdGxlIGlkPSJ0aXRsZTEwMzQwNSI+U2hlZXQuMzc4MDwvdGl0bGU+JiN4YTsJCQk8ZyBpZD0ic2hhcGUzNzgxLTgiIHRyYW5zZm9ybT0idHJhbnNsYXRlKDAuMjM3KSI+JiN4YTsJCQkJPHRpdGxlIGlkPSJ0aXRsZTEwMzQwNyI+U2hlZXQuMzc4MTwvdGl0bGU+JiN4YTsJCQkJPHBhdGggaWQ9InBhdGgxMDM0MDkiIGlua3NjYXBlOmNvbm5lY3Rvci1jdXJ2YXR1cmU9IjAiIHN0eWxlPSJmaWxsOiNCQTE0MUE7IiBkPSJNMC4xMSwyNS4xOWMtMC4wNiwwLjQsMC4yOCwwLjgsMS4wMiwxLjExICAgICAgbDE1LjI0LDYuMjRjMS4zNywwLjU2LDMuNiwwLjU2LDQuOTcsMGwxNS4yNC02LjI0YzAuNzQtMC4zMSwxLjA4LTAuNzEsMS4wMi0xLjExdi0zLjU4YzAuMDUsMC4zOS0wLjI5LDAuNzktMS4wMiwxLjA5ICAgICAgbC0xNS4yNCw2LjI0Yy0xLjM3LDAuNTYtMy42LDAuNTYtNC45NywwTDEuMTMsMjIuN2MtMC44LTAuMzMtMS4xMy0wLjc4LTEtMS4yTDAuMTEsMjUuMTl6Ii8+JiN4YTsJCQk8L2c+JiN4YTsJCQk8ZyBpZD0ic2hhcGUzNzgyLTEwIiB0cmFuc2Zvcm09InRyYW5zbGF0ZSgwLC0zLjYpIj4mI3hhOwkJCQk8dGl0bGUgaWQ9InRpdGxlMTAzNDEyIj5TaGVldC4zNzgyPC90aXRsZT4mI3hhOwkJCQk8cGF0aCBpZD0icGF0aDEwMzQxNCIgaW5rc2NhcGU6Y29ubmVjdG9yLWN1cnZhdHVyZT0iMCIgc3R5bGU9ImZpbGw6I0JBMTQxQTsiIGQ9Ik0zNi44MSwyNC4yNmMxLjM4LDAuNTcsMS4zOCwxLjQ4LDAsMi4wNCAgICAgIGwtMTUuMjMsNi4yNGMtMS4zNywwLjU2LTMuNiwwLjU2LTQuOTcsMEwxLjM3LDI2LjNDMCwyNS43NCwwLDI0LjgzLDEuMzcsMjQuMjZsMTUuMjQtNi4yNGMxLjM3LTAuNTYsMy42LTAuNTYsNC45NywwICAgICAgTDM2LjgxLDI0LjI2eiIvPiYjeGE7CQkJPC9nPiYjeGE7CQk8L2c+JiN4YTsJCTxnIGlkPSJncm91cDM3ODMtMTIiPiYjeGE7CQkJPHRpdGxlIGlkPSJ0aXRsZTEwMzQxOCI+U2hlZXQuMzc4MzwvdGl0bGU+JiN4YTsJCQk8ZyBpZD0ic2hhcGUzNzg0LTEzIiB0cmFuc2Zvcm09InRyYW5zbGF0ZSgwLjIzNywtMTIuNjM5KSI+JiN4YTsJCQkJPHRpdGxlIGlkPSJ0aXRsZTEwMzQyMCI+U2hlZXQuMzc4NDwvdGl0bGU+JiN4YTsJCQkJPHBhdGggaWQ9InBhdGgxMDM0MjIiIGlua3NjYXBlOmNvbm5lY3Rvci1jdXJ2YXR1cmU9IjAiIHN0eWxlPSJmaWxsOiNCQTE0MUE7IiBkPSJNMC4xMSwyNS4xOWMtMC4wNiwwLjQsMC4yOCwwLjgsMS4wMiwxLjExICAgICAgbDE1LjI0LDYuMjRjMS4zNywwLjU2LDMuNiwwLjU2LDQuOTcsMGwxNS4yNC02LjI0YzAuNzQtMC4zMSwxLjA4LTAuNzEsMS4wMi0xLjExdi0zLjU4YzAuMDUsMC4zOS0wLjI5LDAuNzktMS4wMiwxLjA5ICAgICAgbC0xNS4yNCw2LjI0Yy0xLjM3LDAuNTYtMy42LDAuNTYtNC45NywwTDEuMTMsMjIuN2MtMC44LTAuMzMtMS4xMy0wLjc4LTEtMS4yTDAuMTEsMjUuMTl6Ii8+JiN4YTsJCQk8L2c+JiN4YTsJCQk8ZyBpZD0ic2hhcGUzNzg1LTE1IiB0cmFuc2Zvcm09InRyYW5zbGF0ZSgwLjIzNykiPiYjeGE7CQkJCTx0aXRsZSBpZD0idGl0bGUxMDM0MjUiPlNoZWV0LjM3ODU8L3RpdGxlPiYjeGE7CQkJCTxwYXRoIGlkPSJwYXRoMTAzNDI3IiBpbmtzY2FwZTpjb25uZWN0b3ItY3VydmF0dXJlPSIwIiBzdHlsZT0iZmlsbDojMUUxRTFFO2ZpbGwtb3BhY2l0eTowLjI1OyIgZD0iTTAuMTEsMjUuMTkgICAgICBjLTAuMDYsMC40LDAuMjgsMC44LDEuMDIsMS4xMWwxNS4yNCw2LjI0YzEuMzcsMC41NiwzLjYsMC41Niw0Ljk3LDBsMTUuMjQtNi4yNGMwLjc0LTAuMzEsMS4wOC0wLjcxLDEuMDItMS4xMXYtMy41OCAgICAgIGMwLjA1LDAuMzktMC4yOSwwLjc5LTEuMDIsMS4wOWwtMTUuMjQsNi4yNGMtMS4zNywwLjU2LTMuNiwwLjU2LTQuOTcsMEwxLjEzLDIyLjdjLTAuOC0wLjMzLTEuMTMtMC43OC0xLTEuMkwwLjExLDI1LjE5eiIvPiYjeGE7CQkJPC9nPiYjeGE7CQkJPGcgaWQ9InNoYXBlMzc4Ni0xNyIgdHJhbnNmb3JtPSJ0cmFuc2xhdGUoMC4yMzcsLTYuMzE5NSkiPiYjeGE7CQkJCTx0aXRsZSBpZD0idGl0bGUxMDM0MzAiPlNoZWV0LjM3ODY8L3RpdGxlPiYjeGE7CQkJCTxwYXRoIGlkPSJwYXRoMTAzNDMyIiBpbmtzY2FwZTpjb25uZWN0b3ItY3VydmF0dXJlPSIwIiBzdHlsZT0iZmlsbDojMUUxRTFFO2ZpbGwtb3BhY2l0eTowLjI1OyIgZD0iTTAuMTEsMjUuMTkgICAgICBjLTAuMDYsMC40LDAuMjgsMC44LDEuMDIsMS4xMWwxNS4yNCw2LjI0YzEuMzcsMC41NiwzLjYsMC41Niw0Ljk3LDBsMTUuMjQtNi4yNGMwLjc0LTAuMzEsMS4wOC0wLjcxLDEuMDItMS4xMXYtMy41OCAgICAgIGMwLjA1LDAuMzktMC4yOSwwLjc5LTEuMDIsMS4wOWwtMTUuMjQsNi4yNGMtMS4zNywwLjU2LTMuNiwwLjU2LTQuOTcsMEwxLjEzLDIyLjdjLTAuOC0wLjMzLTEuMTMtMC43OC0xLTEuMkwwLjExLDI1LjE5eiIvPiYjeGE7CQkJPC9nPiYjeGE7CQkJPGcgaWQ9InNoYXBlMzc4Ny0xOSIgdHJhbnNmb3JtPSJ0cmFuc2xhdGUoMC4yMzcsLTEyLjYzOSkiPiYjeGE7CQkJCTx0aXRsZSBpZD0idGl0bGUxMDM0MzUiPlNoZWV0LjM3ODc8L3RpdGxlPiYjeGE7CQkJCTxwYXRoIGlkPSJwYXRoMTAzNDM3IiBpbmtzY2FwZTpjb25uZWN0b3ItY3VydmF0dXJlPSIwIiBzdHlsZT0iZmlsbDojMUUxRTFFO2ZpbGwtb3BhY2l0eTowLjI1OyIgZD0iTTAuMTEsMjUuMTkgICAgICBjLTAuMDYsMC40LDAuMjgsMC44LDEuMDIsMS4xMWwxNS4yNCw2LjI0YzEuMzcsMC41NiwzLjYsMC41Niw0Ljk3LDBsMTUuMjQtNi4yNGMwLjc0LTAuMzEsMS4wOC0wLjcxLDEuMDItMS4xMXYtMy41OCAgICAgIGMwLjA1LDAuMzktMC4yOSwwLjc5LTEuMDIsMS4wOWwtMTUuMjQsNi4yNGMtMS4zNywwLjU2LTMuNiwwLjU2LTQuOTcsMEwxLjEzLDIyLjdjLTAuOC0wLjMzLTEuMTMtMC43OC0xLTEuMkwwLjExLDI1LjE5eiIvPiYjeGE7CQkJPC9nPiYjeGE7CQkJPGcgaWQ9InNoYXBlMzc4OC0yMSIgdHJhbnNmb3JtPSJ0cmFuc2xhdGUoMCwtMTYuMjM5KSI+JiN4YTsJCQkJPHRpdGxlIGlkPSJ0aXRsZTEwMzQ0MCI+U2hlZXQuMzc4ODwvdGl0bGU+JiN4YTsJCQkJPHBhdGggaWQ9InBhdGgxMDM0NDIiIGlua3NjYXBlOmNvbm5lY3Rvci1jdXJ2YXR1cmU9IjAiIHN0eWxlPSJmaWxsOiNCQTE0MUE7IiBkPSJNMzYuODEsMjQuMjZjMS4zOCwwLjU3LDEuMzgsMS40OCwwLDIuMDQgICAgICBsLTE1LjIzLDYuMjRjLTEuMzcsMC41Ni0zLjYsMC41Ni00Ljk3LDBMMS4zNywyNi4zQzAsMjUuNzQsMCwyNC44MywxLjM3LDI0LjI2bDE1LjI0LTYuMjRjMS4zNy0wLjU2LDMuNi0wLjU2LDQuOTcsMCAgICAgIEwzNi44MSwyNC4yNnoiLz4mI3hhOwkJCTwvZz4mI3hhOwkJPC9nPiYjeGE7CQk8ZyBpZD0ic2hhcGUzNzg5LTIzIiB0cmFuc2Zvcm09InRyYW5zbGF0ZSg2LjM2MTUsLTIyLjExMjMpIj4mI3hhOwkJCTx0aXRsZSBpZD0idGl0bGUxMDM0NDYiPlNoZWV0LjM3ODk8L3RpdGxlPiYjeGE7CQkJPHBhdGggaWQ9InBhdGgxMDM0NDgiIGlua3NjYXBlOmNvbm5lY3Rvci1jdXJ2YXR1cmU9IjAiIHN0eWxlPSJmaWxsOiNGRkZGRkY7IiBkPSJNOC4wNCwzMi4zM2MtMS43NCwwLjc3LTQuNTYsMC43Ny02LjMsMCAgICAgQzAsMzEuNTYsMCwzMC4zLDEuNzQsMjkuNTNjMS43NC0wLjc3LDQuNTYtMC43Nyw2LjMsMEM5Ljc3LDMwLjMsOS43OCwzMS41Niw4LjA0LDMyLjMzeiIvPiYjeGE7CQk8L2c+JiN4YTsJCTxnIGlkPSJzaGFwZTM3OTAtMjUiIHRyYW5zZm9ybT0idHJhbnNsYXRlKDEzLjIxOCwtMTcuOTg4KSI+JiN4YTsJCQk8dGl0bGUgaWQ9InRpdGxlMTAzNDUxIj5TaGVldC4zNzkwPC90aXRsZT4mI3hhOwkJCTxwYXRoIGlkPSJwYXRoMTAzNDUzIiBpbmtzY2FwZTpjb25uZWN0b3ItY3VydmF0dXJlPSIwIiBzdHlsZT0iZmlsbDojRkZGRkZGOyIgZD0iTTAsMzAuMmw4LjkyLTEuMDZMNi41MywzMy4xTDAsMzAuMnoiLz4mI3hhOwkJPC9nPiYjeGE7CQk8ZyBpZD0ic2hhcGUzNzkxLTI3IiB0cmFuc2Zvcm09InRyYW5zbGF0ZSgyMS44NjQsLTIxLjg5MSkiPiYjeGE7CQkJPHRpdGxlIGlkPSJ0aXRsZTEwMzQ1NiI+U2hlZXQuMzc5MTwvdGl0bGU+JiN4YTsJCQk8cGF0aCBpZD0icGF0aDEwMzQ1OCIgaW5rc2NhcGU6Y29ubmVjdG9yLWN1cnZhdHVyZT0iMCIgc3R5bGU9ImZpbGw6IzFFMUUxRTtmaWxsLW9wYWNpdHk6MC4yNTsiIGQ9Ik01LjM0LDMzLjFMMCwzMC43MyAgICAgbDUuMzQtMi4zN2w1LjMzLDIuMzdMNS4zNCwzMy4xeiIvPiYjeGE7CQk8L2c+JiN4YTsJCTxnIGlkPSJzaGFwZTM3OTItMjkiIHRyYW5zZm9ybT0idHJhbnNsYXRlKDIxLjg2NCwtMjEuODkxKSI+JiN4YTsJCQk8dGl0bGUgaWQ9InRpdGxlMTAzNDYxIj5TaGVldC4zNzkyPC90aXRsZT4mI3hhOwkJCTxwYXRoIGlkPSJwYXRoMTAzNDYzIiBpbmtzY2FwZTpjb25uZWN0b3ItY3VydmF0dXJlPSIwIiBzdHlsZT0iZmlsbDojMUUxRTFFO2ZpbGwtb3BhY2l0eTowLjI1OyIgZD0iTTUuMzQsMzMuMUwwLDMwLjczICAgICBsNS4zNC0yLjM3VjMzLjF6Ii8+JiN4YTsJCTwvZz4mI3hhOwkJPGcgaWQ9InNoYXBlMzc5My0zMSIgdHJhbnNmb3JtPSJ0cmFuc2xhdGUoMTMuODk2NywtMjUuNjE1NSkiPiYjeGE7CQkJPHRpdGxlIGlkPSJ0aXRsZTEwMzQ2NiI+U2hlZXQuMzc5MzwvdGl0bGU+JiN4YTsJCQk8cGF0aCBpZD0icGF0aDEwMzQ2OCIgaW5rc2NhcGU6Y29ubmVjdG9yLWN1cnZhdHVyZT0iMCIgc3R5bGU9ImZpbGw6I0ZGRkZGRjsiIGQ9Ik0zLjQ4LDMxLjU1TDAsMzEuMjRsMy4wOS0wLjc4bC0wLjQtMS41NyAgICAgbDIuNjIsMS4wN2wzLjI0LTAuNjZsLTEuNDgsMS40NGwyLjQxLDEuMTdsLTMuNTQtMC4xOEw0LjE5LDMzLjFMMy40OCwzMS41NXoiLz4mI3hhOwkJPC9nPiYjeGE7CTwvZz4mI3hhOzwvZz4mI3hhOzwvc3ZnPg==;rounded=1;dashed=1;strokeColor=#000000;fillColor=none;align=left;" parent="1" vertex="1">
          <mxGeometry x="585" y="212" width="38" height="32" as="geometry" />
        </mxCell>
        <mxCell id="-a6q5OrIec0-HFeY7hqp-32" value="" style="outlineConnect=0;dashed=0;verticalLabelPosition=bottom;verticalAlign=top;align=center;html=1;shape=mxgraph.aws3.elasticsearch_service;fillColor=#F58534;gradientColor=none;rounded=1;strokeColor=#000000;" parent="1" vertex="1">
          <mxGeometry x="530" y="259" width="38" height="32" as="geometry" />
        </mxCell>
        <mxCell id="-a6q5OrIec0-HFeY7hqp-33" value="" style="outlineConnect=0;dashed=0;verticalLabelPosition=bottom;verticalAlign=top;align=center;html=1;shape=mxgraph.aws3.elasticsearch_service;fillColor=#F58534;gradientColor=none;rounded=1;strokeColor=#000000;" parent="1" vertex="1">
          <mxGeometry x="585" y="259" width="38" height="32" as="geometry" />
        </mxCell>
        <mxCell id="-a6q5OrIec0-HFeY7hqp-36" value="" style="aspect=fixed;pointerEvents=1;shadow=0;dashed=0;html=1;strokeColor=#9673a6;labelPosition=center;verticalLabelPosition=bottom;verticalAlign=top;align=center;fillColor=#e1d5e7;shape=mxgraph.azure.queue_generic;rounded=1;" parent="1" vertex="1">
          <mxGeometry x="544.66" y="360" width="66.67" height="20" as="geometry" />
        </mxCell>
        <mxCell id="-a6q5OrIec0-HFeY7hqp-37" value="" style="aspect=fixed;pointerEvents=1;shadow=0;dashed=0;html=1;strokeColor=#9673a6;labelPosition=center;verticalLabelPosition=bottom;verticalAlign=top;align=center;fillColor=#e1d5e7;shape=mxgraph.azure.queue_generic;rounded=1;" parent="1" vertex="1">
          <mxGeometry x="544.66" y="393.5" width="66.67" height="20" as="geometry" />
        </mxCell>
        <mxCell id="-a6q5OrIec0-HFeY7hqp-38" value="" style="aspect=fixed;pointerEvents=1;shadow=0;dashed=0;html=1;strokeColor=#9673a6;labelPosition=center;verticalLabelPosition=bottom;verticalAlign=top;align=center;fillColor=#e1d5e7;shape=mxgraph.azure.queue_generic;rounded=1;" parent="1" vertex="1">
          <mxGeometry x="544.67" y="427" width="66.67" height="20" as="geometry" />
        </mxCell>
        <mxCell id="-a6q5OrIec0-HFeY7hqp-40" value="" style="html=1;shadow=0;dashed=0;align=center;verticalAlign=middle;shape=mxgraph.arrows2.arrow;dy=0.62;dx=16.59;direction=south;notch=0;rounded=1;strokeColor=#6c8ebf;fillColor=#dae8fc;" parent="1" vertex="1">
          <mxGeometry x="250.06" y="150" width="20" height="50" as="geometry" />
        </mxCell>
        <mxCell id="-a6q5OrIec0-HFeY7hqp-41" value="" style="html=1;shadow=0;dashed=0;align=center;verticalAlign=middle;shape=mxgraph.arrows2.arrow;dy=0.62;dx=16.59;direction=south;notch=0;rounded=1;strokeColor=#6c8ebf;fillColor=#dae8fc;" parent="1" vertex="1">
          <mxGeometry x="330.06" y="150" width="20" height="50" as="geometry" />
        </mxCell>
        <mxCell id="-a6q5OrIec0-HFeY7hqp-42" value="" style="html=1;shadow=0;dashed=0;align=center;verticalAlign=middle;shape=mxgraph.arrows2.arrow;dy=0.62;dx=16.59;direction=south;notch=0;rounded=1;strokeColor=#6c8ebf;fillColor=#dae8fc;" parent="1" vertex="1">
          <mxGeometry x="420" y="150" width="20" height="50" as="geometry" />
        </mxCell>
        <mxCell id="-a6q5OrIec0-HFeY7hqp-43" value="" style="html=1;shadow=0;dashed=0;align=center;verticalAlign=middle;shape=mxgraph.arrows2.arrow;dy=0.62;dx=16.59;direction=south;notch=0;rounded=1;strokeColor=#6c8ebf;fillColor=#dae8fc;" parent="1" vertex="1">
          <mxGeometry x="567.99" y="150" width="20" height="50" as="geometry" />
        </mxCell>
        <mxCell id="-a6q5OrIec0-HFeY7hqp-44" value="" style="html=1;shadow=0;dashed=0;align=center;verticalAlign=middle;shape=mxgraph.arrows2.arrow;dy=0.62;dx=16.59;direction=south;notch=0;rounded=1;strokeColor=#6c8ebf;fillColor=#dae8fc;" parent="1" vertex="1">
          <mxGeometry x="245.03" y="470" width="20" height="45.5" as="geometry" />
        </mxCell>
        <mxCell id="-a6q5OrIec0-HFeY7hqp-45" value="" style="html=1;shadow=0;dashed=0;align=center;verticalAlign=middle;shape=mxgraph.arrows2.arrow;dy=0.62;dx=16.59;direction=south;notch=0;rounded=1;strokeColor=#6c8ebf;fillColor=#dae8fc;" parent="1" vertex="1">
          <mxGeometry x="320" y="470" width="20" height="45.5" as="geometry" />
        </mxCell>
        <mxCell id="-a6q5OrIec0-HFeY7hqp-46" value="" style="html=1;shadow=0;dashed=0;align=center;verticalAlign=middle;shape=mxgraph.arrows2.arrow;dy=0.62;dx=16.59;direction=south;notch=0;rounded=1;strokeColor=#6c8ebf;fillColor=#dae8fc;" parent="1" vertex="1">
          <mxGeometry x="400" y="470" width="20" height="45.5" as="geometry" />
        </mxCell>
        <mxCell id="-a6q5OrIec0-HFeY7hqp-47" value="" style="html=1;shadow=0;dashed=0;align=center;verticalAlign=middle;shape=mxgraph.arrows2.arrow;dy=0.62;dx=16.59;direction=south;notch=0;rounded=1;strokeColor=#6c8ebf;fillColor=#dae8fc;rotation=-90;" parent="1" vertex="1">
          <mxGeometry x="500" y="424.5" width="20" height="45.5" as="geometry" />
        </mxCell>
        <mxCell id="-a6q5OrIec0-HFeY7hqp-48" value="" style="html=1;shadow=0;dashed=0;align=center;verticalAlign=middle;shape=mxgraph.arrows2.arrow;dy=0.62;dx=16.59;direction=south;notch=0;rounded=1;strokeColor=#6c8ebf;fillColor=#dae8fc;rotation=-90;" parent="1" vertex="1">
          <mxGeometry x="500" y="379" width="20" height="45.5" as="geometry" />
        </mxCell>
        <mxCell id="-a6q5OrIec0-HFeY7hqp-49" value="" style="html=1;shadow=0;dashed=0;align=center;verticalAlign=middle;shape=mxgraph.arrows2.arrow;dy=0.62;dx=16.59;direction=south;notch=0;rounded=1;strokeColor=#6c8ebf;fillColor=#dae8fc;rotation=-90;" parent="1" vertex="1">
          <mxGeometry x="500" y="333.5" width="20" height="45.5" as="geometry" />
        </mxCell>
        <mxCell id="-a6q5OrIec0-HFeY7hqp-50" value="" style="html=1;shadow=0;dashed=0;align=center;verticalAlign=middle;shape=mxgraph.arrows2.arrow;dy=0.62;dx=16.59;direction=south;notch=0;rounded=1;strokeColor=#6c8ebf;fillColor=#dae8fc;rotation=-90;" parent="1" vertex="1">
          <mxGeometry x="635.03" y="424.5" width="20" height="45.5" as="geometry" />
        </mxCell>
        <mxCell id="-a6q5OrIec0-HFeY7hqp-51" value="" style="html=1;shadow=0;dashed=0;align=center;verticalAlign=middle;shape=mxgraph.arrows2.arrow;dy=0.62;dx=16.59;direction=south;notch=0;rounded=1;strokeColor=#6c8ebf;fillColor=#dae8fc;rotation=-90;" parent="1" vertex="1">
          <mxGeometry x="635.03" y="380.75" width="20" height="45.5" as="geometry" />
        </mxCell>
        <mxCell id="-a6q5OrIec0-HFeY7hqp-52" value="" style="html=1;shadow=0;dashed=0;align=center;verticalAlign=middle;shape=mxgraph.arrows2.arrow;dy=0.62;dx=16.59;direction=south;notch=0;rounded=1;strokeColor=#6c8ebf;fillColor=#dae8fc;rotation=-90;" parent="1" vertex="1">
          <mxGeometry x="635.03" y="333.5" width="20" height="45.5" as="geometry" />
        </mxCell>
        <mxCell id="-a6q5OrIec0-HFeY7hqp-53" value="" style="html=1;shadow=0;dashed=0;align=center;verticalAlign=middle;shape=mxgraph.arrows2.arrow;dy=0.62;dx=16.59;direction=south;notch=0;rounded=1;strokeColor=#6c8ebf;fillColor=#dae8fc;rotation=90;" parent="1" vertex="1">
          <mxGeometry x="645.43" y="210.63" width="20" height="34.75" as="geometry" />
        </mxCell>
        <mxCell id="-a6q5OrIec0-HFeY7hqp-54" value="" style="html=1;shadow=0;dashed=0;align=center;verticalAlign=middle;shape=mxgraph.arrows2.arrow;dy=0.62;dx=16.59;direction=south;notch=0;rounded=1;strokeColor=#6c8ebf;fillColor=#dae8fc;rotation=90;" parent="1" vertex="1">
          <mxGeometry x="645.43" y="256.25" width="20" height="34.75" as="geometry" />
        </mxCell>
        <mxCell id="-a6q5OrIec0-HFeY7hqp-55" value="" style="html=1;shadow=0;dashed=0;align=center;verticalAlign=middle;shape=mxgraph.arrows2.arrow;dy=0.62;dx=16.59;direction=south;notch=0;rounded=1;strokeColor=#6c8ebf;fillColor=#dae8fc;" parent="1" vertex="1">
          <mxGeometry x="770.06" y="470" width="20" height="45.5" as="geometry" />
        </mxCell>
        <mxCell id="-a6q5OrIec0-HFeY7hqp-56" value="" style="html=1;shadow=0;dashed=0;align=center;verticalAlign=middle;shape=mxgraph.arrows2.arrow;dy=0.62;dx=16.59;direction=south;notch=0;rounded=1;strokeColor=#6c8ebf;fillColor=#dae8fc;" parent="1" vertex="1">
          <mxGeometry x="690" y="470" width="20" height="45.5" as="geometry" />
        </mxCell>
        <mxCell id="-a6q5OrIec0-HFeY7hqp-59" value="&lt;font color=&quot;#262626&quot;&gt;&lt;span style=&quot;letter-spacing: 0.05px&quot;&gt;领域数据&lt;/span&gt;&lt;/font&gt;" style="whiteSpace=wrap;html=1;align=center;verticalAlign=middle;rounded=1;arcSize=7;fontSize=9;spacingTop=0;fillColor=#f5f5f5;strokeColor=#666666;fontColor=#333333;" parent="1" vertex="1">
          <mxGeometry x="315.06" y="240" width="75" height="30" as="geometry" />
        </mxCell>
        <mxCell id="-a6q5OrIec0-HFeY7hqp-63" value="&lt;font color=&quot;#262626&quot; style=&quot;font-size: 8px&quot;&gt;&lt;span style=&quot;letter-spacing: 0.05px ; font-size: 8px&quot;&gt;数据组装&lt;/span&gt;&lt;/font&gt;" style="whiteSpace=wrap;html=1;align=center;verticalAlign=middle;rounded=1;arcSize=7;fontSize=8;spacingTop=0;fillColor=#f5f5f5;strokeColor=#666666;fontColor=#333333;" parent="1" vertex="1">
          <mxGeometry x="462.50000000000006" y="90" width="85" height="40" as="geometry" />
        </mxCell>
        <mxCell id="-a6q5OrIec0-HFeY7hqp-64" value="&lt;font color=&quot;#262626&quot; style=&quot;font-size: 8px;&quot;&gt;&lt;span style=&quot;letter-spacing: 0.05px; font-size: 8px;&quot;&gt;参数校验&lt;/span&gt;&lt;/font&gt;" style="whiteSpace=wrap;html=1;align=center;verticalAlign=middle;rounded=1;arcSize=7;fontSize=8;spacingTop=0;fillColor=#f5f5f5;strokeColor=#666666;fontColor=#333333;" parent="1" vertex="1">
          <mxGeometry x="350.05999999999995" y="90" width="85" height="40" as="geometry" />
        </mxCell>
        <mxCell id="-a6q5OrIec0-HFeY7hqp-65" value="&lt;font color=&quot;#262626&quot; style=&quot;font-size: 8px;&quot;&gt;&lt;span style=&quot;letter-spacing: 0.05px; font-size: 8px;&quot;&gt;网关&lt;/span&gt;&lt;/font&gt;" style="whiteSpace=wrap;html=1;align=center;verticalAlign=middle;rounded=1;arcSize=7;fontSize=8;spacingTop=0;fillColor=#f5f5f5;strokeColor=#666666;fontColor=#333333;" parent="1" vertex="1">
          <mxGeometry x="240" y="90" width="85" height="40" as="geometry" />
        </mxCell>
        <mxCell id="-a6q5OrIec0-HFeY7hqp-66" value="&lt;font color=&quot;#262626&quot; size=&quot;1&quot;&gt;&lt;span style=&quot;letter-spacing: 0.05px&quot;&gt;国际化解决方案&lt;/span&gt;&lt;/font&gt;" style="whiteSpace=wrap;html=1;align=center;verticalAlign=middle;rounded=1;arcSize=7;fontSize=12;spacingTop=0;horizontal=1;fillColor=#f5f5f5;strokeColor=#666666;fontColor=#333333;" parent="1" vertex="1">
          <mxGeometry x="293.75" y="415" width="92.5" height="30" as="geometry" />
        </mxCell>
        <mxCell id="-a6q5OrIec0-HFeY7hqp-67" value="&lt;font color=&quot;#262626&quot; style=&quot;font-size: 8px;&quot;&gt;&lt;span style=&quot;letter-spacing: 0.05px; font-size: 8px;&quot;&gt;流量控制&lt;/span&gt;&lt;/font&gt;" style="whiteSpace=wrap;html=1;align=center;verticalAlign=middle;rounded=1;arcSize=7;fontSize=8;spacingTop=0;fillColor=#f5f5f5;strokeColor=#666666;fontColor=#333333;" parent="1" vertex="1">
          <mxGeometry x="685.06" y="90" width="85" height="40" as="geometry" />
        </mxCell>
        <mxCell id="-a6q5OrIec0-HFeY7hqp-69" value="&lt;font color=&quot;#262626&quot; size=&quot;1&quot;&gt;&lt;span style=&quot;letter-spacing: 0.05px&quot;&gt;监听&lt;/span&gt;&lt;/font&gt;&lt;span style=&quot;color: rgb(38 , 38 , 38) ; font-size: x-small ; letter-spacing: 0.05px&quot;&gt;变更&lt;/span&gt;" style="whiteSpace=wrap;html=1;align=center;verticalAlign=middle;rounded=1;arcSize=7;fontSize=12;spacingTop=0;horizontal=1;fillColor=#f5f5f5;strokeColor=#666666;fontColor=#333333;" parent="1" vertex="1">
          <mxGeometry x="693.75" y="400" width="92.5" height="30" as="geometry" />
        </mxCell>
        <mxCell id="-a6q5OrIec0-HFeY7hqp-70" value="" style="html=1;shadow=0;dashed=0;align=center;verticalAlign=middle;shape=mxgraph.arrows2.arrow;dy=0.62;dx=16.59;direction=south;notch=0;rounded=1;strokeColor=#6c8ebf;fillColor=#dae8fc;rotation=-125;" parent="1" vertex="1">
          <mxGeometry x="495.9" y="467.87" width="20" height="55.5" as="geometry" />
        </mxCell>
        <mxCell id="-a6q5OrIec0-HFeY7hqp-71" value="&lt;font color=&quot;#262626&quot; size=&quot;1&quot;&gt;&lt;span style=&quot;letter-spacing: 0.05px&quot;&gt;数据冗余&lt;/span&gt;&lt;/font&gt;" style="whiteSpace=wrap;html=1;align=center;verticalAlign=middle;rounded=1;arcSize=7;fontSize=12;spacingTop=0;horizontal=1;fillColor=#f5f5f5;strokeColor=#666666;fontColor=#333333;" parent="1" vertex="1">
          <mxGeometry x="693.75" y="230" width="92.5" height="30" as="geometry" />
        </mxCell>
        <mxCell id="-a6q5OrIec0-HFeY7hqp-72" value="&lt;font color=&quot;#262626&quot; size=&quot;1&quot;&gt;&lt;span style=&quot;letter-spacing: 0.05px&quot;&gt;异步补偿&lt;/span&gt;&lt;/font&gt;" style="whiteSpace=wrap;html=1;align=center;verticalAlign=middle;rounded=1;arcSize=7;fontSize=12;spacingTop=0;horizontal=1;fillColor=#f5f5f5;strokeColor=#666666;fontColor=#333333;" parent="1" vertex="1">
          <mxGeometry x="693.75" y="349" width="92.5" height="30" as="geometry" />
        </mxCell>
        <mxCell id="-a6q5OrIec0-HFeY7hqp-74" value="&lt;font color=&quot;#262626&quot;&gt;&lt;span style=&quot;letter-spacing: 0.05px&quot;&gt;生命周期维护&lt;/span&gt;&lt;/font&gt;" style="whiteSpace=wrap;html=1;align=center;verticalAlign=middle;rounded=1;arcSize=7;fontSize=9;spacingTop=0;fillColor=#f5f5f5;strokeColor=#666666;fontColor=#333333;" parent="1" vertex="1">
          <mxGeometry x="400" y="240" width="75" height="30" as="geometry" />
        </mxCell>
        <mxCell id="-a6q5OrIec0-HFeY7hqp-75" value="&lt;font color=&quot;#262626&quot;&gt;&lt;span style=&quot;letter-spacing: 0.05px&quot;&gt;seo数据&lt;/span&gt;&lt;/font&gt;" style="whiteSpace=wrap;html=1;align=center;verticalAlign=middle;rounded=1;arcSize=7;fontSize=9;spacingTop=0;fillColor=#f5f5f5;strokeColor=#666666;fontColor=#333333;" parent="1" vertex="1">
          <mxGeometry x="207.5" y="240" width="75" height="30" as="geometry" />
        </mxCell>
        <mxCell id="-a6q5OrIec0-HFeY7hqp-76" value="&lt;font color=&quot;#262626&quot;&gt;&lt;span style=&quot;letter-spacing: 0.05px&quot;&gt;多语言&lt;/span&gt;&lt;/font&gt;" style="whiteSpace=wrap;html=1;align=center;verticalAlign=middle;rounded=1;arcSize=7;fontSize=9;spacingTop=0;fillColor=#f5f5f5;strokeColor=#666666;fontColor=#333333;" parent="1" vertex="1">
          <mxGeometry x="207.5" y="294" width="75" height="30" as="geometry" />
        </mxCell>
        <mxCell id="-a6q5OrIec0-HFeY7hqp-77" value="&lt;font color=&quot;#262626&quot;&gt;&lt;span style=&quot;letter-spacing: 0.05px&quot;&gt;业务约束&lt;/span&gt;&lt;/font&gt;" style="whiteSpace=wrap;html=1;align=center;verticalAlign=middle;rounded=1;arcSize=7;fontSize=9;spacingTop=0;fillColor=#f5f5f5;strokeColor=#666666;fontColor=#333333;" parent="1" vertex="1">
          <mxGeometry x="315.06" y="291" width="75" height="30" as="geometry" />
        </mxCell>
        <mxCell id="-a6q5OrIec0-HFeY7hqp-78" value="" style="whiteSpace=wrap;html=1;align=left;verticalAlign=top;rounded=1;fillColor=none;dashed=1;arcSize=3;" parent="1" vertex="1">
          <mxGeometry x="685" y="323" width="110" height="124" as="geometry" />
        </mxCell>
        <mxCell id="-a6q5OrIec0-HFeY7hqp-80" value="" style="whiteSpace=wrap;html=1;align=left;verticalAlign=top;rounded=1;fillColor=none;dashed=1;arcSize=3;" parent="1" vertex="1">
          <mxGeometry x="685" y="225" width="110" height="55" as="geometry" />
        </mxCell>
        <mxCell id="-a6q5OrIec0-HFeY7hqp-82" value="&lt;font color=&quot;#262626&quot; style=&quot;font-size: 8px&quot;&gt;&lt;span style=&quot;letter-spacing: 0.05px ; font-size: 8px&quot;&gt;缓存&lt;/span&gt;&lt;/font&gt;" style="whiteSpace=wrap;html=1;align=center;verticalAlign=middle;rounded=1;arcSize=7;fontSize=8;spacingTop=0;fillColor=#f5f5f5;strokeColor=#666666;fontColor=#333333;" parent="1" vertex="1">
          <mxGeometry x="575.0000000000001" y="90" width="85" height="40" as="geometry" />
        </mxCell>
      </root>
    </mxGraphModel>
  </diagram>
  <diagram id="5GhUkbFzo4RmhxbLWki-" name="product-2">
    <mxGraphModel dx="946" dy="623" grid="1" gridSize="10" guides="1" tooltips="1" connect="1" arrows="1" fold="1" page="1" pageScale="1" pageWidth="827" pageHeight="1169" math="0" shadow="0">
      <root>
        <mxCell id="OJgl7TVdHv62F8Ia3TTO-0" />
        <mxCell id="OJgl7TVdHv62F8Ia3TTO-1" parent="OJgl7TVdHv62F8Ia3TTO-0" />
        <mxCell id="T-RTefuH7FngGLa8NjNm-1" value="&lt;font style=&quot;font-size: 12px&quot;&gt;聚合层 unified-product&lt;/font&gt;" style="whiteSpace=wrap;html=1;align=left;verticalAlign=top;rounded=1;fillColor=#dae8fc;strokeColor=#6c8ebf;fontSize=1;spacingTop=-5;" vertex="1" parent="OJgl7TVdHv62F8Ia3TTO-1">
          <mxGeometry x="180" y="40" width="650" height="70" as="geometry" />
        </mxCell>
        <mxCell id="T-RTefuH7FngGLa8NjNm-4" value="&lt;span style=&quot;font-size: 1px; color: rgb(38, 38, 38); line-height: 1.74; letter-spacing: 0.05em; outline-style: none; overflow-wrap: break-word;&quot;&gt;product&lt;/span&gt;" style="whiteSpace=wrap;html=1;align=left;verticalAlign=top;rounded=1;arcSize=3;fontSize=1;spacingTop=-8;fillColor=#e1d5e7;strokeColor=#9673a6;" vertex="1" parent="OJgl7TVdHv62F8Ia3TTO-1">
          <mxGeometry x="310" y="210" width="170" height="170" as="geometry" />
        </mxCell>
        <mxCell id="T-RTefuH7FngGLa8NjNm-6" value="" style="whiteSpace=wrap;html=1;align=left;verticalAlign=top;rounded=1;fillColor=none;dashed=1;arcSize=3;" vertex="1" parent="OJgl7TVdHv62F8Ia3TTO-1">
          <mxGeometry x="180" y="500" width="650" height="70" as="geometry" />
        </mxCell>
        <mxCell id="T-RTefuH7FngGLa8NjNm-7" value="在线库" style="whiteSpace=wrap;html=1;align=left;verticalAlign=top;rounded=1;fillColor=none;dashed=1;arcSize=3;" vertex="1" parent="OJgl7TVdHv62F8Ia3TTO-1">
          <mxGeometry x="200" y="510" width="300" height="50" as="geometry" />
        </mxCell>
        <mxCell id="T-RTefuH7FngGLa8NjNm-8" value="" style="shape=image;verticalLabelPosition=bottom;labelBackgroundColor=#ffffff;verticalAlign=top;aspect=fixed;imageAspect=0;image=data:image/svg+xml,PHN2ZyB4bWxuczpjYz0iaHR0cDovL2NyZWF0aXZlY29tbW9ucy5vcmcvbnMjIiB4bWxuczpkYz0iaHR0cDovL3B1cmwub3JnL2RjL2VsZW1lbnRzLzEuMS8iIHhtbG5zOmlua3NjYXBlPSJodHRwOi8vd3d3Lmlua3NjYXBlLm9yZy9uYW1lc3BhY2VzL2lua3NjYXBlIiB4bWxuczpyZGY9Imh0dHA6Ly93d3cudzMub3JnLzE5OTkvMDIvMjItcmRmLXN5bnRheC1ucyMiIHhtbG5zOnNvZGlwb2RpPSJodHRwOi8vc29kaXBvZGkuc291cmNlZm9yZ2UubmV0L0RURC9zb2RpcG9kaS0wLmR0ZCIgeG1sbnM6c3ZnPSJodHRwOi8vd3d3LnczLm9yZy8yMDAwL3N2ZyIgeG1sbnM9Imh0dHA6Ly93d3cudzMub3JnLzIwMDAvc3ZnIiB4bWxuczp4bGluaz0iaHR0cDovL3d3dy53My5vcmcvMTk5OS94bGluayIgdmVyc2lvbj0iMS4xIiBpZD0ic3ZnMTAwMzAzIiBpbmtzY2FwZTp2ZXJzaW9uPSIwLjkyLjMgKDI0MDU1NDYsIDIwMTgtMDMtMTEpIiBzb2RpcG9kaTpkb2NuYW1lPSJnZW5lcmljX2RhdGFiYXNlX2JsdWUuc3ZnIiB4PSIwcHgiIHk9IjBweCIgdmlld0JveD0iMCAwIDM2Ljc5IDQ3LjY5IiBzdHlsZT0iZW5hYmxlLWJhY2tncm91bmQ6bmV3IDAgMCAzNi43OSA0Ny42OTsiIHhtbDpzcGFjZT0icHJlc2VydmUiPiYjeGE7PHNvZGlwb2RpOm5hbWVkdmlldyBib3JkZXJjb2xvcj0iIzY2NjY2NiIgYm9yZGVyb3BhY2l0eT0iMSIgZml0LW1hcmdpbi1ib3R0b209IjAiIGZpdC1tYXJnaW4tbGVmdD0iMCIgZml0LW1hcmdpbi1yaWdodD0iMCIgZml0LW1hcmdpbi10b3A9IjAiIGdyaWR0b2xlcmFuY2U9IjEwIiBndWlkZXRvbGVyYW5jZT0iMTAiIGlkPSJuYW1lZHZpZXcxMDAzMDUiIGlua3NjYXBlOmN1cnJlbnQtbGF5ZXI9InN2ZzEwMDMwMyIgaW5rc2NhcGU6Y3g9IjI0LjUzMDAwMSIgaW5rc2NhcGU6Y3k9IjMxLjc5MTY2OSIgaW5rc2NhcGU6cGFnZW9wYWNpdHk9IjAiIGlua3NjYXBlOnBhZ2VzaGFkb3c9IjIiIGlua3NjYXBlOndpbmRvdy1oZWlnaHQ9IjEwMTciIGlua3NjYXBlOndpbmRvdy1tYXhpbWl6ZWQ9IjEiIGlua3NjYXBlOndpbmRvdy13aWR0aD0iMTkyMCIgaW5rc2NhcGU6d2luZG93LXg9Ii04IiBpbmtzY2FwZTp3aW5kb3cteT0iLTgiIGlua3NjYXBlOnpvb209IjEzLjIxODQ4MSIgb2JqZWN0dG9sZXJhbmNlPSIxMCIgcGFnZWNvbG9yPSIjZmZmZmZmIiBzaG93Z3JpZD0iZmFsc2UiPiYjeGE7CTwvc29kaXBvZGk6bmFtZWR2aWV3PiYjeGE7PGcgaWQ9ImcxMDAzMDEiIHRyYW5zZm9ybT0idHJhbnNsYXRlKC0wLjc1LC0wLjc0NSkiPiYjeGE7CTx0aXRsZSBpZD0idGl0bGUxMDAyNjkiPlBhZ2UtMTwvdGl0bGU+JiN4YTsJPGcgaWQ9Imdyb3VwMzQ5My0xIiB0cmFuc2Zvcm09InRyYW5zbGF0ZSgxLjUsLTEuNSkiPiYjeGE7CQk8dGl0bGUgaWQ9InRpdGxlMTAwMjcxIj5HZW5lcmljIERhdGFiYXNlIChCbHVlKTwvdGl0bGU+JiN4YTsJCTxnIGlkPSJncm91cDM0OTQtMiI+JiN4YTsJCQk8dGl0bGUgaWQ9InRpdGxlMTAwMjczIj5nMTQ1MDwvdGl0bGU+JiN4YTsJCQk8ZyBpZD0ic2hhcGUzNDk1LTMiPiYjeGE7CQkJCTx0aXRsZSBpZD0idGl0bGUxMDAyNzUiPnBhdGgxNDQyPC90aXRsZT4mI3hhOwkJCQk8cGF0aCBpZD0icGF0aDEwMDI3NyIgaW5rc2NhcGU6Y29ubmVjdG9yLWN1cnZhdHVyZT0iMCIgc3R5bGU9ImZpbGw6I0ZGRkZGRjsiIGQ9Ik0zMS43OSw5TDIxLjQ0LDkuMDlMMCw5LjI3djMzLjM3ICAgICAgYzAsMy40Miw3LjUsNi4zNywxNy4yNSw2LjU1aDAuMzdjMS4zMiwwLDIuNi0wLjA3LDMuODItMC4xOWMzLjU3LTAuMjIsNy4wOC0xLjA3LDEwLjM1LTIuNTNjMi4xOS0xLjEsMy40Ni0yLjQ0LDMuNDYtMy44M1Y4Ljk3ICAgICAgTDMxLjc5LDl6Ii8+JiN4YTsJCQk8L2c+JiN4YTsJCQk8ZyBpZD0ic2hhcGUzNDk2LTUiIHRyYW5zZm9ybT0idHJhbnNsYXRlKDIxLjQ0MjUsLTAuMjEpIj4mI3hhOwkJCQk8dGl0bGUgaWQ9InRpdGxlMTAwMjgwIj5wYXRoMTQ0NDwvdGl0bGU+JiN4YTsJCQkJPHBhdGggaWQ9InBhdGgxMDAyODIiIGlua3NjYXBlOmNvbm5lY3Rvci1jdXJ2YXR1cmU9IjAiIHN0eWxlPSJmaWxsOiNFNUU1RTU7IiBkPSJNMTAuMzUsOS4yMXYzNy40NSAgICAgIEM3LjA4LDQ4LjEyLDMuNTcsNDguOTcsMCw0OS4xOVY5LjNMMTAuMzUsOS4yMXoiLz4mI3hhOwkJCTwvZz4mI3hhOwkJCTxnIGlkPSJzaGFwZTM0OTctNyI+JiN4YTsJCQkJPHRpdGxlIGlkPSJ0aXRsZTEwMDI4NSI+cGF0aDE0NDY8L3RpdGxlPiYjeGE7CQkJCTxwYXRoIGlkPSJwYXRoMTAwMjg3IiBpbmtzY2FwZTpjb25uZWN0b3ItY3VydmF0dXJlPSIwIiBzdHlsZT0iZmlsbDpub25lOyIgZD0iTTAsOS4yN3YzMy4zN2MwLDMuNDIsNy40Niw2LjM3LDE3LjI1LDYuNTVoMC4zNyAgICAgIGM5Ljk3LTAuMTMsMTcuNjMtMy4xLDE3LjYzLTYuNTVWOC45N0wwLDkuMjd6Ii8+JiN4YTsJCQkJJiN4YTsJCQkJCTxwYXRoIGlkPSJwYXRoMTAwMjg5IiBpbmtzY2FwZTpjb25uZWN0b3ItY3VydmF0dXJlPSIwIiBzdHlsZT0iZmlsbDpub25lO3N0cm9rZTojNTU2QThBO3N0cm9rZS13aWR0aDoxLjU7c3Ryb2tlLW1pdGVybGltaXQ6MzsiIGQ9IiAgICAgIE0wLDkuMjd2MzMuMzdjMCwzLjQyLDcuNDYsNi4zNywxNy4yNSw2LjU1aDAuMzdjOS45Ny0wLjEzLDE3LjYzLTMuMSwxNy42My02LjU1VjguOTciLz4mI3hhOwkJCTwvZz4mI3hhOwkJCTxnIGlkPSJzaGFwZTM0OTgtMTAiIHRyYW5zZm9ybT0idHJhbnNsYXRlKDAuMDQ1LC0zMy40NjUpIj4mI3hhOwkJCQk8dGl0bGUgaWQ9InRpdGxlMTAwMjkyIj5wYXRoMTQ0ODwvdGl0bGU+JiN4YTsJCQkJPHBhdGggaWQ9InBhdGgxMDAyOTQiIGlua3NjYXBlOmNvbm5lY3Rvci1jdXJ2YXR1cmU9IjAiIHN0eWxlPSJmaWxsOiM1NUQyRjY7IiBkPSJNMzUuMjUsNDIuODJjMCwzLjUyLTcuODksNi4zNy0xNy42Myw2LjM3ICAgICAgQzcuODksNDkuMTksMCw0Ni4zNCwwLDQyLjgyYzAtMy41MSw4LjEyLTYuMzYsMTcuODYtNi4zNkMyNy41OSwzNi40NiwzNS4yNSwzOS4zMSwzNS4yNSw0Mi44MkwzNS4yNSw0Mi44MnoiLz4mI3hhOwkJCQkmI3hhOwkJCQkJPHBhdGggaWQ9InBhdGgxMDAyOTYiIGlua3NjYXBlOmNvbm5lY3Rvci1jdXJ2YXR1cmU9IjAiIHN0eWxlPSJmaWxsOm5vbmU7c3Ryb2tlOiM1NTZBOEE7c3Ryb2tlLXdpZHRoOjEuNTtzdHJva2UtbWl0ZXJsaW1pdDozOyIgZD0iICAgICAgTTM1LjI1LDQyLjgyYzAsMy41Mi03Ljg5LDYuMzctMTcuNjMsNi4zN0M3Ljg5LDQ5LjE5LDAsNDYuMzQsMCw0Mi44MmMwLTMuNTEsOC4xMi02LjM2LDE3Ljg2LTYuMzYgICAgICBDMjcuNTksMzYuNDYsMzUuMjUsMzkuMzEsMzUuMjUsNDIuODIiLz4mI3hhOwkJCTwvZz4mI3hhOwkJPC9nPiYjeGE7CTwvZz4mI3hhOzwvZz4mI3hhOzwvc3ZnPg==;rounded=1;dashed=1;strokeColor=#000000;fillColor=none;align=left;" vertex="1" parent="OJgl7TVdHv62F8Ia3TTO-1">
          <mxGeometry x="240" y="515.5" width="30.06" height="39" as="geometry" />
        </mxCell>
        <mxCell id="T-RTefuH7FngGLa8NjNm-9" value="" style="shape=image;verticalLabelPosition=bottom;labelBackgroundColor=#ffffff;verticalAlign=top;aspect=fixed;imageAspect=0;image=data:image/svg+xml,PHN2ZyB4bWxuczpjYz0iaHR0cDovL2NyZWF0aXZlY29tbW9ucy5vcmcvbnMjIiB4bWxuczpkYz0iaHR0cDovL3B1cmwub3JnL2RjL2VsZW1lbnRzLzEuMS8iIHhtbG5zOmlua3NjYXBlPSJodHRwOi8vd3d3Lmlua3NjYXBlLm9yZy9uYW1lc3BhY2VzL2lua3NjYXBlIiB4bWxuczpyZGY9Imh0dHA6Ly93d3cudzMub3JnLzE5OTkvMDIvMjItcmRmLXN5bnRheC1ucyMiIHhtbG5zOnNvZGlwb2RpPSJodHRwOi8vc29kaXBvZGkuc291cmNlZm9yZ2UubmV0L0RURC9zb2RpcG9kaS0wLmR0ZCIgeG1sbnM6c3ZnPSJodHRwOi8vd3d3LnczLm9yZy8yMDAwL3N2ZyIgeG1sbnM9Imh0dHA6Ly93d3cudzMub3JnLzIwMDAvc3ZnIiB4bWxuczp4bGluaz0iaHR0cDovL3d3dy53My5vcmcvMTk5OS94bGluayIgdmVyc2lvbj0iMS4xIiBpZD0ic3ZnMTAwMzAzIiBpbmtzY2FwZTp2ZXJzaW9uPSIwLjkyLjMgKDI0MDU1NDYsIDIwMTgtMDMtMTEpIiBzb2RpcG9kaTpkb2NuYW1lPSJnZW5lcmljX2RhdGFiYXNlX2JsdWUuc3ZnIiB4PSIwcHgiIHk9IjBweCIgdmlld0JveD0iMCAwIDM2Ljc5IDQ3LjY5IiBzdHlsZT0iZW5hYmxlLWJhY2tncm91bmQ6bmV3IDAgMCAzNi43OSA0Ny42OTsiIHhtbDpzcGFjZT0icHJlc2VydmUiPiYjeGE7PHNvZGlwb2RpOm5hbWVkdmlldyBib3JkZXJjb2xvcj0iIzY2NjY2NiIgYm9yZGVyb3BhY2l0eT0iMSIgZml0LW1hcmdpbi1ib3R0b209IjAiIGZpdC1tYXJnaW4tbGVmdD0iMCIgZml0LW1hcmdpbi1yaWdodD0iMCIgZml0LW1hcmdpbi10b3A9IjAiIGdyaWR0b2xlcmFuY2U9IjEwIiBndWlkZXRvbGVyYW5jZT0iMTAiIGlkPSJuYW1lZHZpZXcxMDAzMDUiIGlua3NjYXBlOmN1cnJlbnQtbGF5ZXI9InN2ZzEwMDMwMyIgaW5rc2NhcGU6Y3g9IjI0LjUzMDAwMSIgaW5rc2NhcGU6Y3k9IjMxLjc5MTY2OSIgaW5rc2NhcGU6cGFnZW9wYWNpdHk9IjAiIGlua3NjYXBlOnBhZ2VzaGFkb3c9IjIiIGlua3NjYXBlOndpbmRvdy1oZWlnaHQ9IjEwMTciIGlua3NjYXBlOndpbmRvdy1tYXhpbWl6ZWQ9IjEiIGlua3NjYXBlOndpbmRvdy13aWR0aD0iMTkyMCIgaW5rc2NhcGU6d2luZG93LXg9Ii04IiBpbmtzY2FwZTp3aW5kb3cteT0iLTgiIGlua3NjYXBlOnpvb209IjEzLjIxODQ4MSIgb2JqZWN0dG9sZXJhbmNlPSIxMCIgcGFnZWNvbG9yPSIjZmZmZmZmIiBzaG93Z3JpZD0iZmFsc2UiPiYjeGE7CTwvc29kaXBvZGk6bmFtZWR2aWV3PiYjeGE7PGcgaWQ9ImcxMDAzMDEiIHRyYW5zZm9ybT0idHJhbnNsYXRlKC0wLjc1LC0wLjc0NSkiPiYjeGE7CTx0aXRsZSBpZD0idGl0bGUxMDAyNjkiPlBhZ2UtMTwvdGl0bGU+JiN4YTsJPGcgaWQ9Imdyb3VwMzQ5My0xIiB0cmFuc2Zvcm09InRyYW5zbGF0ZSgxLjUsLTEuNSkiPiYjeGE7CQk8dGl0bGUgaWQ9InRpdGxlMTAwMjcxIj5HZW5lcmljIERhdGFiYXNlIChCbHVlKTwvdGl0bGU+JiN4YTsJCTxnIGlkPSJncm91cDM0OTQtMiI+JiN4YTsJCQk8dGl0bGUgaWQ9InRpdGxlMTAwMjczIj5nMTQ1MDwvdGl0bGU+JiN4YTsJCQk8ZyBpZD0ic2hhcGUzNDk1LTMiPiYjeGE7CQkJCTx0aXRsZSBpZD0idGl0bGUxMDAyNzUiPnBhdGgxNDQyPC90aXRsZT4mI3hhOwkJCQk8cGF0aCBpZD0icGF0aDEwMDI3NyIgaW5rc2NhcGU6Y29ubmVjdG9yLWN1cnZhdHVyZT0iMCIgc3R5bGU9ImZpbGw6I0ZGRkZGRjsiIGQ9Ik0zMS43OSw5TDIxLjQ0LDkuMDlMMCw5LjI3djMzLjM3ICAgICAgYzAsMy40Miw3LjUsNi4zNywxNy4yNSw2LjU1aDAuMzdjMS4zMiwwLDIuNi0wLjA3LDMuODItMC4xOWMzLjU3LTAuMjIsNy4wOC0xLjA3LDEwLjM1LTIuNTNjMi4xOS0xLjEsMy40Ni0yLjQ0LDMuNDYtMy44M1Y4Ljk3ICAgICAgTDMxLjc5LDl6Ii8+JiN4YTsJCQk8L2c+JiN4YTsJCQk8ZyBpZD0ic2hhcGUzNDk2LTUiIHRyYW5zZm9ybT0idHJhbnNsYXRlKDIxLjQ0MjUsLTAuMjEpIj4mI3hhOwkJCQk8dGl0bGUgaWQ9InRpdGxlMTAwMjgwIj5wYXRoMTQ0NDwvdGl0bGU+JiN4YTsJCQkJPHBhdGggaWQ9InBhdGgxMDAyODIiIGlua3NjYXBlOmNvbm5lY3Rvci1jdXJ2YXR1cmU9IjAiIHN0eWxlPSJmaWxsOiNFNUU1RTU7IiBkPSJNMTAuMzUsOS4yMXYzNy40NSAgICAgIEM3LjA4LDQ4LjEyLDMuNTcsNDguOTcsMCw0OS4xOVY5LjNMMTAuMzUsOS4yMXoiLz4mI3hhOwkJCTwvZz4mI3hhOwkJCTxnIGlkPSJzaGFwZTM0OTctNyI+JiN4YTsJCQkJPHRpdGxlIGlkPSJ0aXRsZTEwMDI4NSI+cGF0aDE0NDY8L3RpdGxlPiYjeGE7CQkJCTxwYXRoIGlkPSJwYXRoMTAwMjg3IiBpbmtzY2FwZTpjb25uZWN0b3ItY3VydmF0dXJlPSIwIiBzdHlsZT0iZmlsbDpub25lOyIgZD0iTTAsOS4yN3YzMy4zN2MwLDMuNDIsNy40Niw2LjM3LDE3LjI1LDYuNTVoMC4zNyAgICAgIGM5Ljk3LTAuMTMsMTcuNjMtMy4xLDE3LjYzLTYuNTVWOC45N0wwLDkuMjd6Ii8+JiN4YTsJCQkJJiN4YTsJCQkJCTxwYXRoIGlkPSJwYXRoMTAwMjg5IiBpbmtzY2FwZTpjb25uZWN0b3ItY3VydmF0dXJlPSIwIiBzdHlsZT0iZmlsbDpub25lO3N0cm9rZTojNTU2QThBO3N0cm9rZS13aWR0aDoxLjU7c3Ryb2tlLW1pdGVybGltaXQ6MzsiIGQ9IiAgICAgIE0wLDkuMjd2MzMuMzdjMCwzLjQyLDcuNDYsNi4zNywxNy4yNSw2LjU1aDAuMzdjOS45Ny0wLjEzLDE3LjYzLTMuMSwxNy42My02LjU1VjguOTciLz4mI3hhOwkJCTwvZz4mI3hhOwkJCTxnIGlkPSJzaGFwZTM0OTgtMTAiIHRyYW5zZm9ybT0idHJhbnNsYXRlKDAuMDQ1LC0zMy40NjUpIj4mI3hhOwkJCQk8dGl0bGUgaWQ9InRpdGxlMTAwMjkyIj5wYXRoMTQ0ODwvdGl0bGU+JiN4YTsJCQkJPHBhdGggaWQ9InBhdGgxMDAyOTQiIGlua3NjYXBlOmNvbm5lY3Rvci1jdXJ2YXR1cmU9IjAiIHN0eWxlPSJmaWxsOiM1NUQyRjY7IiBkPSJNMzUuMjUsNDIuODJjMCwzLjUyLTcuODksNi4zNy0xNy42Myw2LjM3ICAgICAgQzcuODksNDkuMTksMCw0Ni4zNCwwLDQyLjgyYzAtMy41MSw4LjEyLTYuMzYsMTcuODYtNi4zNkMyNy41OSwzNi40NiwzNS4yNSwzOS4zMSwzNS4yNSw0Mi44MkwzNS4yNSw0Mi44MnoiLz4mI3hhOwkJCQkmI3hhOwkJCQkJPHBhdGggaWQ9InBhdGgxMDAyOTYiIGlua3NjYXBlOmNvbm5lY3Rvci1jdXJ2YXR1cmU9IjAiIHN0eWxlPSJmaWxsOm5vbmU7c3Ryb2tlOiM1NTZBOEE7c3Ryb2tlLXdpZHRoOjEuNTtzdHJva2UtbWl0ZXJsaW1pdDozOyIgZD0iICAgICAgTTM1LjI1LDQyLjgyYzAsMy41Mi03Ljg5LDYuMzctMTcuNjMsNi4zN0M3Ljg5LDQ5LjE5LDAsNDYuMzQsMCw0Mi44MmMwLTMuNTEsOC4xMi02LjM2LDE3Ljg2LTYuMzYgICAgICBDMjcuNTksMzYuNDYsMzUuMjUsMzkuMzEsMzUuMjUsNDIuODIiLz4mI3hhOwkJCTwvZz4mI3hhOwkJPC9nPiYjeGE7CTwvZz4mI3hhOzwvZz4mI3hhOzwvc3ZnPg==;rounded=1;dashed=1;strokeColor=#000000;fillColor=none;align=left;" vertex="1" parent="OJgl7TVdHv62F8Ia3TTO-1">
          <mxGeometry x="300" y="515.5" width="30.06" height="39" as="geometry" />
        </mxCell>
        <mxCell id="T-RTefuH7FngGLa8NjNm-10" value="" style="shape=image;verticalLabelPosition=bottom;labelBackgroundColor=#ffffff;verticalAlign=top;aspect=fixed;imageAspect=0;image=data:image/svg+xml,PHN2ZyB4bWxuczpjYz0iaHR0cDovL2NyZWF0aXZlY29tbW9ucy5vcmcvbnMjIiB4bWxuczpkYz0iaHR0cDovL3B1cmwub3JnL2RjL2VsZW1lbnRzLzEuMS8iIHhtbG5zOmlua3NjYXBlPSJodHRwOi8vd3d3Lmlua3NjYXBlLm9yZy9uYW1lc3BhY2VzL2lua3NjYXBlIiB4bWxuczpyZGY9Imh0dHA6Ly93d3cudzMub3JnLzE5OTkvMDIvMjItcmRmLXN5bnRheC1ucyMiIHhtbG5zOnNvZGlwb2RpPSJodHRwOi8vc29kaXBvZGkuc291cmNlZm9yZ2UubmV0L0RURC9zb2RpcG9kaS0wLmR0ZCIgeG1sbnM6c3ZnPSJodHRwOi8vd3d3LnczLm9yZy8yMDAwL3N2ZyIgeG1sbnM9Imh0dHA6Ly93d3cudzMub3JnLzIwMDAvc3ZnIiB4bWxuczp4bGluaz0iaHR0cDovL3d3dy53My5vcmcvMTk5OS94bGluayIgdmVyc2lvbj0iMS4xIiBpZD0ic3ZnMTAwMzAzIiBpbmtzY2FwZTp2ZXJzaW9uPSIwLjkyLjMgKDI0MDU1NDYsIDIwMTgtMDMtMTEpIiBzb2RpcG9kaTpkb2NuYW1lPSJnZW5lcmljX2RhdGFiYXNlX2JsdWUuc3ZnIiB4PSIwcHgiIHk9IjBweCIgdmlld0JveD0iMCAwIDM2Ljc5IDQ3LjY5IiBzdHlsZT0iZW5hYmxlLWJhY2tncm91bmQ6bmV3IDAgMCAzNi43OSA0Ny42OTsiIHhtbDpzcGFjZT0icHJlc2VydmUiPiYjeGE7PHNvZGlwb2RpOm5hbWVkdmlldyBib3JkZXJjb2xvcj0iIzY2NjY2NiIgYm9yZGVyb3BhY2l0eT0iMSIgZml0LW1hcmdpbi1ib3R0b209IjAiIGZpdC1tYXJnaW4tbGVmdD0iMCIgZml0LW1hcmdpbi1yaWdodD0iMCIgZml0LW1hcmdpbi10b3A9IjAiIGdyaWR0b2xlcmFuY2U9IjEwIiBndWlkZXRvbGVyYW5jZT0iMTAiIGlkPSJuYW1lZHZpZXcxMDAzMDUiIGlua3NjYXBlOmN1cnJlbnQtbGF5ZXI9InN2ZzEwMDMwMyIgaW5rc2NhcGU6Y3g9IjI0LjUzMDAwMSIgaW5rc2NhcGU6Y3k9IjMxLjc5MTY2OSIgaW5rc2NhcGU6cGFnZW9wYWNpdHk9IjAiIGlua3NjYXBlOnBhZ2VzaGFkb3c9IjIiIGlua3NjYXBlOndpbmRvdy1oZWlnaHQ9IjEwMTciIGlua3NjYXBlOndpbmRvdy1tYXhpbWl6ZWQ9IjEiIGlua3NjYXBlOndpbmRvdy13aWR0aD0iMTkyMCIgaW5rc2NhcGU6d2luZG93LXg9Ii04IiBpbmtzY2FwZTp3aW5kb3cteT0iLTgiIGlua3NjYXBlOnpvb209IjEzLjIxODQ4MSIgb2JqZWN0dG9sZXJhbmNlPSIxMCIgcGFnZWNvbG9yPSIjZmZmZmZmIiBzaG93Z3JpZD0iZmFsc2UiPiYjeGE7CTwvc29kaXBvZGk6bmFtZWR2aWV3PiYjeGE7PGcgaWQ9ImcxMDAzMDEiIHRyYW5zZm9ybT0idHJhbnNsYXRlKC0wLjc1LC0wLjc0NSkiPiYjeGE7CTx0aXRsZSBpZD0idGl0bGUxMDAyNjkiPlBhZ2UtMTwvdGl0bGU+JiN4YTsJPGcgaWQ9Imdyb3VwMzQ5My0xIiB0cmFuc2Zvcm09InRyYW5zbGF0ZSgxLjUsLTEuNSkiPiYjeGE7CQk8dGl0bGUgaWQ9InRpdGxlMTAwMjcxIj5HZW5lcmljIERhdGFiYXNlIChCbHVlKTwvdGl0bGU+JiN4YTsJCTxnIGlkPSJncm91cDM0OTQtMiI+JiN4YTsJCQk8dGl0bGUgaWQ9InRpdGxlMTAwMjczIj5nMTQ1MDwvdGl0bGU+JiN4YTsJCQk8ZyBpZD0ic2hhcGUzNDk1LTMiPiYjeGE7CQkJCTx0aXRsZSBpZD0idGl0bGUxMDAyNzUiPnBhdGgxNDQyPC90aXRsZT4mI3hhOwkJCQk8cGF0aCBpZD0icGF0aDEwMDI3NyIgaW5rc2NhcGU6Y29ubmVjdG9yLWN1cnZhdHVyZT0iMCIgc3R5bGU9ImZpbGw6I0ZGRkZGRjsiIGQ9Ik0zMS43OSw5TDIxLjQ0LDkuMDlMMCw5LjI3djMzLjM3ICAgICAgYzAsMy40Miw3LjUsNi4zNywxNy4yNSw2LjU1aDAuMzdjMS4zMiwwLDIuNi0wLjA3LDMuODItMC4xOWMzLjU3LTAuMjIsNy4wOC0xLjA3LDEwLjM1LTIuNTNjMi4xOS0xLjEsMy40Ni0yLjQ0LDMuNDYtMy44M1Y4Ljk3ICAgICAgTDMxLjc5LDl6Ii8+JiN4YTsJCQk8L2c+JiN4YTsJCQk8ZyBpZD0ic2hhcGUzNDk2LTUiIHRyYW5zZm9ybT0idHJhbnNsYXRlKDIxLjQ0MjUsLTAuMjEpIj4mI3hhOwkJCQk8dGl0bGUgaWQ9InRpdGxlMTAwMjgwIj5wYXRoMTQ0NDwvdGl0bGU+JiN4YTsJCQkJPHBhdGggaWQ9InBhdGgxMDAyODIiIGlua3NjYXBlOmNvbm5lY3Rvci1jdXJ2YXR1cmU9IjAiIHN0eWxlPSJmaWxsOiNFNUU1RTU7IiBkPSJNMTAuMzUsOS4yMXYzNy40NSAgICAgIEM3LjA4LDQ4LjEyLDMuNTcsNDguOTcsMCw0OS4xOVY5LjNMMTAuMzUsOS4yMXoiLz4mI3hhOwkJCTwvZz4mI3hhOwkJCTxnIGlkPSJzaGFwZTM0OTctNyI+JiN4YTsJCQkJPHRpdGxlIGlkPSJ0aXRsZTEwMDI4NSI+cGF0aDE0NDY8L3RpdGxlPiYjeGE7CQkJCTxwYXRoIGlkPSJwYXRoMTAwMjg3IiBpbmtzY2FwZTpjb25uZWN0b3ItY3VydmF0dXJlPSIwIiBzdHlsZT0iZmlsbDpub25lOyIgZD0iTTAsOS4yN3YzMy4zN2MwLDMuNDIsNy40Niw2LjM3LDE3LjI1LDYuNTVoMC4zNyAgICAgIGM5Ljk3LTAuMTMsMTcuNjMtMy4xLDE3LjYzLTYuNTVWOC45N0wwLDkuMjd6Ii8+JiN4YTsJCQkJJiN4YTsJCQkJCTxwYXRoIGlkPSJwYXRoMTAwMjg5IiBpbmtzY2FwZTpjb25uZWN0b3ItY3VydmF0dXJlPSIwIiBzdHlsZT0iZmlsbDpub25lO3N0cm9rZTojNTU2QThBO3N0cm9rZS13aWR0aDoxLjU7c3Ryb2tlLW1pdGVybGltaXQ6MzsiIGQ9IiAgICAgIE0wLDkuMjd2MzMuMzdjMCwzLjQyLDcuNDYsNi4zNywxNy4yNSw2LjU1aDAuMzdjOS45Ny0wLjEzLDE3LjYzLTMuMSwxNy42My02LjU1VjguOTciLz4mI3hhOwkJCTwvZz4mI3hhOwkJCTxnIGlkPSJzaGFwZTM0OTgtMTAiIHRyYW5zZm9ybT0idHJhbnNsYXRlKDAuMDQ1LC0zMy40NjUpIj4mI3hhOwkJCQk8dGl0bGUgaWQ9InRpdGxlMTAwMjkyIj5wYXRoMTQ0ODwvdGl0bGU+JiN4YTsJCQkJPHBhdGggaWQ9InBhdGgxMDAyOTQiIGlua3NjYXBlOmNvbm5lY3Rvci1jdXJ2YXR1cmU9IjAiIHN0eWxlPSJmaWxsOiM1NUQyRjY7IiBkPSJNMzUuMjUsNDIuODJjMCwzLjUyLTcuODksNi4zNy0xNy42Myw2LjM3ICAgICAgQzcuODksNDkuMTksMCw0Ni4zNCwwLDQyLjgyYzAtMy41MSw4LjEyLTYuMzYsMTcuODYtNi4zNkMyNy41OSwzNi40NiwzNS4yNSwzOS4zMSwzNS4yNSw0Mi44MkwzNS4yNSw0Mi44MnoiLz4mI3hhOwkJCQkmI3hhOwkJCQkJPHBhdGggaWQ9InBhdGgxMDAyOTYiIGlua3NjYXBlOmNvbm5lY3Rvci1jdXJ2YXR1cmU9IjAiIHN0eWxlPSJmaWxsOm5vbmU7c3Ryb2tlOiM1NTZBOEE7c3Ryb2tlLXdpZHRoOjEuNTtzdHJva2UtbWl0ZXJsaW1pdDozOyIgZD0iICAgICAgTTM1LjI1LDQyLjgyYzAsMy41Mi03Ljg5LDYuMzctMTcuNjMsNi4zN0M3Ljg5LDQ5LjE5LDAsNDYuMzQsMCw0Mi44MmMwLTMuNTEsOC4xMi02LjM2LDE3Ljg2LTYuMzYgICAgICBDMjcuNTksMzYuNDYsMzUuMjUsMzkuMzEsMzUuMjUsNDIuODIiLz4mI3hhOwkJCTwvZz4mI3hhOwkJPC9nPiYjeGE7CTwvZz4mI3hhOzwvZz4mI3hhOzwvc3ZnPg==;rounded=1;dashed=1;strokeColor=#000000;fillColor=none;align=left;" vertex="1" parent="OJgl7TVdHv62F8Ia3TTO-1">
          <mxGeometry x="360" y="515.5" width="30.06" height="39" as="geometry" />
        </mxCell>
        <mxCell id="T-RTefuH7FngGLa8NjNm-11" value="" style="shape=image;verticalLabelPosition=bottom;labelBackgroundColor=#ffffff;verticalAlign=top;aspect=fixed;imageAspect=0;image=data:image/svg+xml,PHN2ZyB4bWxuczpjYz0iaHR0cDovL2NyZWF0aXZlY29tbW9ucy5vcmcvbnMjIiB4bWxuczpkYz0iaHR0cDovL3B1cmwub3JnL2RjL2VsZW1lbnRzLzEuMS8iIHhtbG5zOmlua3NjYXBlPSJodHRwOi8vd3d3Lmlua3NjYXBlLm9yZy9uYW1lc3BhY2VzL2lua3NjYXBlIiB4bWxuczpyZGY9Imh0dHA6Ly93d3cudzMub3JnLzE5OTkvMDIvMjItcmRmLXN5bnRheC1ucyMiIHhtbG5zOnNvZGlwb2RpPSJodHRwOi8vc29kaXBvZGkuc291cmNlZm9yZ2UubmV0L0RURC9zb2RpcG9kaS0wLmR0ZCIgeG1sbnM6c3ZnPSJodHRwOi8vd3d3LnczLm9yZy8yMDAwL3N2ZyIgeG1sbnM9Imh0dHA6Ly93d3cudzMub3JnLzIwMDAvc3ZnIiB4bWxuczp4bGluaz0iaHR0cDovL3d3dy53My5vcmcvMTk5OS94bGluayIgdmVyc2lvbj0iMS4xIiBpZD0ic3ZnMTAwMzAzIiBpbmtzY2FwZTp2ZXJzaW9uPSIwLjkyLjMgKDI0MDU1NDYsIDIwMTgtMDMtMTEpIiBzb2RpcG9kaTpkb2NuYW1lPSJnZW5lcmljX2RhdGFiYXNlX2JsdWUuc3ZnIiB4PSIwcHgiIHk9IjBweCIgdmlld0JveD0iMCAwIDM2Ljc5IDQ3LjY5IiBzdHlsZT0iZW5hYmxlLWJhY2tncm91bmQ6bmV3IDAgMCAzNi43OSA0Ny42OTsiIHhtbDpzcGFjZT0icHJlc2VydmUiPiYjeGE7PHNvZGlwb2RpOm5hbWVkdmlldyBib3JkZXJjb2xvcj0iIzY2NjY2NiIgYm9yZGVyb3BhY2l0eT0iMSIgZml0LW1hcmdpbi1ib3R0b209IjAiIGZpdC1tYXJnaW4tbGVmdD0iMCIgZml0LW1hcmdpbi1yaWdodD0iMCIgZml0LW1hcmdpbi10b3A9IjAiIGdyaWR0b2xlcmFuY2U9IjEwIiBndWlkZXRvbGVyYW5jZT0iMTAiIGlkPSJuYW1lZHZpZXcxMDAzMDUiIGlua3NjYXBlOmN1cnJlbnQtbGF5ZXI9InN2ZzEwMDMwMyIgaW5rc2NhcGU6Y3g9IjI0LjUzMDAwMSIgaW5rc2NhcGU6Y3k9IjMxLjc5MTY2OSIgaW5rc2NhcGU6cGFnZW9wYWNpdHk9IjAiIGlua3NjYXBlOnBhZ2VzaGFkb3c9IjIiIGlua3NjYXBlOndpbmRvdy1oZWlnaHQ9IjEwMTciIGlua3NjYXBlOndpbmRvdy1tYXhpbWl6ZWQ9IjEiIGlua3NjYXBlOndpbmRvdy13aWR0aD0iMTkyMCIgaW5rc2NhcGU6d2luZG93LXg9Ii04IiBpbmtzY2FwZTp3aW5kb3cteT0iLTgiIGlua3NjYXBlOnpvb209IjEzLjIxODQ4MSIgb2JqZWN0dG9sZXJhbmNlPSIxMCIgcGFnZWNvbG9yPSIjZmZmZmZmIiBzaG93Z3JpZD0iZmFsc2UiPiYjeGE7CTwvc29kaXBvZGk6bmFtZWR2aWV3PiYjeGE7PGcgaWQ9ImcxMDAzMDEiIHRyYW5zZm9ybT0idHJhbnNsYXRlKC0wLjc1LC0wLjc0NSkiPiYjeGE7CTx0aXRsZSBpZD0idGl0bGUxMDAyNjkiPlBhZ2UtMTwvdGl0bGU+JiN4YTsJPGcgaWQ9Imdyb3VwMzQ5My0xIiB0cmFuc2Zvcm09InRyYW5zbGF0ZSgxLjUsLTEuNSkiPiYjeGE7CQk8dGl0bGUgaWQ9InRpdGxlMTAwMjcxIj5HZW5lcmljIERhdGFiYXNlIChCbHVlKTwvdGl0bGU+JiN4YTsJCTxnIGlkPSJncm91cDM0OTQtMiI+JiN4YTsJCQk8dGl0bGUgaWQ9InRpdGxlMTAwMjczIj5nMTQ1MDwvdGl0bGU+JiN4YTsJCQk8ZyBpZD0ic2hhcGUzNDk1LTMiPiYjeGE7CQkJCTx0aXRsZSBpZD0idGl0bGUxMDAyNzUiPnBhdGgxNDQyPC90aXRsZT4mI3hhOwkJCQk8cGF0aCBpZD0icGF0aDEwMDI3NyIgaW5rc2NhcGU6Y29ubmVjdG9yLWN1cnZhdHVyZT0iMCIgc3R5bGU9ImZpbGw6I0ZGRkZGRjsiIGQ9Ik0zMS43OSw5TDIxLjQ0LDkuMDlMMCw5LjI3djMzLjM3ICAgICAgYzAsMy40Miw3LjUsNi4zNywxNy4yNSw2LjU1aDAuMzdjMS4zMiwwLDIuNi0wLjA3LDMuODItMC4xOWMzLjU3LTAuMjIsNy4wOC0xLjA3LDEwLjM1LTIuNTNjMi4xOS0xLjEsMy40Ni0yLjQ0LDMuNDYtMy44M1Y4Ljk3ICAgICAgTDMxLjc5LDl6Ii8+JiN4YTsJCQk8L2c+JiN4YTsJCQk8ZyBpZD0ic2hhcGUzNDk2LTUiIHRyYW5zZm9ybT0idHJhbnNsYXRlKDIxLjQ0MjUsLTAuMjEpIj4mI3hhOwkJCQk8dGl0bGUgaWQ9InRpdGxlMTAwMjgwIj5wYXRoMTQ0NDwvdGl0bGU+JiN4YTsJCQkJPHBhdGggaWQ9InBhdGgxMDAyODIiIGlua3NjYXBlOmNvbm5lY3Rvci1jdXJ2YXR1cmU9IjAiIHN0eWxlPSJmaWxsOiNFNUU1RTU7IiBkPSJNMTAuMzUsOS4yMXYzNy40NSAgICAgIEM3LjA4LDQ4LjEyLDMuNTcsNDguOTcsMCw0OS4xOVY5LjNMMTAuMzUsOS4yMXoiLz4mI3hhOwkJCTwvZz4mI3hhOwkJCTxnIGlkPSJzaGFwZTM0OTctNyI+JiN4YTsJCQkJPHRpdGxlIGlkPSJ0aXRsZTEwMDI4NSI+cGF0aDE0NDY8L3RpdGxlPiYjeGE7CQkJCTxwYXRoIGlkPSJwYXRoMTAwMjg3IiBpbmtzY2FwZTpjb25uZWN0b3ItY3VydmF0dXJlPSIwIiBzdHlsZT0iZmlsbDpub25lOyIgZD0iTTAsOS4yN3YzMy4zN2MwLDMuNDIsNy40Niw2LjM3LDE3LjI1LDYuNTVoMC4zNyAgICAgIGM5Ljk3LTAuMTMsMTcuNjMtMy4xLDE3LjYzLTYuNTVWOC45N0wwLDkuMjd6Ii8+JiN4YTsJCQkJJiN4YTsJCQkJCTxwYXRoIGlkPSJwYXRoMTAwMjg5IiBpbmtzY2FwZTpjb25uZWN0b3ItY3VydmF0dXJlPSIwIiBzdHlsZT0iZmlsbDpub25lO3N0cm9rZTojNTU2QThBO3N0cm9rZS13aWR0aDoxLjU7c3Ryb2tlLW1pdGVybGltaXQ6MzsiIGQ9IiAgICAgIE0wLDkuMjd2MzMuMzdjMCwzLjQyLDcuNDYsNi4zNywxNy4yNSw2LjU1aDAuMzdjOS45Ny0wLjEzLDE3LjYzLTMuMSwxNy42My02LjU1VjguOTciLz4mI3hhOwkJCTwvZz4mI3hhOwkJCTxnIGlkPSJzaGFwZTM0OTgtMTAiIHRyYW5zZm9ybT0idHJhbnNsYXRlKDAuMDQ1LC0zMy40NjUpIj4mI3hhOwkJCQk8dGl0bGUgaWQ9InRpdGxlMTAwMjkyIj5wYXRoMTQ0ODwvdGl0bGU+JiN4YTsJCQkJPHBhdGggaWQ9InBhdGgxMDAyOTQiIGlua3NjYXBlOmNvbm5lY3Rvci1jdXJ2YXR1cmU9IjAiIHN0eWxlPSJmaWxsOiM1NUQyRjY7IiBkPSJNMzUuMjUsNDIuODJjMCwzLjUyLTcuODksNi4zNy0xNy42Myw2LjM3ICAgICAgQzcuODksNDkuMTksMCw0Ni4zNCwwLDQyLjgyYzAtMy41MSw4LjEyLTYuMzYsMTcuODYtNi4zNkMyNy41OSwzNi40NiwzNS4yNSwzOS4zMSwzNS4yNSw0Mi44MkwzNS4yNSw0Mi44MnoiLz4mI3hhOwkJCQkmI3hhOwkJCQkJPHBhdGggaWQ9InBhdGgxMDAyOTYiIGlua3NjYXBlOmNvbm5lY3Rvci1jdXJ2YXR1cmU9IjAiIHN0eWxlPSJmaWxsOm5vbmU7c3Ryb2tlOiM1NTZBOEE7c3Ryb2tlLXdpZHRoOjEuNTtzdHJva2UtbWl0ZXJsaW1pdDozOyIgZD0iICAgICAgTTM1LjI1LDQyLjgyYzAsMy41Mi03Ljg5LDYuMzctMTcuNjMsNi4zN0M3Ljg5LDQ5LjE5LDAsNDYuMzQsMCw0Mi44MmMwLTMuNTEsOC4xMi02LjM2LDE3Ljg2LTYuMzYgICAgICBDMjcuNTksMzYuNDYsMzUuMjUsMzkuMzEsMzUuMjUsNDIuODIiLz4mI3hhOwkJCTwvZz4mI3hhOwkJPC9nPiYjeGE7CTwvZz4mI3hhOzwvZz4mI3hhOzwvc3ZnPg==;rounded=1;dashed=1;strokeColor=#000000;fillColor=none;align=left;" vertex="1" parent="OJgl7TVdHv62F8Ia3TTO-1">
          <mxGeometry x="420" y="515.5" width="30.06" height="39" as="geometry" />
        </mxCell>
        <mxCell id="T-RTefuH7FngGLa8NjNm-12" value="离线数据" style="whiteSpace=wrap;html=1;align=left;verticalAlign=top;rounded=1;fillColor=none;dashed=1;arcSize=3;" vertex="1" parent="OJgl7TVdHv62F8Ia3TTO-1">
          <mxGeometry x="520" y="510" width="300" height="50" as="geometry" />
        </mxCell>
        <mxCell id="T-RTefuH7FngGLa8NjNm-13" value="" style="shape=image;verticalLabelPosition=bottom;labelBackgroundColor=#ffffff;verticalAlign=top;aspect=fixed;imageAspect=0;image=data:image/svg+xml,PHN2ZyB4bWxuczpjYz0iaHR0cDovL2NyZWF0aXZlY29tbW9ucy5vcmcvbnMjIiB4bWxuczpkYz0iaHR0cDovL3B1cmwub3JnL2RjL2VsZW1lbnRzLzEuMS8iIHhtbG5zOmlua3NjYXBlPSJodHRwOi8vd3d3Lmlua3NjYXBlLm9yZy9uYW1lc3BhY2VzL2lua3NjYXBlIiB4bWxuczpyZGY9Imh0dHA6Ly93d3cudzMub3JnLzE5OTkvMDIvMjItcmRmLXN5bnRheC1ucyMiIHhtbG5zOnNvZGlwb2RpPSJodHRwOi8vc29kaXBvZGkuc291cmNlZm9yZ2UubmV0L0RURC9zb2RpcG9kaS0wLmR0ZCIgeG1sbnM6c3ZnPSJodHRwOi8vd3d3LnczLm9yZy8yMDAwL3N2ZyIgeG1sbnM9Imh0dHA6Ly93d3cudzMub3JnLzIwMDAvc3ZnIiB4bWxuczp4bGluaz0iaHR0cDovL3d3dy53My5vcmcvMTk5OS94bGluayIgdmVyc2lvbj0iMS4xIiBpZD0ic3ZnMTAwMzAzIiBpbmtzY2FwZTp2ZXJzaW9uPSIwLjkyLjMgKDI0MDU1NDYsIDIwMTgtMDMtMTEpIiBzb2RpcG9kaTpkb2NuYW1lPSJnZW5lcmljX2RhdGFiYXNlX2JsdWUuc3ZnIiB4PSIwcHgiIHk9IjBweCIgdmlld0JveD0iMCAwIDM2Ljc5IDQ3LjY5IiBzdHlsZT0iZW5hYmxlLWJhY2tncm91bmQ6bmV3IDAgMCAzNi43OSA0Ny42OTsiIHhtbDpzcGFjZT0icHJlc2VydmUiPiYjeGE7PHNvZGlwb2RpOm5hbWVkdmlldyBib3JkZXJjb2xvcj0iIzY2NjY2NiIgYm9yZGVyb3BhY2l0eT0iMSIgZml0LW1hcmdpbi1ib3R0b209IjAiIGZpdC1tYXJnaW4tbGVmdD0iMCIgZml0LW1hcmdpbi1yaWdodD0iMCIgZml0LW1hcmdpbi10b3A9IjAiIGdyaWR0b2xlcmFuY2U9IjEwIiBndWlkZXRvbGVyYW5jZT0iMTAiIGlkPSJuYW1lZHZpZXcxMDAzMDUiIGlua3NjYXBlOmN1cnJlbnQtbGF5ZXI9InN2ZzEwMDMwMyIgaW5rc2NhcGU6Y3g9IjI0LjUzMDAwMSIgaW5rc2NhcGU6Y3k9IjMxLjc5MTY2OSIgaW5rc2NhcGU6cGFnZW9wYWNpdHk9IjAiIGlua3NjYXBlOnBhZ2VzaGFkb3c9IjIiIGlua3NjYXBlOndpbmRvdy1oZWlnaHQ9IjEwMTciIGlua3NjYXBlOndpbmRvdy1tYXhpbWl6ZWQ9IjEiIGlua3NjYXBlOndpbmRvdy13aWR0aD0iMTkyMCIgaW5rc2NhcGU6d2luZG93LXg9Ii04IiBpbmtzY2FwZTp3aW5kb3cteT0iLTgiIGlua3NjYXBlOnpvb209IjEzLjIxODQ4MSIgb2JqZWN0dG9sZXJhbmNlPSIxMCIgcGFnZWNvbG9yPSIjZmZmZmZmIiBzaG93Z3JpZD0iZmFsc2UiPiYjeGE7CTwvc29kaXBvZGk6bmFtZWR2aWV3PiYjeGE7PGcgaWQ9ImcxMDAzMDEiIHRyYW5zZm9ybT0idHJhbnNsYXRlKC0wLjc1LC0wLjc0NSkiPiYjeGE7CTx0aXRsZSBpZD0idGl0bGUxMDAyNjkiPlBhZ2UtMTwvdGl0bGU+JiN4YTsJPGcgaWQ9Imdyb3VwMzQ5My0xIiB0cmFuc2Zvcm09InRyYW5zbGF0ZSgxLjUsLTEuNSkiPiYjeGE7CQk8dGl0bGUgaWQ9InRpdGxlMTAwMjcxIj5HZW5lcmljIERhdGFiYXNlIChCbHVlKTwvdGl0bGU+JiN4YTsJCTxnIGlkPSJncm91cDM0OTQtMiI+JiN4YTsJCQk8dGl0bGUgaWQ9InRpdGxlMTAwMjczIj5nMTQ1MDwvdGl0bGU+JiN4YTsJCQk8ZyBpZD0ic2hhcGUzNDk1LTMiPiYjeGE7CQkJCTx0aXRsZSBpZD0idGl0bGUxMDAyNzUiPnBhdGgxNDQyPC90aXRsZT4mI3hhOwkJCQk8cGF0aCBpZD0icGF0aDEwMDI3NyIgaW5rc2NhcGU6Y29ubmVjdG9yLWN1cnZhdHVyZT0iMCIgc3R5bGU9ImZpbGw6I0ZGRkZGRjsiIGQ9Ik0zMS43OSw5TDIxLjQ0LDkuMDlMMCw5LjI3djMzLjM3ICAgICAgYzAsMy40Miw3LjUsNi4zNywxNy4yNSw2LjU1aDAuMzdjMS4zMiwwLDIuNi0wLjA3LDMuODItMC4xOWMzLjU3LTAuMjIsNy4wOC0xLjA3LDEwLjM1LTIuNTNjMi4xOS0xLjEsMy40Ni0yLjQ0LDMuNDYtMy44M1Y4Ljk3ICAgICAgTDMxLjc5LDl6Ii8+JiN4YTsJCQk8L2c+JiN4YTsJCQk8ZyBpZD0ic2hhcGUzNDk2LTUiIHRyYW5zZm9ybT0idHJhbnNsYXRlKDIxLjQ0MjUsLTAuMjEpIj4mI3hhOwkJCQk8dGl0bGUgaWQ9InRpdGxlMTAwMjgwIj5wYXRoMTQ0NDwvdGl0bGU+JiN4YTsJCQkJPHBhdGggaWQ9InBhdGgxMDAyODIiIGlua3NjYXBlOmNvbm5lY3Rvci1jdXJ2YXR1cmU9IjAiIHN0eWxlPSJmaWxsOiNFNUU1RTU7IiBkPSJNMTAuMzUsOS4yMXYzNy40NSAgICAgIEM3LjA4LDQ4LjEyLDMuNTcsNDguOTcsMCw0OS4xOVY5LjNMMTAuMzUsOS4yMXoiLz4mI3hhOwkJCTwvZz4mI3hhOwkJCTxnIGlkPSJzaGFwZTM0OTctNyI+JiN4YTsJCQkJPHRpdGxlIGlkPSJ0aXRsZTEwMDI4NSI+cGF0aDE0NDY8L3RpdGxlPiYjeGE7CQkJCTxwYXRoIGlkPSJwYXRoMTAwMjg3IiBpbmtzY2FwZTpjb25uZWN0b3ItY3VydmF0dXJlPSIwIiBzdHlsZT0iZmlsbDpub25lOyIgZD0iTTAsOS4yN3YzMy4zN2MwLDMuNDIsNy40Niw2LjM3LDE3LjI1LDYuNTVoMC4zNyAgICAgIGM5Ljk3LTAuMTMsMTcuNjMtMy4xLDE3LjYzLTYuNTVWOC45N0wwLDkuMjd6Ii8+JiN4YTsJCQkJJiN4YTsJCQkJCTxwYXRoIGlkPSJwYXRoMTAwMjg5IiBpbmtzY2FwZTpjb25uZWN0b3ItY3VydmF0dXJlPSIwIiBzdHlsZT0iZmlsbDpub25lO3N0cm9rZTojNTU2QThBO3N0cm9rZS13aWR0aDoxLjU7c3Ryb2tlLW1pdGVybGltaXQ6MzsiIGQ9IiAgICAgIE0wLDkuMjd2MzMuMzdjMCwzLjQyLDcuNDYsNi4zNywxNy4yNSw2LjU1aDAuMzdjOS45Ny0wLjEzLDE3LjYzLTMuMSwxNy42My02LjU1VjguOTciLz4mI3hhOwkJCTwvZz4mI3hhOwkJCTxnIGlkPSJzaGFwZTM0OTgtMTAiIHRyYW5zZm9ybT0idHJhbnNsYXRlKDAuMDQ1LC0zMy40NjUpIj4mI3hhOwkJCQk8dGl0bGUgaWQ9InRpdGxlMTAwMjkyIj5wYXRoMTQ0ODwvdGl0bGU+JiN4YTsJCQkJPHBhdGggaWQ9InBhdGgxMDAyOTQiIGlua3NjYXBlOmNvbm5lY3Rvci1jdXJ2YXR1cmU9IjAiIHN0eWxlPSJmaWxsOiM1NUQyRjY7IiBkPSJNMzUuMjUsNDIuODJjMCwzLjUyLTcuODksNi4zNy0xNy42Myw2LjM3ICAgICAgQzcuODksNDkuMTksMCw0Ni4zNCwwLDQyLjgyYzAtMy41MSw4LjEyLTYuMzYsMTcuODYtNi4zNkMyNy41OSwzNi40NiwzNS4yNSwzOS4zMSwzNS4yNSw0Mi44MkwzNS4yNSw0Mi44MnoiLz4mI3hhOwkJCQkmI3hhOwkJCQkJPHBhdGggaWQ9InBhdGgxMDAyOTYiIGlua3NjYXBlOmNvbm5lY3Rvci1jdXJ2YXR1cmU9IjAiIHN0eWxlPSJmaWxsOm5vbmU7c3Ryb2tlOiM1NTZBOEE7c3Ryb2tlLXdpZHRoOjEuNTtzdHJva2UtbWl0ZXJsaW1pdDozOyIgZD0iICAgICAgTTM1LjI1LDQyLjgyYzAsMy41Mi03Ljg5LDYuMzctMTcuNjMsNi4zN0M3Ljg5LDQ5LjE5LDAsNDYuMzQsMCw0Mi44MmMwLTMuNTEsOC4xMi02LjM2LDE3Ljg2LTYuMzYgICAgICBDMjcuNTksMzYuNDYsMzUuMjUsMzkuMzEsMzUuMjUsNDIuODIiLz4mI3hhOwkJCTwvZz4mI3hhOwkJPC9nPiYjeGE7CTwvZz4mI3hhOzwvZz4mI3hhOzwvc3ZnPg==;rounded=1;dashed=1;strokeColor=#000000;fillColor=none;align=left;" vertex="1" parent="OJgl7TVdHv62F8Ia3TTO-1">
          <mxGeometry x="580" y="515.5" width="30.06" height="39" as="geometry" />
        </mxCell>
        <mxCell id="T-RTefuH7FngGLa8NjNm-14" value="" style="shape=image;verticalLabelPosition=bottom;labelBackgroundColor=#ffffff;verticalAlign=top;aspect=fixed;imageAspect=0;image=data:image/svg+xml,PHN2ZyB4bWxuczpjYz0iaHR0cDovL2NyZWF0aXZlY29tbW9ucy5vcmcvbnMjIiB4bWxuczpkYz0iaHR0cDovL3B1cmwub3JnL2RjL2VsZW1lbnRzLzEuMS8iIHhtbG5zOmlua3NjYXBlPSJodHRwOi8vd3d3Lmlua3NjYXBlLm9yZy9uYW1lc3BhY2VzL2lua3NjYXBlIiB4bWxuczpyZGY9Imh0dHA6Ly93d3cudzMub3JnLzE5OTkvMDIvMjItcmRmLXN5bnRheC1ucyMiIHhtbG5zOnNvZGlwb2RpPSJodHRwOi8vc29kaXBvZGkuc291cmNlZm9yZ2UubmV0L0RURC9zb2RpcG9kaS0wLmR0ZCIgeG1sbnM6c3ZnPSJodHRwOi8vd3d3LnczLm9yZy8yMDAwL3N2ZyIgeG1sbnM9Imh0dHA6Ly93d3cudzMub3JnLzIwMDAvc3ZnIiB4bWxuczp4bGluaz0iaHR0cDovL3d3dy53My5vcmcvMTk5OS94bGluayIgdmVyc2lvbj0iMS4xIiBpZD0ic3ZnMTAwMzAzIiBpbmtzY2FwZTp2ZXJzaW9uPSIwLjkyLjMgKDI0MDU1NDYsIDIwMTgtMDMtMTEpIiBzb2RpcG9kaTpkb2NuYW1lPSJnZW5lcmljX2RhdGFiYXNlX2JsdWUuc3ZnIiB4PSIwcHgiIHk9IjBweCIgdmlld0JveD0iMCAwIDM2Ljc5IDQ3LjY5IiBzdHlsZT0iZW5hYmxlLWJhY2tncm91bmQ6bmV3IDAgMCAzNi43OSA0Ny42OTsiIHhtbDpzcGFjZT0icHJlc2VydmUiPiYjeGE7PHNvZGlwb2RpOm5hbWVkdmlldyBib3JkZXJjb2xvcj0iIzY2NjY2NiIgYm9yZGVyb3BhY2l0eT0iMSIgZml0LW1hcmdpbi1ib3R0b209IjAiIGZpdC1tYXJnaW4tbGVmdD0iMCIgZml0LW1hcmdpbi1yaWdodD0iMCIgZml0LW1hcmdpbi10b3A9IjAiIGdyaWR0b2xlcmFuY2U9IjEwIiBndWlkZXRvbGVyYW5jZT0iMTAiIGlkPSJuYW1lZHZpZXcxMDAzMDUiIGlua3NjYXBlOmN1cnJlbnQtbGF5ZXI9InN2ZzEwMDMwMyIgaW5rc2NhcGU6Y3g9IjI0LjUzMDAwMSIgaW5rc2NhcGU6Y3k9IjMxLjc5MTY2OSIgaW5rc2NhcGU6cGFnZW9wYWNpdHk9IjAiIGlua3NjYXBlOnBhZ2VzaGFkb3c9IjIiIGlua3NjYXBlOndpbmRvdy1oZWlnaHQ9IjEwMTciIGlua3NjYXBlOndpbmRvdy1tYXhpbWl6ZWQ9IjEiIGlua3NjYXBlOndpbmRvdy13aWR0aD0iMTkyMCIgaW5rc2NhcGU6d2luZG93LXg9Ii04IiBpbmtzY2FwZTp3aW5kb3cteT0iLTgiIGlua3NjYXBlOnpvb209IjEzLjIxODQ4MSIgb2JqZWN0dG9sZXJhbmNlPSIxMCIgcGFnZWNvbG9yPSIjZmZmZmZmIiBzaG93Z3JpZD0iZmFsc2UiPiYjeGE7CTwvc29kaXBvZGk6bmFtZWR2aWV3PiYjeGE7PGcgaWQ9ImcxMDAzMDEiIHRyYW5zZm9ybT0idHJhbnNsYXRlKC0wLjc1LC0wLjc0NSkiPiYjeGE7CTx0aXRsZSBpZD0idGl0bGUxMDAyNjkiPlBhZ2UtMTwvdGl0bGU+JiN4YTsJPGcgaWQ9Imdyb3VwMzQ5My0xIiB0cmFuc2Zvcm09InRyYW5zbGF0ZSgxLjUsLTEuNSkiPiYjeGE7CQk8dGl0bGUgaWQ9InRpdGxlMTAwMjcxIj5HZW5lcmljIERhdGFiYXNlIChCbHVlKTwvdGl0bGU+JiN4YTsJCTxnIGlkPSJncm91cDM0OTQtMiI+JiN4YTsJCQk8dGl0bGUgaWQ9InRpdGxlMTAwMjczIj5nMTQ1MDwvdGl0bGU+JiN4YTsJCQk8ZyBpZD0ic2hhcGUzNDk1LTMiPiYjeGE7CQkJCTx0aXRsZSBpZD0idGl0bGUxMDAyNzUiPnBhdGgxNDQyPC90aXRsZT4mI3hhOwkJCQk8cGF0aCBpZD0icGF0aDEwMDI3NyIgaW5rc2NhcGU6Y29ubmVjdG9yLWN1cnZhdHVyZT0iMCIgc3R5bGU9ImZpbGw6I0ZGRkZGRjsiIGQ9Ik0zMS43OSw5TDIxLjQ0LDkuMDlMMCw5LjI3djMzLjM3ICAgICAgYzAsMy40Miw3LjUsNi4zNywxNy4yNSw2LjU1aDAuMzdjMS4zMiwwLDIuNi0wLjA3LDMuODItMC4xOWMzLjU3LTAuMjIsNy4wOC0xLjA3LDEwLjM1LTIuNTNjMi4xOS0xLjEsMy40Ni0yLjQ0LDMuNDYtMy44M1Y4Ljk3ICAgICAgTDMxLjc5LDl6Ii8+JiN4YTsJCQk8L2c+JiN4YTsJCQk8ZyBpZD0ic2hhcGUzNDk2LTUiIHRyYW5zZm9ybT0idHJhbnNsYXRlKDIxLjQ0MjUsLTAuMjEpIj4mI3hhOwkJCQk8dGl0bGUgaWQ9InRpdGxlMTAwMjgwIj5wYXRoMTQ0NDwvdGl0bGU+JiN4YTsJCQkJPHBhdGggaWQ9InBhdGgxMDAyODIiIGlua3NjYXBlOmNvbm5lY3Rvci1jdXJ2YXR1cmU9IjAiIHN0eWxlPSJmaWxsOiNFNUU1RTU7IiBkPSJNMTAuMzUsOS4yMXYzNy40NSAgICAgIEM3LjA4LDQ4LjEyLDMuNTcsNDguOTcsMCw0OS4xOVY5LjNMMTAuMzUsOS4yMXoiLz4mI3hhOwkJCTwvZz4mI3hhOwkJCTxnIGlkPSJzaGFwZTM0OTctNyI+JiN4YTsJCQkJPHRpdGxlIGlkPSJ0aXRsZTEwMDI4NSI+cGF0aDE0NDY8L3RpdGxlPiYjeGE7CQkJCTxwYXRoIGlkPSJwYXRoMTAwMjg3IiBpbmtzY2FwZTpjb25uZWN0b3ItY3VydmF0dXJlPSIwIiBzdHlsZT0iZmlsbDpub25lOyIgZD0iTTAsOS4yN3YzMy4zN2MwLDMuNDIsNy40Niw2LjM3LDE3LjI1LDYuNTVoMC4zNyAgICAgIGM5Ljk3LTAuMTMsMTcuNjMtMy4xLDE3LjYzLTYuNTVWOC45N0wwLDkuMjd6Ii8+JiN4YTsJCQkJJiN4YTsJCQkJCTxwYXRoIGlkPSJwYXRoMTAwMjg5IiBpbmtzY2FwZTpjb25uZWN0b3ItY3VydmF0dXJlPSIwIiBzdHlsZT0iZmlsbDpub25lO3N0cm9rZTojNTU2QThBO3N0cm9rZS13aWR0aDoxLjU7c3Ryb2tlLW1pdGVybGltaXQ6MzsiIGQ9IiAgICAgIE0wLDkuMjd2MzMuMzdjMCwzLjQyLDcuNDYsNi4zNywxNy4yNSw2LjU1aDAuMzdjOS45Ny0wLjEzLDE3LjYzLTMuMSwxNy42My02LjU1VjguOTciLz4mI3hhOwkJCTwvZz4mI3hhOwkJCTxnIGlkPSJzaGFwZTM0OTgtMTAiIHRyYW5zZm9ybT0idHJhbnNsYXRlKDAuMDQ1LC0zMy40NjUpIj4mI3hhOwkJCQk8dGl0bGUgaWQ9InRpdGxlMTAwMjkyIj5wYXRoMTQ0ODwvdGl0bGU+JiN4YTsJCQkJPHBhdGggaWQ9InBhdGgxMDAyOTQiIGlua3NjYXBlOmNvbm5lY3Rvci1jdXJ2YXR1cmU9IjAiIHN0eWxlPSJmaWxsOiM1NUQyRjY7IiBkPSJNMzUuMjUsNDIuODJjMCwzLjUyLTcuODksNi4zNy0xNy42Myw2LjM3ICAgICAgQzcuODksNDkuMTksMCw0Ni4zNCwwLDQyLjgyYzAtMy41MSw4LjEyLTYuMzYsMTcuODYtNi4zNkMyNy41OSwzNi40NiwzNS4yNSwzOS4zMSwzNS4yNSw0Mi44MkwzNS4yNSw0Mi44MnoiLz4mI3hhOwkJCQkmI3hhOwkJCQkJPHBhdGggaWQ9InBhdGgxMDAyOTYiIGlua3NjYXBlOmNvbm5lY3Rvci1jdXJ2YXR1cmU9IjAiIHN0eWxlPSJmaWxsOm5vbmU7c3Ryb2tlOiM1NTZBOEE7c3Ryb2tlLXdpZHRoOjEuNTtzdHJva2UtbWl0ZXJsaW1pdDozOyIgZD0iICAgICAgTTM1LjI1LDQyLjgyYzAsMy41Mi03Ljg5LDYuMzctMTcuNjMsNi4zN0M3Ljg5LDQ5LjE5LDAsNDYuMzQsMCw0Mi44MmMwLTMuNTEsOC4xMi02LjM2LDE3Ljg2LTYuMzYgICAgICBDMjcuNTksMzYuNDYsMzUuMjUsMzkuMzEsMzUuMjUsNDIuODIiLz4mI3hhOwkJCTwvZz4mI3hhOwkJPC9nPiYjeGE7CTwvZz4mI3hhOzwvZz4mI3hhOzwvc3ZnPg==;rounded=1;dashed=1;strokeColor=#000000;fillColor=none;align=left;" vertex="1" parent="OJgl7TVdHv62F8Ia3TTO-1">
          <mxGeometry x="630" y="515.5" width="30.06" height="39" as="geometry" />
        </mxCell>
        <mxCell id="T-RTefuH7FngGLa8NjNm-15" value="" style="shape=image;verticalLabelPosition=bottom;labelBackgroundColor=#ffffff;verticalAlign=top;aspect=fixed;imageAspect=0;image=data:image/svg+xml,PHN2ZyB4bWxuczpjYz0iaHR0cDovL2NyZWF0aXZlY29tbW9ucy5vcmcvbnMjIiB4bWxuczpkYz0iaHR0cDovL3B1cmwub3JnL2RjL2VsZW1lbnRzLzEuMS8iIHhtbG5zOmlua3NjYXBlPSJodHRwOi8vd3d3Lmlua3NjYXBlLm9yZy9uYW1lc3BhY2VzL2lua3NjYXBlIiB4bWxuczpyZGY9Imh0dHA6Ly93d3cudzMub3JnLzE5OTkvMDIvMjItcmRmLXN5bnRheC1ucyMiIHhtbG5zOnNvZGlwb2RpPSJodHRwOi8vc29kaXBvZGkuc291cmNlZm9yZ2UubmV0L0RURC9zb2RpcG9kaS0wLmR0ZCIgeG1sbnM6c3ZnPSJodHRwOi8vd3d3LnczLm9yZy8yMDAwL3N2ZyIgeG1sbnM9Imh0dHA6Ly93d3cudzMub3JnLzIwMDAvc3ZnIiB4bWxuczp4bGluaz0iaHR0cDovL3d3dy53My5vcmcvMTk5OS94bGluayIgdmVyc2lvbj0iMS4xIiBpZD0ic3ZnMTAwMzAzIiBpbmtzY2FwZTp2ZXJzaW9uPSIwLjkyLjMgKDI0MDU1NDYsIDIwMTgtMDMtMTEpIiBzb2RpcG9kaTpkb2NuYW1lPSJnZW5lcmljX2RhdGFiYXNlX2JsdWUuc3ZnIiB4PSIwcHgiIHk9IjBweCIgdmlld0JveD0iMCAwIDM2Ljc5IDQ3LjY5IiBzdHlsZT0iZW5hYmxlLWJhY2tncm91bmQ6bmV3IDAgMCAzNi43OSA0Ny42OTsiIHhtbDpzcGFjZT0icHJlc2VydmUiPiYjeGE7PHNvZGlwb2RpOm5hbWVkdmlldyBib3JkZXJjb2xvcj0iIzY2NjY2NiIgYm9yZGVyb3BhY2l0eT0iMSIgZml0LW1hcmdpbi1ib3R0b209IjAiIGZpdC1tYXJnaW4tbGVmdD0iMCIgZml0LW1hcmdpbi1yaWdodD0iMCIgZml0LW1hcmdpbi10b3A9IjAiIGdyaWR0b2xlcmFuY2U9IjEwIiBndWlkZXRvbGVyYW5jZT0iMTAiIGlkPSJuYW1lZHZpZXcxMDAzMDUiIGlua3NjYXBlOmN1cnJlbnQtbGF5ZXI9InN2ZzEwMDMwMyIgaW5rc2NhcGU6Y3g9IjI0LjUzMDAwMSIgaW5rc2NhcGU6Y3k9IjMxLjc5MTY2OSIgaW5rc2NhcGU6cGFnZW9wYWNpdHk9IjAiIGlua3NjYXBlOnBhZ2VzaGFkb3c9IjIiIGlua3NjYXBlOndpbmRvdy1oZWlnaHQ9IjEwMTciIGlua3NjYXBlOndpbmRvdy1tYXhpbWl6ZWQ9IjEiIGlua3NjYXBlOndpbmRvdy13aWR0aD0iMTkyMCIgaW5rc2NhcGU6d2luZG93LXg9Ii04IiBpbmtzY2FwZTp3aW5kb3cteT0iLTgiIGlua3NjYXBlOnpvb209IjEzLjIxODQ4MSIgb2JqZWN0dG9sZXJhbmNlPSIxMCIgcGFnZWNvbG9yPSIjZmZmZmZmIiBzaG93Z3JpZD0iZmFsc2UiPiYjeGE7CTwvc29kaXBvZGk6bmFtZWR2aWV3PiYjeGE7PGcgaWQ9ImcxMDAzMDEiIHRyYW5zZm9ybT0idHJhbnNsYXRlKC0wLjc1LC0wLjc0NSkiPiYjeGE7CTx0aXRsZSBpZD0idGl0bGUxMDAyNjkiPlBhZ2UtMTwvdGl0bGU+JiN4YTsJPGcgaWQ9Imdyb3VwMzQ5My0xIiB0cmFuc2Zvcm09InRyYW5zbGF0ZSgxLjUsLTEuNSkiPiYjeGE7CQk8dGl0bGUgaWQ9InRpdGxlMTAwMjcxIj5HZW5lcmljIERhdGFiYXNlIChCbHVlKTwvdGl0bGU+JiN4YTsJCTxnIGlkPSJncm91cDM0OTQtMiI+JiN4YTsJCQk8dGl0bGUgaWQ9InRpdGxlMTAwMjczIj5nMTQ1MDwvdGl0bGU+JiN4YTsJCQk8ZyBpZD0ic2hhcGUzNDk1LTMiPiYjeGE7CQkJCTx0aXRsZSBpZD0idGl0bGUxMDAyNzUiPnBhdGgxNDQyPC90aXRsZT4mI3hhOwkJCQk8cGF0aCBpZD0icGF0aDEwMDI3NyIgaW5rc2NhcGU6Y29ubmVjdG9yLWN1cnZhdHVyZT0iMCIgc3R5bGU9ImZpbGw6I0ZGRkZGRjsiIGQ9Ik0zMS43OSw5TDIxLjQ0LDkuMDlMMCw5LjI3djMzLjM3ICAgICAgYzAsMy40Miw3LjUsNi4zNywxNy4yNSw2LjU1aDAuMzdjMS4zMiwwLDIuNi0wLjA3LDMuODItMC4xOWMzLjU3LTAuMjIsNy4wOC0xLjA3LDEwLjM1LTIuNTNjMi4xOS0xLjEsMy40Ni0yLjQ0LDMuNDYtMy44M1Y4Ljk3ICAgICAgTDMxLjc5LDl6Ii8+JiN4YTsJCQk8L2c+JiN4YTsJCQk8ZyBpZD0ic2hhcGUzNDk2LTUiIHRyYW5zZm9ybT0idHJhbnNsYXRlKDIxLjQ0MjUsLTAuMjEpIj4mI3hhOwkJCQk8dGl0bGUgaWQ9InRpdGxlMTAwMjgwIj5wYXRoMTQ0NDwvdGl0bGU+JiN4YTsJCQkJPHBhdGggaWQ9InBhdGgxMDAyODIiIGlua3NjYXBlOmNvbm5lY3Rvci1jdXJ2YXR1cmU9IjAiIHN0eWxlPSJmaWxsOiNFNUU1RTU7IiBkPSJNMTAuMzUsOS4yMXYzNy40NSAgICAgIEM3LjA4LDQ4LjEyLDMuNTcsNDguOTcsMCw0OS4xOVY5LjNMMTAuMzUsOS4yMXoiLz4mI3hhOwkJCTwvZz4mI3hhOwkJCTxnIGlkPSJzaGFwZTM0OTctNyI+JiN4YTsJCQkJPHRpdGxlIGlkPSJ0aXRsZTEwMDI4NSI+cGF0aDE0NDY8L3RpdGxlPiYjeGE7CQkJCTxwYXRoIGlkPSJwYXRoMTAwMjg3IiBpbmtzY2FwZTpjb25uZWN0b3ItY3VydmF0dXJlPSIwIiBzdHlsZT0iZmlsbDpub25lOyIgZD0iTTAsOS4yN3YzMy4zN2MwLDMuNDIsNy40Niw2LjM3LDE3LjI1LDYuNTVoMC4zNyAgICAgIGM5Ljk3LTAuMTMsMTcuNjMtMy4xLDE3LjYzLTYuNTVWOC45N0wwLDkuMjd6Ii8+JiN4YTsJCQkJJiN4YTsJCQkJCTxwYXRoIGlkPSJwYXRoMTAwMjg5IiBpbmtzY2FwZTpjb25uZWN0b3ItY3VydmF0dXJlPSIwIiBzdHlsZT0iZmlsbDpub25lO3N0cm9rZTojNTU2QThBO3N0cm9rZS13aWR0aDoxLjU7c3Ryb2tlLW1pdGVybGltaXQ6MzsiIGQ9IiAgICAgIE0wLDkuMjd2MzMuMzdjMCwzLjQyLDcuNDYsNi4zNywxNy4yNSw2LjU1aDAuMzdjOS45Ny0wLjEzLDE3LjYzLTMuMSwxNy42My02LjU1VjguOTciLz4mI3hhOwkJCTwvZz4mI3hhOwkJCTxnIGlkPSJzaGFwZTM0OTgtMTAiIHRyYW5zZm9ybT0idHJhbnNsYXRlKDAuMDQ1LC0zMy40NjUpIj4mI3hhOwkJCQk8dGl0bGUgaWQ9InRpdGxlMTAwMjkyIj5wYXRoMTQ0ODwvdGl0bGU+JiN4YTsJCQkJPHBhdGggaWQ9InBhdGgxMDAyOTQiIGlua3NjYXBlOmNvbm5lY3Rvci1jdXJ2YXR1cmU9IjAiIHN0eWxlPSJmaWxsOiM1NUQyRjY7IiBkPSJNMzUuMjUsNDIuODJjMCwzLjUyLTcuODksNi4zNy0xNy42Myw2LjM3ICAgICAgQzcuODksNDkuMTksMCw0Ni4zNCwwLDQyLjgyYzAtMy41MSw4LjEyLTYuMzYsMTcuODYtNi4zNkMyNy41OSwzNi40NiwzNS4yNSwzOS4zMSwzNS4yNSw0Mi44MkwzNS4yNSw0Mi44MnoiLz4mI3hhOwkJCQkmI3hhOwkJCQkJPHBhdGggaWQ9InBhdGgxMDAyOTYiIGlua3NjYXBlOmNvbm5lY3Rvci1jdXJ2YXR1cmU9IjAiIHN0eWxlPSJmaWxsOm5vbmU7c3Ryb2tlOiM1NTZBOEE7c3Ryb2tlLXdpZHRoOjEuNTtzdHJva2UtbWl0ZXJsaW1pdDozOyIgZD0iICAgICAgTTM1LjI1LDQyLjgyYzAsMy41Mi03Ljg5LDYuMzctMTcuNjMsNi4zN0M3Ljg5LDQ5LjE5LDAsNDYuMzQsMCw0Mi44MmMwLTMuNTEsOC4xMi02LjM2LDE3Ljg2LTYuMzYgICAgICBDMjcuNTksMzYuNDYsMzUuMjUsMzkuMzEsMzUuMjUsNDIuODIiLz4mI3hhOwkJCTwvZz4mI3hhOwkJPC9nPiYjeGE7CTwvZz4mI3hhOzwvZz4mI3hhOzwvc3ZnPg==;rounded=1;dashed=1;strokeColor=#000000;fillColor=none;align=left;" vertex="1" parent="OJgl7TVdHv62F8Ia3TTO-1">
          <mxGeometry x="690" y="515.5" width="30.06" height="39" as="geometry" />
        </mxCell>
        <mxCell id="T-RTefuH7FngGLa8NjNm-16" value="" style="shape=image;verticalLabelPosition=bottom;labelBackgroundColor=#ffffff;verticalAlign=top;aspect=fixed;imageAspect=0;image=data:image/svg+xml,PHN2ZyB4bWxuczpjYz0iaHR0cDovL2NyZWF0aXZlY29tbW9ucy5vcmcvbnMjIiB4bWxuczpkYz0iaHR0cDovL3B1cmwub3JnL2RjL2VsZW1lbnRzLzEuMS8iIHhtbG5zOmlua3NjYXBlPSJodHRwOi8vd3d3Lmlua3NjYXBlLm9yZy9uYW1lc3BhY2VzL2lua3NjYXBlIiB4bWxuczpyZGY9Imh0dHA6Ly93d3cudzMub3JnLzE5OTkvMDIvMjItcmRmLXN5bnRheC1ucyMiIHhtbG5zOnNvZGlwb2RpPSJodHRwOi8vc29kaXBvZGkuc291cmNlZm9yZ2UubmV0L0RURC9zb2RpcG9kaS0wLmR0ZCIgeG1sbnM6c3ZnPSJodHRwOi8vd3d3LnczLm9yZy8yMDAwL3N2ZyIgeG1sbnM9Imh0dHA6Ly93d3cudzMub3JnLzIwMDAvc3ZnIiB4bWxuczp4bGluaz0iaHR0cDovL3d3dy53My5vcmcvMTk5OS94bGluayIgdmVyc2lvbj0iMS4xIiBpZD0ic3ZnMTAwMzAzIiBpbmtzY2FwZTp2ZXJzaW9uPSIwLjkyLjMgKDI0MDU1NDYsIDIwMTgtMDMtMTEpIiBzb2RpcG9kaTpkb2NuYW1lPSJnZW5lcmljX2RhdGFiYXNlX2JsdWUuc3ZnIiB4PSIwcHgiIHk9IjBweCIgdmlld0JveD0iMCAwIDM2Ljc5IDQ3LjY5IiBzdHlsZT0iZW5hYmxlLWJhY2tncm91bmQ6bmV3IDAgMCAzNi43OSA0Ny42OTsiIHhtbDpzcGFjZT0icHJlc2VydmUiPiYjeGE7PHNvZGlwb2RpOm5hbWVkdmlldyBib3JkZXJjb2xvcj0iIzY2NjY2NiIgYm9yZGVyb3BhY2l0eT0iMSIgZml0LW1hcmdpbi1ib3R0b209IjAiIGZpdC1tYXJnaW4tbGVmdD0iMCIgZml0LW1hcmdpbi1yaWdodD0iMCIgZml0LW1hcmdpbi10b3A9IjAiIGdyaWR0b2xlcmFuY2U9IjEwIiBndWlkZXRvbGVyYW5jZT0iMTAiIGlkPSJuYW1lZHZpZXcxMDAzMDUiIGlua3NjYXBlOmN1cnJlbnQtbGF5ZXI9InN2ZzEwMDMwMyIgaW5rc2NhcGU6Y3g9IjI0LjUzMDAwMSIgaW5rc2NhcGU6Y3k9IjMxLjc5MTY2OSIgaW5rc2NhcGU6cGFnZW9wYWNpdHk9IjAiIGlua3NjYXBlOnBhZ2VzaGFkb3c9IjIiIGlua3NjYXBlOndpbmRvdy1oZWlnaHQ9IjEwMTciIGlua3NjYXBlOndpbmRvdy1tYXhpbWl6ZWQ9IjEiIGlua3NjYXBlOndpbmRvdy13aWR0aD0iMTkyMCIgaW5rc2NhcGU6d2luZG93LXg9Ii04IiBpbmtzY2FwZTp3aW5kb3cteT0iLTgiIGlua3NjYXBlOnpvb209IjEzLjIxODQ4MSIgb2JqZWN0dG9sZXJhbmNlPSIxMCIgcGFnZWNvbG9yPSIjZmZmZmZmIiBzaG93Z3JpZD0iZmFsc2UiPiYjeGE7CTwvc29kaXBvZGk6bmFtZWR2aWV3PiYjeGE7PGcgaWQ9ImcxMDAzMDEiIHRyYW5zZm9ybT0idHJhbnNsYXRlKC0wLjc1LC0wLjc0NSkiPiYjeGE7CTx0aXRsZSBpZD0idGl0bGUxMDAyNjkiPlBhZ2UtMTwvdGl0bGU+JiN4YTsJPGcgaWQ9Imdyb3VwMzQ5My0xIiB0cmFuc2Zvcm09InRyYW5zbGF0ZSgxLjUsLTEuNSkiPiYjeGE7CQk8dGl0bGUgaWQ9InRpdGxlMTAwMjcxIj5HZW5lcmljIERhdGFiYXNlIChCbHVlKTwvdGl0bGU+JiN4YTsJCTxnIGlkPSJncm91cDM0OTQtMiI+JiN4YTsJCQk8dGl0bGUgaWQ9InRpdGxlMTAwMjczIj5nMTQ1MDwvdGl0bGU+JiN4YTsJCQk8ZyBpZD0ic2hhcGUzNDk1LTMiPiYjeGE7CQkJCTx0aXRsZSBpZD0idGl0bGUxMDAyNzUiPnBhdGgxNDQyPC90aXRsZT4mI3hhOwkJCQk8cGF0aCBpZD0icGF0aDEwMDI3NyIgaW5rc2NhcGU6Y29ubmVjdG9yLWN1cnZhdHVyZT0iMCIgc3R5bGU9ImZpbGw6I0ZGRkZGRjsiIGQ9Ik0zMS43OSw5TDIxLjQ0LDkuMDlMMCw5LjI3djMzLjM3ICAgICAgYzAsMy40Miw3LjUsNi4zNywxNy4yNSw2LjU1aDAuMzdjMS4zMiwwLDIuNi0wLjA3LDMuODItMC4xOWMzLjU3LTAuMjIsNy4wOC0xLjA3LDEwLjM1LTIuNTNjMi4xOS0xLjEsMy40Ni0yLjQ0LDMuNDYtMy44M1Y4Ljk3ICAgICAgTDMxLjc5LDl6Ii8+JiN4YTsJCQk8L2c+JiN4YTsJCQk8ZyBpZD0ic2hhcGUzNDk2LTUiIHRyYW5zZm9ybT0idHJhbnNsYXRlKDIxLjQ0MjUsLTAuMjEpIj4mI3hhOwkJCQk8dGl0bGUgaWQ9InRpdGxlMTAwMjgwIj5wYXRoMTQ0NDwvdGl0bGU+JiN4YTsJCQkJPHBhdGggaWQ9InBhdGgxMDAyODIiIGlua3NjYXBlOmNvbm5lY3Rvci1jdXJ2YXR1cmU9IjAiIHN0eWxlPSJmaWxsOiNFNUU1RTU7IiBkPSJNMTAuMzUsOS4yMXYzNy40NSAgICAgIEM3LjA4LDQ4LjEyLDMuNTcsNDguOTcsMCw0OS4xOVY5LjNMMTAuMzUsOS4yMXoiLz4mI3hhOwkJCTwvZz4mI3hhOwkJCTxnIGlkPSJzaGFwZTM0OTctNyI+JiN4YTsJCQkJPHRpdGxlIGlkPSJ0aXRsZTEwMDI4NSI+cGF0aDE0NDY8L3RpdGxlPiYjeGE7CQkJCTxwYXRoIGlkPSJwYXRoMTAwMjg3IiBpbmtzY2FwZTpjb25uZWN0b3ItY3VydmF0dXJlPSIwIiBzdHlsZT0iZmlsbDpub25lOyIgZD0iTTAsOS4yN3YzMy4zN2MwLDMuNDIsNy40Niw2LjM3LDE3LjI1LDYuNTVoMC4zNyAgICAgIGM5Ljk3LTAuMTMsMTcuNjMtMy4xLDE3LjYzLTYuNTVWOC45N0wwLDkuMjd6Ii8+JiN4YTsJCQkJJiN4YTsJCQkJCTxwYXRoIGlkPSJwYXRoMTAwMjg5IiBpbmtzY2FwZTpjb25uZWN0b3ItY3VydmF0dXJlPSIwIiBzdHlsZT0iZmlsbDpub25lO3N0cm9rZTojNTU2QThBO3N0cm9rZS13aWR0aDoxLjU7c3Ryb2tlLW1pdGVybGltaXQ6MzsiIGQ9IiAgICAgIE0wLDkuMjd2MzMuMzdjMCwzLjQyLDcuNDYsNi4zNywxNy4yNSw2LjU1aDAuMzdjOS45Ny0wLjEzLDE3LjYzLTMuMSwxNy42My02LjU1VjguOTciLz4mI3hhOwkJCTwvZz4mI3hhOwkJCTxnIGlkPSJzaGFwZTM0OTgtMTAiIHRyYW5zZm9ybT0idHJhbnNsYXRlKDAuMDQ1LC0zMy40NjUpIj4mI3hhOwkJCQk8dGl0bGUgaWQ9InRpdGxlMTAwMjkyIj5wYXRoMTQ0ODwvdGl0bGU+JiN4YTsJCQkJPHBhdGggaWQ9InBhdGgxMDAyOTQiIGlua3NjYXBlOmNvbm5lY3Rvci1jdXJ2YXR1cmU9IjAiIHN0eWxlPSJmaWxsOiM1NUQyRjY7IiBkPSJNMzUuMjUsNDIuODJjMCwzLjUyLTcuODksNi4zNy0xNy42Myw2LjM3ICAgICAgQzcuODksNDkuMTksMCw0Ni4zNCwwLDQyLjgyYzAtMy41MSw4LjEyLTYuMzYsMTcuODYtNi4zNkMyNy41OSwzNi40NiwzNS4yNSwzOS4zMSwzNS4yNSw0Mi44MkwzNS4yNSw0Mi44MnoiLz4mI3hhOwkJCQkmI3hhOwkJCQkJPHBhdGggaWQ9InBhdGgxMDAyOTYiIGlua3NjYXBlOmNvbm5lY3Rvci1jdXJ2YXR1cmU9IjAiIHN0eWxlPSJmaWxsOm5vbmU7c3Ryb2tlOiM1NTZBOEE7c3Ryb2tlLXdpZHRoOjEuNTtzdHJva2UtbWl0ZXJsaW1pdDozOyIgZD0iICAgICAgTTM1LjI1LDQyLjgyYzAsMy41Mi03Ljg5LDYuMzctMTcuNjMsNi4zN0M3Ljg5LDQ5LjE5LDAsNDYuMzQsMCw0Mi44MmMwLTMuNTEsOC4xMi02LjM2LDE3Ljg2LTYuMzYgICAgICBDMjcuNTksMzYuNDYsMzUuMjUsMzkuMzEsMzUuMjUsNDIuODIiLz4mI3hhOwkJCTwvZz4mI3hhOwkJPC9nPiYjeGE7CTwvZz4mI3hhOzwvZz4mI3hhOzwvc3ZnPg==;rounded=1;dashed=1;strokeColor=#000000;fillColor=none;align=left;" vertex="1" parent="OJgl7TVdHv62F8Ia3TTO-1">
          <mxGeometry x="740" y="515.5" width="30.06" height="39" as="geometry" />
        </mxCell>
        <mxCell id="T-RTefuH7FngGLa8NjNm-31" value="" style="html=1;shadow=0;dashed=0;align=center;verticalAlign=middle;shape=mxgraph.arrows2.arrow;dy=0.62;dx=16.59;direction=south;notch=0;rounded=1;strokeColor=#6c8ebf;fillColor=#dae8fc;" vertex="1" parent="OJgl7TVdHv62F8Ia3TTO-1">
          <mxGeometry x="245.03" y="470" width="20" height="45.5" as="geometry" />
        </mxCell>
        <mxCell id="T-RTefuH7FngGLa8NjNm-32" value="" style="html=1;shadow=0;dashed=0;align=center;verticalAlign=middle;shape=mxgraph.arrows2.arrow;dy=0.62;dx=16.59;direction=south;notch=0;rounded=1;strokeColor=#6c8ebf;fillColor=#dae8fc;" vertex="1" parent="OJgl7TVdHv62F8Ia3TTO-1">
          <mxGeometry x="320" y="470" width="20" height="45.5" as="geometry" />
        </mxCell>
        <mxCell id="T-RTefuH7FngGLa8NjNm-33" value="" style="html=1;shadow=0;dashed=0;align=center;verticalAlign=middle;shape=mxgraph.arrows2.arrow;dy=0.62;dx=16.59;direction=south;notch=0;rounded=1;strokeColor=#6c8ebf;fillColor=#dae8fc;" vertex="1" parent="OJgl7TVdHv62F8Ia3TTO-1">
          <mxGeometry x="400" y="470" width="20" height="45.5" as="geometry" />
        </mxCell>
        <mxCell id="T-RTefuH7FngGLa8NjNm-42" value="" style="html=1;shadow=0;dashed=0;align=center;verticalAlign=middle;shape=mxgraph.arrows2.arrow;dy=0.62;dx=16.59;direction=south;notch=0;rounded=1;strokeColor=#6c8ebf;fillColor=#dae8fc;" vertex="1" parent="OJgl7TVdHv62F8Ia3TTO-1">
          <mxGeometry x="770.06" y="470" width="20" height="45.5" as="geometry" />
        </mxCell>
        <mxCell id="T-RTefuH7FngGLa8NjNm-43" value="" style="html=1;shadow=0;dashed=0;align=center;verticalAlign=middle;shape=mxgraph.arrows2.arrow;dy=0.62;dx=16.59;direction=south;notch=0;rounded=1;strokeColor=#6c8ebf;fillColor=#dae8fc;" vertex="1" parent="OJgl7TVdHv62F8Ia3TTO-1">
          <mxGeometry x="690" y="470" width="20" height="45.5" as="geometry" />
        </mxCell>
        <mxCell id="T-RTefuH7FngGLa8NjNm-44" value="&lt;font color=&quot;#262626&quot;&gt;&lt;span style=&quot;letter-spacing: 0.05px&quot;&gt;领域数据&lt;/span&gt;&lt;/font&gt;" style="whiteSpace=wrap;html=1;align=center;verticalAlign=middle;rounded=1;arcSize=7;fontSize=9;spacingTop=0;fillColor=#f5f5f5;strokeColor=#666666;fontColor=#333333;" vertex="1" parent="OJgl7TVdHv62F8Ia3TTO-1">
          <mxGeometry x="315.06" y="240" width="75" height="30" as="geometry" />
        </mxCell>
        <mxCell id="T-RTefuH7FngGLa8NjNm-54" value="&lt;font color=&quot;#262626&quot;&gt;&lt;span style=&quot;letter-spacing: 0.05px&quot;&gt;生命周期维护&lt;/span&gt;&lt;/font&gt;" style="whiteSpace=wrap;html=1;align=center;verticalAlign=middle;rounded=1;arcSize=7;fontSize=9;spacingTop=0;fillColor=#f5f5f5;strokeColor=#666666;fontColor=#333333;" vertex="1" parent="OJgl7TVdHv62F8Ia3TTO-1">
          <mxGeometry x="400" y="240" width="75" height="30" as="geometry" />
        </mxCell>
        <mxCell id="T-RTefuH7FngGLa8NjNm-57" value="&lt;font color=&quot;#262626&quot;&gt;&lt;span style=&quot;letter-spacing: 0.05px&quot;&gt;业务约束&lt;/span&gt;&lt;/font&gt;" style="whiteSpace=wrap;html=1;align=center;verticalAlign=middle;rounded=1;arcSize=7;fontSize=9;spacingTop=0;fillColor=#f5f5f5;strokeColor=#666666;fontColor=#333333;" vertex="1" parent="OJgl7TVdHv62F8Ia3TTO-1">
          <mxGeometry x="315.06" y="291" width="75" height="30" as="geometry" />
        </mxCell>
      </root>
    </mxGraphModel>
  </diagram>
  <diagram id="vi_s5vD84stUeeCYNT2P" name="metadata">
    <mxGraphModel dx="946" dy="623" grid="1" gridSize="10" guides="1" tooltips="1" connect="1" arrows="1" fold="1" page="1" pageScale="1" pageWidth="827" pageHeight="1169" math="0" shadow="0">
      <root>
        <mxCell id="xoTi9fuggT8uE5LKsVuU-0" />
        <mxCell id="xoTi9fuggT8uE5LKsVuU-1" parent="xoTi9fuggT8uE5LKsVuU-0" />
        <mxCell id="wTU4NtT_mkEPymzTR1yD-10" value="代码" style="whiteSpace=wrap;html=1;align=left;verticalAlign=top;rounded=1;fillColor=none;dashed=1;arcSize=3;" vertex="1" parent="xoTi9fuggT8uE5LKsVuU-1">
          <mxGeometry x="260" y="460" width="200" height="65" as="geometry" />
        </mxCell>
        <mxCell id="xoTi9fuggT8uE5LKsVuU-2" value="" style="shape=image;verticalLabelPosition=bottom;labelBackgroundColor=#ffffff;verticalAlign=top;aspect=fixed;imageAspect=0;image=data:image/svg+xml,PHN2ZyB4bWxuczpjYz0iaHR0cDovL2NyZWF0aXZlY29tbW9ucy5vcmcvbnMjIiB4bWxuczpkYz0iaHR0cDovL3B1cmwub3JnL2RjL2VsZW1lbnRzLzEuMS8iIHhtbG5zOmlua3NjYXBlPSJodHRwOi8vd3d3Lmlua3NjYXBlLm9yZy9uYW1lc3BhY2VzL2lua3NjYXBlIiB4bWxuczpyZGY9Imh0dHA6Ly93d3cudzMub3JnLzE5OTkvMDIvMjItcmRmLXN5bnRheC1ucyMiIHhtbG5zOnNvZGlwb2RpPSJodHRwOi8vc29kaXBvZGkuc291cmNlZm9yZ2UubmV0L0RURC9zb2RpcG9kaS0wLmR0ZCIgeG1sbnM6c3ZnPSJodHRwOi8vd3d3LnczLm9yZy8yMDAwL3N2ZyIgeG1sbnM9Imh0dHA6Ly93d3cudzMub3JnLzIwMDAvc3ZnIiB4bWxuczp4bGluaz0iaHR0cDovL3d3dy53My5vcmcvMTk5OS94bGluayIgdmVyc2lvbj0iMS4xIiBpZD0ic3ZnMTUwMTk3IiBpbmtzY2FwZTp2ZXJzaW9uPSIwLjkyLjMgKDI0MDU1NDYsIDIwMTgtMDMtMTEpIiBzb2RpcG9kaTpkb2NuYW1lPSJkZXZlbG9wZXJfMS5zdmciIHg9IjBweCIgeT0iMHB4IiB2aWV3Qm94PSIwIDAgMTM0LjQgODkuNzkiIHN0eWxlPSJlbmFibGUtYmFja2dyb3VuZDpuZXcgMCAwIDEzNC40IDg5Ljc5OyIgeG1sOnNwYWNlPSJwcmVzZXJ2ZSI+JiN4YTs8c29kaXBvZGk6bmFtZWR2aWV3IGJvcmRlcmNvbG9yPSIjNjY2NjY2IiBib3JkZXJvcGFjaXR5PSIxIiBmaXQtbWFyZ2luLWJvdHRvbT0iMCIgZml0LW1hcmdpbi1sZWZ0PSIwIiBmaXQtbWFyZ2luLXJpZ2h0PSIwIiBmaXQtbWFyZ2luLXRvcD0iMCIgZ3JpZHRvbGVyYW5jZT0iMTAiIGd1aWRldG9sZXJhbmNlPSIxMCIgaWQ9Im5hbWVkdmlldzE1MDE5OSIgaW5rc2NhcGU6Y3VycmVudC1sYXllcj0ic3ZnMTUwMTk3IiBpbmtzY2FwZTpjeD0iODkuNTk4MzE2IiBpbmtzY2FwZTpjeT0iNTkuMzI5NTMzIiBpbmtzY2FwZTpwYWdlb3BhY2l0eT0iMCIgaW5rc2NhcGU6cGFnZXNoYWRvdz0iMiIgaW5rc2NhcGU6d2luZG93LWhlaWdodD0iMTAxNyIgaW5rc2NhcGU6d2luZG93LW1heGltaXplZD0iMSIgaW5rc2NhcGU6d2luZG93LXdpZHRoPSIxOTIwIiBpbmtzY2FwZTp3aW5kb3cteD0iLTgiIGlua3NjYXBlOndpbmRvdy15PSItOCIgaW5rc2NhcGU6em9vbT0iNy4wODk5NTA1IiBvYmplY3R0b2xlcmFuY2U9IjEwIiBwYWdlY29sb3I9IiNmZmZmZmYiIHNob3dncmlkPSJmYWxzZSI+JiN4YTsJPC9zb2RpcG9kaTpuYW1lZHZpZXc+JiN4YTs8ZyBpZD0iZzE1MDE5NSIgdHJhbnNmb3JtPSJ0cmFuc2xhdGUoLTEuMzYxNDY5MiwtMC41NjgzKSI+JiN4YTsJPHRpdGxlIGlkPSJ0aXRsZTE1MDAyMCI+UGFnZS0xPC90aXRsZT4mI3hhOwk8ZyBpZD0iZ3JvdXAzODctMSIgdHJhbnNmb3JtPSJ0cmFuc2xhdGUoMS4yNTg1NiwtMS4zNikiPiYjeGE7CQk8dGl0bGUgaWQ9InRpdGxlMTUwMDIyIj5EZXZlbG9wZXIgIzE8L3RpdGxlPiYjeGE7CQk8ZyBpZD0ic2hhcGUzODgtMiIgdHJhbnNmb3JtPSJtYXRyaXgoMSwwLDAsLTEsNjEuOTc3NywxMzEuNjkyKSI+JiN4YTsJCQk8dGl0bGUgaWQ9InRpdGxlMTUwMDI0Ij5wYXRoMjA2LTA8L3RpdGxlPiYjeGE7CQkJPHBhdGggaWQ9InBhdGgxNTAwMjYiIGlua3NjYXBlOmNvbm5lY3Rvci1jdXJ2YXR1cmU9IjAiIHN0eWxlPSJmaWxsOiMwMDcxQkM7IiBkPSJNNTIuMiw1MS4zOWMwLTIuNi0zLjIyLTQuNy03LjE5LTQuN0g3LjE5ICAgICBjLTMuOTcsMC03LjE5LDIuMS03LjE5LDQuN3YzNS42MmMwLDIuNiwzLjIyLDQuNyw3LjE5LDQuN2gzNy44MmMzLjk3LDAsNy4xOS0yLjEsNy4xOS00LjdMNTIuMiw1MS4zOXoiLz4mI3hhOwkJPC9nPiYjeGE7CQk8ZyBpZD0ic2hhcGUzODktNCIgdHJhbnNmb3JtPSJ0cmFuc2xhdGUoODMuMjY2MywtMzguMTQxMykiPiYjeGE7CQkJPHRpdGxlIGlkPSJ0aXRsZTE1MDAyOSI+cGF0aDIxMC00PC90aXRsZT4mI3hhOwkJCTxwYXRoIGlkPSJwYXRoMTUwMDMxIiBpbmtzY2FwZTpjb25uZWN0b3ItY3VydmF0dXJlPSIwIiBzdHlsZT0iZmlsbDojRTVFNUU1OyIgZD0iTTkuNjIsOTEuNzFIMHYtNS45Nmg5LjYyVjkxLjcxeiIvPiYjeGE7CQk8L2c+JiN4YTsJCTxnIGlkPSJzaGFwZTM5MC02IiB0cmFuc2Zvcm09Im1hdHJpeCgxLDAsMCwtMSw4Ny44Njg0LDE0MS42KSI+JiN4YTsJCQk8dGl0bGUgaWQ9InRpdGxlMTUwMDM0Ij5wYXRoMjE0LTk8L3RpdGxlPiYjeGE7CQkJPHBhdGggaWQ9InBhdGgxNTAwMzYiIGlua3NjYXBlOmNvbm5lY3Rvci1jdXJ2YXR1cmU9IjAiIHN0eWxlPSJmaWxsOm5vbmU7IiBkPSJNMCw5MS43MXYtMi42OFY5MS43MXoiLz4mI3hhOwkJCSYjeGE7CQkJCTxwYXRoIGlkPSJwYXRoMTUwMDM4IiBpbmtzY2FwZTpjb25uZWN0b3ItY3VydmF0dXJlPSIwIiBzdHlsZT0iZmlsbDpub25lO3N0cm9rZTojQjJCMkIyO3N0cm9rZS13aWR0aDoyLjA2MDY7c3Ryb2tlLW1pdGVybGltaXQ6MzsiIGQ9IiAgICAgTTAsOTEuNzF2LTIuNjgiLz4mI3hhOwkJPC9nPiYjeGE7CQk8ZyBpZD0ic2hhcGUzOTEtOSIgdHJhbnNmb3JtPSJtYXRyaXgoMSwwLDAsLTEsNDkuMTA0NywxMzcuMzIxKSI+JiN4YTsJCQk8dGl0bGUgaWQ9InRpdGxlMTUwMDQxIj5wYXRoMjE4LTI8L3RpdGxlPiYjeGE7CQkJPHBhdGggaWQ9InBhdGgxNTAwNDMiIGlua3NjYXBlOmNvbm5lY3Rvci1jdXJ2YXR1cmU9IjAiIHN0eWxlPSJmaWxsOiMzOUI1NEE7IiBkPSJNNzMuNCw2MS4wNGMtNC4xMiw4LjI1LTEyLjksMjYuNDgtMTQuNTcsMjcuODggICAgIGMtMS42NiwxLjQtMTAuNDQsMi43OS0xNS40NiwyLjc5YzAsMCwwLjk0LTYuMTgtNC42MS02LjE4Yy01LjU0LDAtNC42LDYuMTgtNC42LDYuMThjLTUuMDIsMC0xMy44LTEuMzktMTUuNDYtMi43OSAgICAgYy0xLjY3LTEuNC0xMC40NS0xOS42My0xNC41OC0yNy44OEMwLDUyLjc5LDUuMjYsNTIuMTksNS4yNiw1Mi4xOWgxNC40M3Y2LjkyYy0yLjEzLDAuNzMtNi43MiwxLjYtNi43MiwxLjYgICAgIGMxLjQsMy4zOSw5LjUyLDE4Ljg5LDkuNTIsMTguODlsMC44Ni0yNi42OGgxNS40MWgxNS40MWwwLjg3LDI2LjY4YzAsMCw4LjEyLTE1LjUsOS41MS0xOC44OWMwLDAtNC41OS0wLjg3LTYuNzItMS42di02LjkyICAgICBoMTQuNDRDNzIuMjcsNTIuMTksNzcuNTMsNTIuNzksNzMuNCw2MS4wNHoiLz4mI3hhOwkJPC9nPiYjeGE7CQk8ZyBpZD0ic2hhcGUzOTItMTEiIHRyYW5zZm9ybT0ibWF0cml4KDEsMCwwLC0xLDgzLjI2NjMsMTI4LjA5MykiPiYjeGE7CQkJPHRpdGxlIGlkPSJ0aXRsZTE1MDA0NiI+cGF0aDIyMi03PC90aXRsZT4mI3hhOwkJCTxwYXRoIGlkPSJwYXRoMTUwMDQ4IiBpbmtzY2FwZTpjb25uZWN0b3ItY3VydmF0dXJlPSIwIiBzdHlsZT0iZmlsbDojRkZEQUEyOyIgZD0iTTkuMiw4MC41NmMwLDAtMC42NS0yLjM1LTQuNi0yLjM1ICAgICBTMCw4MC41NiwwLDgwLjU2djExLjE1aDkuMlY4MC41NnoiLz4mI3hhOwkJPC9nPiYjeGE7CQk8ZyBpZD0ic2hhcGUzOTMtMTMiIHRyYW5zZm9ybT0ibWF0cml4KDEsMCwwLC0xLDc1LjExOTgsMTA1LjIwOCkiPiYjeGE7CQkJPHRpdGxlIGlkPSJ0aXRsZTE1MDA1MSI+cGF0aDIyNi05PC90aXRsZT4mI3hhOwkJCTxwYXRoIGlkPSJwYXRoMTUwMDUzIiBpbmtzY2FwZTpjb25uZWN0b3ItY3VydmF0dXJlPSIwIiBzdHlsZT0iZmlsbDojRkZEQUEyOyIgZD0iTTEyLjc1LDg4LjI4Yy04LjgxLDMuNDMtMTIuNzUsMC0xMi43NSwwICAgICBzMC42OC0xMi4xMSwxLTE0LjU2YzAuNzUtNS44Miw4LjMxLTkuNjksMTEuNzUtOS42OXMxMSwzLjg3LDExLjc1LDkuNjljMC4zMSwyLjQ1LDEsMTQuNTYsMSwxNC41NlMyMS41Niw5MS43MSwxMi43NSw4OC4yOHoiLz4mI3hhOwkJPC9nPiYjeGE7CQk8ZyBpZD0ic2hhcGUzOTQtMTUiIHRyYW5zZm9ybT0ibWF0cml4KDEsMCwwLC0xLDcwLjc0NTEsMTEzLjE5MSkiPiYjeGE7CQkJPHRpdGxlIGlkPSJ0aXRsZTE1MDA1NiI+cGF0aDIzMC01PC90aXRsZT4mI3hhOwkJCTxwYXRoIGlkPSJwYXRoMTUwMDU4IiBpbmtzY2FwZTpjb25uZWN0b3ItY3VydmF0dXJlPSIwIiBzdHlsZT0iZmlsbDojRjdEMTk3OyIgZD0iTTQuNzgsODkuNWMwLDAtMi4yNCwyLjIxLTMuMDMsMC44OSAgICAgQzAsODcuNDUsMy4wNiw4Ni4zNSwzLjI3LDgzLjU3YzAuMTQtMS45OCwxLjQ4LTEuOTcsMi4wMS0wLjk4QzUuODEsODMuNTcsNS41OSw4OC44Myw0Ljc4LDg5LjV6Ii8+JiN4YTsJCTwvZz4mI3hhOwkJPGcgaWQ9InNoYXBlMzk1LTE3IiB0cmFuc2Zvcm09Im1hdHJpeCgxLDAsMCwtMSw5OS4xNzk1LDExMy4xOTEpIj4mI3hhOwkJCTx0aXRsZSBpZD0idGl0bGUxNTAwNjEiPnBhdGgyMzQtMDwvdGl0bGU+JiN4YTsJCQk8cGF0aCBpZD0icGF0aDE1MDA2MyIgaW5rc2NhcGU6Y29ubmVjdG9yLWN1cnZhdHVyZT0iMCIgc3R5bGU9ImZpbGw6I0Y3RDE5NzsiIGQ9Ik0xLjAzLDg5LjVjMCwwLDIuMjQsMi4yMSwzLjAzLDAuODkgICAgIGMxLjc1LTIuOTQtMS4zMS00LjA0LTEuNTEtNi44MmMtMC4xNS0xLjk4LTEuNDktMS45Ny0yLjAyLTAuOThDMCw4My41NywwLjIyLDg4LjgzLDEuMDMsODkuNXoiLz4mI3hhOwkJPC9nPiYjeGE7CQk8ZyBpZD0ic2hhcGUzOTYtMTkiIHRyYW5zZm9ybT0ibWF0cml4KDEsMCwwLC0xLDc0Ljg3NzcsMTE5LjE4OCkiPiYjeGE7CQkJPHRpdGxlIGlkPSJ0aXRsZTE1MDA2NiI+cGF0aDIzOC04PC90aXRsZT4mI3hhOwkJCTxwYXRoIGlkPSJwYXRoMTUwMDY4IiBpbmtzY2FwZTpjb25uZWN0b3ItY3VydmF0dXJlPSIwIiBkPSJNMTIuOTksODIuMzhjLTIuNjQsMC00LDAuNzQtNCwxLjg0czEuNjEsMC40NSw0LDAuNDVzNCwwLjY1LDQtMC40NSAgICAgUzE1LjYzLDgyLjM4LDEyLjk5LDgyLjM4eiBNMjUuMjcsOTEuNzFoLTAuNDljMCwwLDAuNjMtNS4xNC0xMS43OS01LjE0UzEuMjEsOTEuNzEsMS4yMSw5MS43MWgtMC41YzAsMC0wLjcxLTUuODEsMS42NC05LjEzICAgICBjMy4yNS00LjU3LDEwLjY0LTQuNTcsMTAuNjQtNC41N3M3LjM5LDAsMTAuNjQsNC41N0MyNS45OCw4NS45LDI1LjI3LDkxLjcxLDI1LjI3LDkxLjcxeiIvPiYjeGE7CQk8L2c+JiN4YTsJCTxnIGlkPSJzaGFwZTM5Ny0yMSIgdHJhbnNmb3JtPSJtYXRyaXgoMSwwLDAsLTEsNjcuMzUxMSw5My42MzgzKSI+JiN4YTsJCQk8dGl0bGUgaWQ9InRpdGxlMTUwMDcxIj5wYXRoMjQyLTE8L3RpdGxlPiYjeGE7CQkJPHBhdGggaWQ9InBhdGgxNTAwNzMiIGlua3NjYXBlOmNvbm5lY3Rvci1jdXJ2YXR1cmU9IjAiIGQ9Ik0zMi44LDY2LjE3YzAsMC0wLjUyLDMuNjcsMS4yNSw0LjdjMCwwLDMuMTMsMTAuNDIsMC40MywxMy4xNiAgICAgYy0yLjY5LDIuNzQtNi41NCw0LjQ5LTkuNzgsNC44NHMtNi44NCwxLTguNTMsMi44NGMwLDAsMC44NS0yLjM0LDEuOTktMi40OWMwLDAtNy41My0xLjM1LTEyLjM3LDAuM2MwLDAsMS4zNS0zLjY0LDQuMzktNC4yOSAgICAgYzAsMC02LjM5LTEuNS0xMC4xOC0wLjI1YzAsMCwzLjAxLTYuMTYsNy43Ny04LjI3YzAsMCwzLjYxLDEuNjMsNS4zNSwwLjkzYzAsMCwwLjM1LTEtMS4xOS0xLjY0YzAsMCw0LjI0LDAuMTUsNi4wOCwxLjA0ICAgICBjMCwwLDAuMTUtMC42OSwwLjA1LTEuMzRjMCwwLDQuODQsMS4wNyw3LjM0LDIuMzVjMCwwLDIuMDktMS41NiwxLjQtMi4yYzAsMCw1LjA0LTAuMiw2LjEsMC42OSAgICAgQzMyLjksNzYuNTQsMzIuMzIsNjcuNTEsMzIuOCw2Ni4xN3oiLz4mI3hhOwkJPC9nPiYjeGE7CQk8ZyBpZD0ic2hhcGUzOTgtMjMiIHRyYW5zZm9ybT0ibWF0cml4KDEsMCwwLC0xLDcyLjM5MDksMTA2LjQxMykiPiYjeGE7CQkJPHRpdGxlIGlkPSJ0aXRsZTE1MDA3NiI+cGF0aDI0NjwvdGl0bGU+JiN4YTsJCQk8cGF0aCBpZD0icGF0aDE1MDA3OCIgaW5rc2NhcGU6Y29ubmVjdG9yLWN1cnZhdHVyZT0iMCIgZD0iTTMuMTksNzguOTRjMCwwLDAuMTksNC4xMS0yLjAzLDUuMDVjMCwwLTEuMTYsNi4zMy0wLjU2LDcuNzIgICAgIGwyLjQ5LTIuMDdjMCwwLDAuNjktOC45NSwwLjM1LTEwLjdMMy4xOSw3OC45NHoiLz4mI3hhOwkJPC9nPiYjeGE7CQk8ZyBpZD0ic2hhcGUzOTktMjUiIHRyYW5zZm9ybT0ibWF0cml4KDEsMCwwLC0xLDgxLjU0MjEsMTM3LjMyMSkiPiYjeGE7CQkJPHRpdGxlIGlkPSJ0aXRsZTE1MDA4MSI+cGF0aDI1MDwvdGl0bGU+JiN4YTsJCQk8cGF0aCBpZD0icGF0aDE1MDA4MyIgaW5rc2NhcGU6Y29ubmVjdG9yLWN1cnZhdHVyZT0iMCIgc3R5bGU9ImZpbGw6I0YxRjFGMTsiIGQ9Ik02LjMzLDg3LjQzYzAsMC0zLjg1LTAuMDEtNS4wNS0yLjY4ICAgICBjMCwwLTEuMjgsNC44OSwwLjQ0LDYuOTZDMS43Miw5MS43MSwyLjE5LDg3Ljc3LDYuMzMsODcuNDN6Ii8+JiN4YTsJCTwvZz4mI3hhOwkJPGcgaWQ9InNoYXBlNDAwLTI3IiB0cmFuc2Zvcm09Im1hdHJpeCgxLDAsMCwtMSw4Ny44Njg0LDEzNy4zMjEpIj4mI3hhOwkJCTx0aXRsZSBpZD0idGl0bGUxNTAwODYiPnBhdGgyNTQ8L3RpdGxlPiYjeGE7CQkJPHBhdGggaWQ9InBhdGgxNTAwODgiIGlua3NjYXBlOmNvbm5lY3Rvci1jdXJ2YXR1cmU9IjAiIHN0eWxlPSJmaWxsOiNGMUYxRjE7IiBkPSJNMCw4Ny40M2MwLDAsMy44NS0wLjAxLDUuMDUtMi42OCAgICAgYzAsMCwxLjI4LDQuODktMC40NSw2Ljk2QzQuNiw5MS43MSw0LjEzLDg3Ljc3LDAsODcuNDN6Ii8+JiN4YTsJCTwvZz4mI3hhOwkJPGcgaWQ9InNoYXBlNDAxLTI5IiB0cmFuc2Zvcm09Im1hdHJpeCgxLDAsMCwtMSw2Ni4wMDM5LDE1NC43OTEpIj4mI3hhOwkJCTx0aXRsZSBpZD0idGl0bGUxNTAwOTEiPnBhdGgyOTg8L3RpdGxlPiYjeGE7CQkJPHBhdGggaWQ9InBhdGgxNTAwOTMiIGlua3NjYXBlOmNvbm5lY3Rvci1jdXJ2YXR1cmU9IjAiIHN0eWxlPSJmaWxsOiNDQkNCQ0I7IiBkPSJNNDMuMzMsOTAuOTJjLTAuNCwwLjY2LTEuNzMsMC43OS0xLjczLDAuNzkgICAgIEgyMS44NkgyLjEzYzAsMC0xLjMzLTAuMTMtMS43My0wLjc5QzAsOTAuMjUsMC44LDY5LjA5LDAuOCw2OS4wOWgyMS4wNmgyMS4wN0M0Mi45Myw2OS4wOSw0My43Myw5MC4yNSw0My4zMyw5MC45MnoiLz4mI3hhOwkJPC9nPiYjeGE7CQk8ZyBpZD0ic2hhcGU0MDItMzEiIHRyYW5zZm9ybT0ibWF0cml4KDEsMCwwLC0xLDY2LjAwMzksMTU1LjE4MikiPiYjeGE7CQkJPHRpdGxlIGlkPSJ0aXRsZTE1MDA5NiI+cGF0aDMwMjwvdGl0bGU+JiN4YTsJCQk8cGF0aCBpZD0icGF0aDE1MDA5OCIgaW5rc2NhcGU6Y29ubmVjdG9yLWN1cnZhdHVyZT0iMCIgc3R5bGU9ImZpbGw6I0U1RTVFNTsiIGQ9Ik00My4zMyw5MC45MmMtMC40LDAuNjYtMS43MywwLjc5LTEuNzMsMC43OSAgICAgSDIxLjg2SDIuMTNjMCwwLTEuMzMtMC4xMy0xLjczLTAuNzlDMCw5MC4yNSwwLjgsNjkuMDksMC44LDY5LjA5aDIxLjA2aDIxLjA3QzQyLjkzLDY5LjA5LDQzLjczLDkwLjI1LDQzLjMzLDkwLjkyeiIvPiYjeGE7CQk8L2c+JiN4YTsJCTxnIGlkPSJncm91cDQwMy0zMyIgdHJhbnNmb3JtPSJ0cmFuc2xhdGUoODMuODE5MSwtMTIuODg5KSI+JiN4YTsJCQk8dGl0bGUgaWQ9InRpdGxlMTUwMTAxIj5NaWNyb3NvZnQ8L3RpdGxlPiYjeGE7CQkJPGcgaWQ9InNoYXBlNDA0LTM0IiB0cmFuc2Zvcm09InRyYW5zbGF0ZSgwLC00LjI2NTMpIj4mI3hhOwkJCQk8dGl0bGUgaWQ9InRpdGxlMTUwMTAzIj5IVFRQIEFQSSBBcHA8L3RpdGxlPiYjeGE7CQkJCTxwYXRoIGlkPSJwYXRoMTUwMTA1IiBpbmtzY2FwZTpjb25uZWN0b3ItY3VydmF0dXJlPSIwIiBzdHlsZT0iZmlsbDojRjI1MDIyOyIgZD0iTTAsODcuODl2My44MmgzLjg0di0zLjgySDB6Ii8+JiN4YTsJCQk8L2c+JiN4YTsJCQk8ZyBpZD0ic2hhcGU0MDUtMzYiIHRyYW5zZm9ybT0idHJhbnNsYXRlKDQuMjYyOCwtNC4yNjUzKSI+JiN4YTsJCQkJPHRpdGxlIGlkPSJ0aXRsZTE1MDEwOCI+SFRUUCBBUEkgQXBwLjE0NjE8L3RpdGxlPiYjeGE7CQkJCTxwYXRoIGlkPSJwYXRoMTUwMTEwIiBpbmtzY2FwZTpjb25uZWN0b3ItY3VydmF0dXJlPSIwIiBzdHlsZT0iZmlsbDojN0ZCQTAwOyIgZD0iTTAsODcuODl2My44MmgzLjg0di0zLjgySDB6Ii8+JiN4YTsJCQk8L2c+JiN4YTsJCQk8ZyBpZD0ic2hhcGU0MDYtMzgiIHRyYW5zZm9ybT0idHJhbnNsYXRlKDQuMjYyOCkiPiYjeGE7CQkJCTx0aXRsZSBpZD0idGl0bGUxNTAxMTMiPkhUVFAgQVBJIEFwcC4xNDYyPC90aXRsZT4mI3hhOwkJCQk8cGF0aCBpZD0icGF0aDE1MDExNSIgaW5rc2NhcGU6Y29ubmVjdG9yLWN1cnZhdHVyZT0iMCIgc3R5bGU9ImZpbGw6I0ZGQjkwMDsiIGQ9Ik0wLDg3Ljg5djMuODJoMy44NHYtMy44MkgweiIvPiYjeGE7CQkJPC9nPiYjeGE7CQkJPGcgaWQ9InNoYXBlNDA3LTQwIj4mI3hhOwkJCQk8dGl0bGUgaWQ9InRpdGxlMTUwMTE4Ij5IVFRQIEFQSSBBcHAuMTQ2MzwvdGl0bGU+JiN4YTsJCQkJPHBhdGggaWQ9InBhdGgxNTAxMjAiIGlua3NjYXBlOmNvbm5lY3Rvci1jdXJ2YXR1cmU9IjAiIHN0eWxlPSJmaWxsOiMwMEE0RUY7IiBkPSJNMCw4Ny44OXYzLjgyaDMuODR2LTMuODJIMHoiLz4mI3hhOwkJCTwvZz4mI3hhOwkJPC9nPiYjeGE7CQk8ZyBpZD0ic2hhcGU0MDgtNDIiIHRyYW5zZm9ybT0idHJhbnNsYXRlKDc1LjExOTgsLTUxLjU2NzIpIj4mI3hhOwkJCTx0aXRsZSBpZD0idGl0bGUxNTAxMjQiPnBhdGg3OTU8L3RpdGxlPiYjeGE7CQkJPHBhdGggaWQ9InBhdGgxNTAxMjYiIGlua3NjYXBlOmNvbm5lY3Rvci1jdXJ2YXR1cmU9IjAiIGQ9Ik0xMy43Niw5MC40OWgtMi4wM2wwLjUxLDAuOTRsMC41LDAuMjd2MC4wMWgwLjAxbDAsMFY5MS43bDAuNS0wLjI3ICAgICBMMTMuNzYsOTAuNDl6IE0yNS41LDczLjY1bC0xLjc5LDAuMjNsLTAuMi0wLjA3bC0yLjQ0LTAuNDhoLTQuMDNsLTMuNzIsMC42aC0xLjE4bC0zLjcyLTAuNkg0LjRsLTIuNDMsMC40OGwtMC4xOSwwLjA3TDAsNzMuNjUgICAgIHYwLjcybDAuOTYsMC4xM2wwLjczLDMuMzhsMC42MywwLjYzbDEuOTIsMC40N2gzLjI1bDIuODQtMC42NGwxLjQ3LTIuMzVsMC41OS0wLjY3aDAuNjdsMC41OSwwLjY3bDEuNDcsMi4zNWwyLjg0LDAuNjRoMy4yNSAgICAgbDEuOTItMC40N2wwLjYzLTAuNjNsMC43My0zLjM4bDAuOTYtMC4xM0wyNS41LDczLjY1eiBNMTAuNzgsNzUuNDdsLTAuOCwyLjI2bC0yLjY3LDAuNThINC4xOGwtMS40Mi0wLjM3bC0wLjUyLTAuNDVsLTAuMzktMi41ICAgICBsMC40My0wLjUybDIuMDktMC40aDMuOTlsMi40NCwwLjM3TDEwLjc4LDc1LjQ3eiBNMjMuMjUsNzcuNDlsLTAuNTIsMC40NWwtMS40MiwwLjM2aC0zLjE0bC0yLjY2LTAuNTdsLTAuODEtMi4yNXYtMS4wNSAgICAgbDIuNDQtMC4zN2gzLjk4bDIuMDksMC40bDAuNDMsMC41MkwyMy4yNSw3Ny40OXoiLz4mI3hhOwkJPC9nPiYjeGE7CQk8ZyBpZD0ic2hhcGU0MDktNDQiIHRyYW5zZm9ybT0idHJhbnNsYXRlKDAuMDY3NjI4NywtNy4wMjU3MSkiPiYjeGE7CQkJPHRpdGxlIGlkPSJ0aXRsZTE1MDEyOSI+U2hlZXQuNDA5PC90aXRsZT4mI3hhOwkJCTxwYXRoIGlkPSJwYXRoMTUwMTMxIiBpbmtzY2FwZTpjb25uZWN0b3ItY3VydmF0dXJlPSIwIiBzdHlsZT0iZmlsbDojMDA5MjQ1OyIgZD0iTTI4LjY3LDkxLjcxYy0wLjI3LDAtMC41NC0wLjEzLTAuNzQtMC4zMyAgICAgTDAuNDEsNjMuODVjLTAuNDEtMC40LTAuNDEtMS4wOCwwLTEuNDljMC40LTAuNCwxLjA4LTAuNCwxLjQ4LDBsMjcuNTMsMjcuNTNjMC40LDAuNCwwLjQsMS4wOCwwLDEuNDkgICAgIEMyOS4xNSw5MS41MSwyOC44OCw5MS43MSwyOC42Nyw5MS43MXoiLz4mI3hhOwkJPC9nPiYjeGE7CQk8ZyBpZD0ic2hhcGU0MTAtNDYiIHRyYW5zZm9ybT0idHJhbnNsYXRlKDMuOTIyNDYsLTExLjAxNTgpIj4mI3hhOwkJCTx0aXRsZSBpZD0idGl0bGUxNTAxMzQiPlNoZWV0LjQxMDwvdGl0bGU+JiN4YTsJCQk8cGF0aCBpZD0icGF0aDE1MDEzNiIgaW5rc2NhcGU6Y29ubmVjdG9yLWN1cnZhdHVyZT0iMCIgc3R5bGU9ImZpbGw6IzAwOTI0NTsiIGQ9Ik0yOC43NCw5MS43MWMtMC4yNywwLTAuNTQtMC4xMy0wLjc0LTAuMzMgICAgIEwwLjQxLDYzLjkyQzAsNjMuNTEsMCw2Mi44NCwwLjQxLDYyLjQzYzAuNC0wLjQsMS4wOC0wLjQsMS40OCwwbDI3LjYsMjcuNTNjMC40LDAuNCwwLjQsMS4wOCwwLDEuNDggICAgIEMyOS4yOCw5MS42NSwyOS4wMSw5MS43MSwyOC43NCw5MS43MXoiLz4mI3hhOwkJPC9nPiYjeGE7CQk8ZyBpZD0ic2hhcGU0MTEtNDgiIHRyYW5zZm9ybT0idHJhbnNsYXRlKDAsLTM0LjY4NTgpIj4mI3hhOwkJCTx0aXRsZSBpZD0idGl0bGUxNTAxMzkiPlNoZWV0LjQxMTwvdGl0bGU+JiN4YTsJCQk8cGF0aCBpZD0icGF0aDE1MDE0MSIgaW5rc2NhcGU6Y29ubmVjdG9yLWN1cnZhdHVyZT0iMCIgc3R5bGU9ImZpbGw6IzAwOTI0NTsiIGQ9Ik0xLjE1LDkxLjcxYy0wLjI3LDAtMC41NC0wLjEzLTAuNzQtMC4zMyAgICAgQzAsOTAuOTcsMCw5MC4yOSwwLjQxLDg5Ljg5TDI4LDYyLjQzYzAuNC0wLjQsMS4wOC0wLjQsMS40OSwwYzAuNCwwLjQxLDAuNCwxLjA4LDAsMS40OUwxLjk2LDkxLjQ0ICAgICBDMS42OSw5MS43MSwxLjQyLDkxLjcxLDEuMTUsOTEuNzF6Ii8+JiN4YTsJCTwvZz4mI3hhOwkJPGcgaWQ9InNoYXBlNDEyLTUwIiB0cmFuc2Zvcm09InRyYW5zbGF0ZSgzLjkyMjQ2LC0zMC42MjgxKSI+JiN4YTsJCQk8dGl0bGUgaWQ9InRpdGxlMTUwMTQ0Ij5TaGVldC40MTI8L3RpdGxlPiYjeGE7CQkJPHBhdGggaWQ9InBhdGgxNTAxNDYiIGlua3NjYXBlOmNvbm5lY3Rvci1jdXJ2YXR1cmU9IjAiIHN0eWxlPSJmaWxsOiMwMDkyNDU7IiBkPSJNMS4xNSw5MS43MWMtMC4yNywwLTAuNTQtMC4xMy0wLjc0LTAuMzMgICAgIEMwLDkwLjk3LDAsOTAuMjksMC40MSw4OS44OWwyNy41Mi0yNy41M2MwLjQxLTAuNCwxLjA4LTAuNCwxLjQ5LDBjMC40LDAuNDEsMC40LDEuMDksMCwxLjQ5TDEuODksOTEuMzggICAgIEMxLjY5LDkxLjUxLDEuNDIsOTEuNzEsMS4xNSw5MS43MXoiLz4mI3hhOwkJPC9nPiYjeGE7CQk8ZyBpZD0ic2hhcGU0MTMtNTIiIHRyYW5zZm9ybT0idHJhbnNsYXRlKDI3LjcyNzgsLTYyLjE0MzEpIj4mI3hhOwkJCTx0aXRsZSBpZD0idGl0bGUxNTAxNDkiPlNoZWV0LjQxMzwvdGl0bGU+JiN4YTsJCQk8cGF0aCBpZD0icGF0aDE1MDE1MSIgaW5rc2NhcGU6Y29ubmVjdG9yLWN1cnZhdHVyZT0iMCIgc3R5bGU9ImZpbGw6IzAwOTI0NTsiIGQ9Ik00Ljk0LDkxLjcxSDEuMDFDMC40MSw5MS43MSwwLDkxLjI0LDAsOTAuNyAgICAgYzAtMC42MSwwLjQ3LTEuMDEsMS4wMS0xLjAxaDMuOTNjMC42MSwwLDEuMDEsMC40NywxLjAxLDEuMDFDNS45NSw5MS4xNyw1LjQ4LDkxLjcxLDQuOTQsOTEuNzF6Ii8+JiN4YTsJCTwvZz4mI3hhOwkJPGcgaWQ9InNoYXBlNDE0LTU0IiB0cmFuc2Zvcm09InRyYW5zbGF0ZSgzMS42NTAyLC01OC4yODgyKSI+JiN4YTsJCQk8dGl0bGUgaWQ9InRpdGxlMTUwMTU0Ij5TaGVldC40MTQ8L3RpdGxlPiYjeGE7CQkJPHBhdGggaWQ9InBhdGgxNTAxNTYiIGlua3NjYXBlOmNvbm5lY3Rvci1jdXJ2YXR1cmU9IjAiIHN0eWxlPSJmaWxsOiMwMDkyNDU7IiBkPSJNMS4wMSw5MS43MUMwLjQxLDkxLjcxLDAsOTEuMjQsMCw5MC43di0zLjkyICAgICBjMC0wLjYxLDAuNDctMS4wMiwxLjAxLTEuMDJjMC42MSwwLDEuMDIsMC40OCwxLjAyLDEuMDJ2My45MkMyLjAzLDkxLjI0LDEuNTYsOTEuNzEsMS4wMSw5MS43MXoiLz4mI3hhOwkJPC9nPiYjeGE7CQk8ZyBpZD0ic2hhcGU0MTUtNTYiIHRyYW5zZm9ybT0idHJhbnNsYXRlKDMxLjUxNSwtNjIuMTQzMSkiPiYjeGE7CQkJPHRpdGxlIGlkPSJ0aXRsZTE1MDE1OSI+U2hlZXQuNDE1PC90aXRsZT4mI3hhOwkJCTxwYXRoIGlkPSJwYXRoMTUwMTYxIiBpbmtzY2FwZTpjb25uZWN0b3ItY3VydmF0dXJlPSIwIiBzdHlsZT0iZmlsbDojMDA5MjQ1OyIgZD0iTTEuMTUsOTEuNzFjLTAuMjcsMC0wLjU0LTAuMTMtMC43NC0wLjMzICAgICBDMCw5MC45NywwLDkwLjI5LDAuNDEsODkuODlMNi4yOSw4NGMwLjQxLTAuNCwxLjA4LTAuNCwxLjQ5LDBjMC40LDAuNDEsMC40LDEuMDksMCwxLjQ5bC01Ljg5LDUuODkgICAgIEMxLjY5LDkxLjUxLDEuNDIsOTEuNzEsMS4xNSw5MS43MXoiLz4mI3hhOwkJPC9nPiYjeGE7CQk8ZyBpZD0ic2hhcGU0MTYtNTgiIHRyYW5zZm9ybT0icm90YXRlKC00NSwtMzguNDU3ODUsMS4zNjk0NjMpIj4mI3hhOwkJCTx0aXRsZSBpZD0idGl0bGUxNTAxNjQiPlNoZWV0LjQxNjwvdGl0bGU+JiN4YTsJCQk8Y2lyY2xlIGlkPSJlbGxpcHNlMTUwMTY2IiBzdHlsZT0iZmlsbDojQzlEQTJBOyIgY3g9IjUuNjgiIGN5PSI4Ni4wMyIgcj0iNS42OCIvPiYjeGE7CQk8L2c+JiN4YTsJCTxnIGlkPSJzaGFwZTQxNy02MCIgdHJhbnNmb3JtPSJyb3RhdGUoLTQ0Ljk5NTksLTQwLjIwNDM3MywxNC4yOTA0NDMpIj4mI3hhOwkJCTx0aXRsZSBpZD0idGl0bGUxNTAxNjkiPlNoZWV0LjQxNzwvdGl0bGU+JiN4YTsJCQkmI3hhOwkJCQk8cmVjdCBpZD0icmVjdDE1MDE3MSIgeD0iMCIgeT0iOTAuNSIgdHJhbnNmb3JtPSJtYXRyaXgoLTEgMi4zODc2NDVlLTA2IC0yLjM4NzY0NWUtMDYgLTEgMjguNjA5NSAxODIuMjEyNCkiIHN0eWxlPSJmaWxsOiMwMDkyNDU7IiB3aWR0aD0iMjguNjEiIGhlaWdodD0iMS4yMiIvPiYjeGE7CQk8L2c+JiN4YTsJCTxnIGlkPSJzaGFwZTQxOC02MiIgdHJhbnNmb3JtPSJ0cmFuc2xhdGUoMjkuNzU2NiwtNjIuNDgxMikiPiYjeGE7CQkJPHRpdGxlIGlkPSJ0aXRsZTE1MDE3NCI+U2hlZXQuNDE4PC90aXRsZT4mI3hhOwkJCTxwYXRoIGlkPSJwYXRoMTUwMTc2IiBpbmtzY2FwZTpjb25uZWN0b3ItY3VydmF0dXJlPSIwIiBzdHlsZT0iZmlsbDojMjJCNTczOyIgZD0iTTAsNzcuMzFsNy43MS03LjcxbDE0LjM0LDEyLjExbC05Ljk0LDEwICAgICBMMCw3Ny4zMXoiLz4mI3hhOwkJPC9nPiYjeGE7CQk8ZyBpZD0ic2hhcGU0MTktNjQiIHRyYW5zZm9ybT0idHJhbnNsYXRlKDM3LjYwMTUsLTUxLjk5ODgpIj4mI3hhOwkJCTx0aXRsZSBpZD0idGl0bGUxNTAxNzkiPlNoZWV0LjQxOTwvdGl0bGU+JiN4YTsJCQk8cGF0aCBpZD0icGF0aDE1MDE4MSIgaW5rc2NhcGU6Y29ubmVjdG9yLWN1cnZhdHVyZT0iMCIgc3R5bGU9ImZpbGw6IzIyQjU3MzsiIGQ9Ik0yNC42OCw3MS41Nkw0LjQ2LDkxLjcxTDAsNzQuOTRsNy44NC03LjkxICAgICBMMjQuNjgsNzEuNTZ6Ii8+JiN4YTsJCTwvZz4mI3hhOwkJPGcgaWQ9InNoYXBlNDIwLTY2IiB0cmFuc2Zvcm09InRyYW5zbGF0ZSgxNC44NzgzLC02LjY4NzU3KSI+JiN4YTsJCQk8dGl0bGUgaWQ9InRpdGxlMTUwMTg0Ij5TaGVldC40MjA8L3RpdGxlPiYjeGE7CQkJPHBhdGggaWQ9InBhdGgxNTAxODYiIGlua3NjYXBlOmNvbm5lY3Rvci1jdXJ2YXR1cmU9IjAiIHN0eWxlPSJmaWxsOiMyMkI1NzM7IiBkPSJNMjIuMjUsODYuMTdINS41NUMyLjUsODYuMTcsMCw4OC42NywwLDkxLjcxICAgICBoMjcuODZDMjcuODYsODguNzQsMjUuMzYsODYuMTcsMjIuMjUsODYuMTd6Ii8+JiN4YTsJCTwvZz4mI3hhOwkJPGcgaWQ9InNoYXBlNDIxLTY4IiB0cmFuc2Zvcm09InRyYW5zbGF0ZSgxMy44NjUyKSI+JiN4YTsJCQk8dGl0bGUgaWQ9InRpdGxlMTUwMTg5Ij5TaGVldC40MjE8L3RpdGxlPiYjeGE7CQkJPHJlY3QgaWQ9InJlY3QxNTAxOTEiIHg9IjAiIHk9Ijg0LjIxIiBzdHlsZT0iZmlsbDojMDBBRUVGOyIgd2lkdGg9IjEyMC42NCIgaGVpZ2h0PSI3LjUxIi8+JiN4YTsJCTwvZz4mI3hhOwk8L2c+JiN4YTs8L2c+JiN4YTs8L3N2Zz4=;" vertex="1" parent="xoTi9fuggT8uE5LKsVuU-1">
          <mxGeometry x="80" y="243.63" width="89.33" height="60" as="geometry" />
        </mxCell>
        <mxCell id="hOinBi74XIkA9oHKDz0b-0" value="&lt;font color=&quot;#262626&quot;&gt;&lt;span style=&quot;letter-spacing: 0.05px&quot;&gt;配置portal&lt;br&gt;&lt;/span&gt;&lt;/font&gt;" style="whiteSpace=wrap;html=1;align=left;verticalAlign=top;rounded=1;arcSize=3;fontSize=1;spacingTop=-8;fillColor=#e1d5e7;strokeColor=#9673a6;perimeterSpacing=5;" vertex="1" parent="xoTi9fuggT8uE5LKsVuU-1">
          <mxGeometry x="250" y="190" width="220" height="345" as="geometry" />
        </mxCell>
        <mxCell id="d0y9bVcLh3_U04xS9W_H-0" value="业务配置" style="whiteSpace=wrap;html=1;align=left;verticalAlign=top;rounded=1;fillColor=none;dashed=1;arcSize=3;" vertex="1" parent="xoTi9fuggT8uE5LKsVuU-1">
          <mxGeometry x="260" y="215" width="200" height="140" as="geometry" />
        </mxCell>
        <mxCell id="6nKUNuFwq6XMJViSHLhh-0" value="&lt;font color=&quot;#262626&quot;&gt;&lt;span style=&quot;letter-spacing: 0.05px&quot;&gt;业务身份定义&lt;/span&gt;&lt;/font&gt;" style="whiteSpace=wrap;html=1;align=center;verticalAlign=middle;rounded=1;arcSize=7;fontSize=9;spacingTop=0;fillColor=#f5f5f5;strokeColor=#666666;fontColor=#333333;" vertex="1" parent="xoTi9fuggT8uE5LKsVuU-1">
          <mxGeometry x="270" y="235" width="75" height="30" as="geometry" />
        </mxCell>
        <mxCell id="d0y9bVcLh3_U04xS9W_H-1" value="&lt;font color=&quot;#262626&quot;&gt;&lt;span style=&quot;letter-spacing: 0.05px&quot;&gt;扩展实体定义&lt;/span&gt;&lt;/font&gt;" style="whiteSpace=wrap;html=1;align=center;verticalAlign=middle;rounded=1;arcSize=7;fontSize=9;spacingTop=0;fillColor=#f5f5f5;strokeColor=#666666;fontColor=#333333;" vertex="1" parent="xoTi9fuggT8uE5LKsVuU-1">
          <mxGeometry x="370" y="235" width="75" height="30" as="geometry" />
        </mxCell>
        <mxCell id="d0y9bVcLh3_U04xS9W_H-2" value="&lt;font color=&quot;#262626&quot;&gt;&lt;span style=&quot;letter-spacing: 0.05px&quot;&gt;实体schema&lt;br&gt;&lt;/span&gt;&lt;/font&gt;" style="whiteSpace=wrap;html=1;align=center;verticalAlign=middle;rounded=1;arcSize=7;fontSize=9;spacingTop=0;fillColor=#f5f5f5;strokeColor=#666666;fontColor=#333333;" vertex="1" parent="xoTi9fuggT8uE5LKsVuU-1">
          <mxGeometry x="270" y="275" width="75" height="30" as="geometry" />
        </mxCell>
        <mxCell id="d0y9bVcLh3_U04xS9W_H-3" value="元数据" style="whiteSpace=wrap;html=1;align=left;verticalAlign=top;rounded=1;fillColor=none;dashed=1;arcSize=3;" vertex="1" parent="xoTi9fuggT8uE5LKsVuU-1">
          <mxGeometry x="260" y="460" width="200" height="65" as="geometry" />
        </mxCell>
        <mxCell id="d0y9bVcLh3_U04xS9W_H-4" style="edgeStyle=orthogonalEdgeStyle;rounded=0;orthogonalLoop=1;jettySize=auto;html=1;exitX=0.5;exitY=1;exitDx=0;exitDy=0;" edge="1" parent="xoTi9fuggT8uE5LKsVuU-1" source="6nKUNuFwq6XMJViSHLhh-0" target="6nKUNuFwq6XMJViSHLhh-0">
          <mxGeometry relative="1" as="geometry" />
        </mxCell>
        <mxCell id="d0y9bVcLh3_U04xS9W_H-5" value="&lt;font color=&quot;#262626&quot;&gt;&lt;span style=&quot;letter-spacing: 0.05px&quot;&gt;业务规则&lt;br&gt;&lt;/span&gt;&lt;/font&gt;" style="whiteSpace=wrap;html=1;align=center;verticalAlign=middle;rounded=1;arcSize=7;fontSize=9;spacingTop=0;fillColor=#f5f5f5;strokeColor=#666666;fontColor=#333333;dashed=1;" vertex="1" parent="xoTi9fuggT8uE5LKsVuU-1">
          <mxGeometry x="270" y="315" width="75" height="30" as="geometry" />
        </mxCell>
        <mxCell id="d0y9bVcLh3_U04xS9W_H-6" value="&lt;font color=&quot;#262626&quot;&gt;&lt;span style=&quot;letter-spacing: 0.05px&quot;&gt;属性校验规则配置&lt;br&gt;&lt;/span&gt;&lt;/font&gt;" style="whiteSpace=wrap;html=1;align=center;verticalAlign=middle;rounded=1;arcSize=7;fontSize=9;spacingTop=0;fillColor=#f5f5f5;strokeColor=#666666;fontColor=#333333;" vertex="1" parent="xoTi9fuggT8uE5LKsVuU-1">
          <mxGeometry x="370" y="275" width="75" height="30" as="geometry" />
        </mxCell>
        <mxCell id="wTU4NtT_mkEPymzTR1yD-0" value="" style="html=1;shadow=0;dashed=0;align=center;verticalAlign=middle;shape=mxgraph.arrows2.arrow;dy=0.62;dx=16.59;direction=south;notch=0;rounded=1;strokeColor=#6c8ebf;fillColor=#dae8fc;" vertex="1" parent="xoTi9fuggT8uE5LKsVuU-1">
          <mxGeometry x="300" y="339.75" width="20" height="45.5" as="geometry" />
        </mxCell>
        <mxCell id="wTU4NtT_mkEPymzTR1yD-2" value="&lt;font color=&quot;#262626&quot;&gt;&lt;span style=&quot;letter-spacing: 0.05px&quot;&gt;.......&lt;br&gt;&lt;/span&gt;&lt;/font&gt;" style="whiteSpace=wrap;html=1;align=center;verticalAlign=middle;rounded=1;arcSize=7;fontSize=9;spacingTop=0;fillColor=#f5f5f5;strokeColor=#666666;fontColor=#333333;dashed=1;" vertex="1" parent="xoTi9fuggT8uE5LKsVuU-1">
          <mxGeometry x="370" y="315" width="75" height="30" as="geometry" />
        </mxCell>
        <mxCell id="wTU4NtT_mkEPymzTR1yD-3" value="" style="html=1;shadow=0;dashed=0;align=center;verticalAlign=middle;shape=mxgraph.arrows2.arrow;dy=0.62;dx=16.59;direction=south;notch=0;rounded=1;strokeColor=#6c8ebf;fillColor=#dae8fc;rotation=-90;" vertex="1" parent="xoTi9fuggT8uE5LKsVuU-1">
          <mxGeometry x="203.88" y="236.13" width="20" height="75" as="geometry" />
        </mxCell>
        <mxCell id="wTU4NtT_mkEPymzTR1yD-5" value="配置" style="text;html=1;align=center;verticalAlign=middle;resizable=0;points=[];autosize=1;" vertex="1" parent="xoTi9fuggT8uE5LKsVuU-1">
          <mxGeometry x="190" y="245" width="40" height="20" as="geometry" />
        </mxCell>
        <mxCell id="wTU4NtT_mkEPymzTR1yD-6" value="生成" style="text;html=1;align=center;verticalAlign=middle;resizable=0;points=[];autosize=1;" vertex="1" parent="xoTi9fuggT8uE5LKsVuU-1">
          <mxGeometry x="340" y="355" width="40" height="20" as="geometry" />
        </mxCell>
        <mxCell id="wTU4NtT_mkEPymzTR1yD-7" value="&lt;font color=&quot;#262626&quot;&gt;&lt;span style=&quot;letter-spacing: 0.05px&quot;&gt;字段定义数据&lt;/span&gt;&lt;/font&gt;" style="whiteSpace=wrap;html=1;align=center;verticalAlign=middle;rounded=1;arcSize=7;fontSize=9;spacingTop=0;fillColor=#f5f5f5;strokeColor=#666666;fontColor=#333333;" vertex="1" parent="xoTi9fuggT8uE5LKsVuU-1">
          <mxGeometry x="272.5" y="485" width="75" height="30" as="geometry" />
        </mxCell>
        <mxCell id="wTU4NtT_mkEPymzTR1yD-8" value="&lt;font color=&quot;#262626&quot;&gt;&lt;span style=&quot;letter-spacing: 0.05px&quot;&gt;约束规则数据&lt;/span&gt;&lt;/font&gt;" style="whiteSpace=wrap;html=1;align=center;verticalAlign=middle;rounded=1;arcSize=7;fontSize=9;spacingTop=0;fillColor=#f5f5f5;strokeColor=#666666;fontColor=#333333;" vertex="1" parent="xoTi9fuggT8uE5LKsVuU-1">
          <mxGeometry x="370" y="485" width="75" height="30" as="geometry" />
        </mxCell>
        <mxCell id="wTU4NtT_mkEPymzTR1yD-11" value="动态代码jar" style="whiteSpace=wrap;html=1;align=left;verticalAlign=top;rounded=1;fillColor=none;dashed=1;arcSize=3;" vertex="1" parent="xoTi9fuggT8uE5LKsVuU-1">
          <mxGeometry x="260" y="375" width="200" height="65" as="geometry" />
        </mxCell>
        <mxCell id="wTU4NtT_mkEPymzTR1yD-9" value="&lt;font color=&quot;#262626&quot;&gt;&lt;span style=&quot;letter-spacing: 0.05px&quot;&gt;扩展业务实体&lt;/span&gt;&lt;/font&gt;" style="whiteSpace=wrap;html=1;align=center;verticalAlign=middle;rounded=1;arcSize=7;fontSize=9;spacingTop=0;fillColor=#f5f5f5;strokeColor=#666666;fontColor=#333333;" vertex="1" parent="xoTi9fuggT8uE5LKsVuU-1">
          <mxGeometry x="272.5" y="395" width="75" height="30" as="geometry" />
        </mxCell>
        <mxCell id="wTU4NtT_mkEPymzTR1yD-12" value="&lt;font color=&quot;#262626&quot;&gt;&lt;span style=&quot;letter-spacing: 0.05px&quot;&gt;接口定义&lt;/span&gt;&lt;/font&gt;" style="whiteSpace=wrap;html=1;align=center;verticalAlign=middle;rounded=1;arcSize=7;fontSize=9;spacingTop=0;fillColor=#f5f5f5;strokeColor=#666666;fontColor=#333333;" vertex="1" parent="xoTi9fuggT8uE5LKsVuU-1">
          <mxGeometry x="370" y="395" width="75" height="30" as="geometry" />
        </mxCell>
        <mxCell id="wTU4NtT_mkEPymzTR1yD-1" value="" style="html=1;shadow=0;dashed=0;align=center;verticalAlign=middle;shape=mxgraph.arrows2.arrow;dy=0.62;dx=16.59;direction=south;notch=0;rounded=1;strokeColor=#6c8ebf;fillColor=#dae8fc;" vertex="1" parent="xoTi9fuggT8uE5LKsVuU-1">
          <mxGeometry x="397.5" y="339.75" width="20" height="45.5" as="geometry" />
        </mxCell>
        <mxCell id="p6frmh_RZJO5k7PuRCkZ-0" value="&lt;font style=&quot;font-size: 12px&quot;&gt;商品聚合层 unified-product&lt;/font&gt;" style="whiteSpace=wrap;html=1;align=left;verticalAlign=top;rounded=1;fillColor=#dae8fc;strokeColor=#6c8ebf;fontSize=1;spacingTop=-5;" vertex="1" parent="xoTi9fuggT8uE5LKsVuU-1">
          <mxGeometry x="520" y="30" width="650" height="130" as="geometry" />
        </mxCell>
        <mxCell id="p6frmh_RZJO5k7PuRCkZ-2" value="&lt;font color=&quot;#262626&quot;&gt;&lt;span style=&quot;letter-spacing: 0.05px&quot;&gt;商品基础层 product&lt;br&gt;&lt;/span&gt;&lt;/font&gt;" style="whiteSpace=wrap;html=1;align=left;verticalAlign=top;rounded=1;arcSize=3;fontSize=1;spacingTop=-8;fillColor=#d5e8d4;strokeColor=#82b366;perimeterSpacing=5;" vertex="1" parent="xoTi9fuggT8uE5LKsVuU-1">
          <mxGeometry x="530" y="190" width="440" height="350" as="geometry" />
        </mxCell>
        <mxCell id="p6frmh_RZJO5k7PuRCkZ-3" value="领域数据 domain" style="whiteSpace=wrap;html=1;align=left;verticalAlign=top;rounded=1;fillColor=none;dashed=1;arcSize=3;" vertex="1" parent="xoTi9fuggT8uE5LKsVuU-1">
          <mxGeometry x="780" y="367.5" width="175" height="152.5" as="geometry" />
        </mxCell>
        <mxCell id="p6frmh_RZJO5k7PuRCkZ-4" value="&lt;font color=&quot;#262626&quot;&gt;&lt;span style=&quot;letter-spacing: 0.05px&quot;&gt;商品&lt;br&gt;&lt;/span&gt;&lt;/font&gt;" style="whiteSpace=wrap;html=1;align=center;verticalAlign=middle;rounded=1;arcSize=7;fontSize=9;spacingTop=0;fillColor=#f5f5f5;strokeColor=#666666;fontColor=#333333;" vertex="1" parent="xoTi9fuggT8uE5LKsVuU-1">
          <mxGeometry x="790" y="410" width="75" height="30" as="geometry" />
        </mxCell>
        <mxCell id="p6frmh_RZJO5k7PuRCkZ-5" value="&lt;font color=&quot;#262626&quot;&gt;&lt;span style=&quot;letter-spacing: 0.05px&quot;&gt;spu&lt;br&gt;&lt;/span&gt;&lt;/font&gt;" style="whiteSpace=wrap;html=1;align=center;verticalAlign=middle;rounded=1;arcSize=7;fontSize=9;spacingTop=0;fillColor=#f5f5f5;strokeColor=#666666;fontColor=#333333;" vertex="1" parent="xoTi9fuggT8uE5LKsVuU-1">
          <mxGeometry x="790" y="455" width="75" height="30" as="geometry" />
        </mxCell>
        <mxCell id="p6frmh_RZJO5k7PuRCkZ-6" value="&lt;font color=&quot;#262626&quot;&gt;&lt;span style=&quot;letter-spacing: 0.05px&quot;&gt;sku&lt;br&gt;&lt;/span&gt;&lt;/font&gt;" style="whiteSpace=wrap;html=1;align=center;verticalAlign=middle;rounded=1;arcSize=7;fontSize=9;spacingTop=0;fillColor=#f5f5f5;strokeColor=#666666;fontColor=#333333;" vertex="1" parent="xoTi9fuggT8uE5LKsVuU-1">
          <mxGeometry x="870" y="410" width="75" height="30" as="geometry" />
        </mxCell>
        <mxCell id="p6frmh_RZJO5k7PuRCkZ-7" value="动态扩展 extend_property" style="whiteSpace=wrap;html=1;align=left;verticalAlign=top;rounded=1;fillColor=none;dashed=1;arcSize=3;" vertex="1" parent="xoTi9fuggT8uE5LKsVuU-1">
          <mxGeometry x="660" y="367.5" width="110" height="152.5" as="geometry" />
        </mxCell>
        <mxCell id="p6frmh_RZJO5k7PuRCkZ-8" value="&lt;font color=&quot;#262626&quot;&gt;&lt;span style=&quot;letter-spacing: 0.05px&quot;&gt;k-v&lt;br&gt;&lt;/span&gt;&lt;/font&gt;" style="whiteSpace=wrap;html=1;align=center;verticalAlign=middle;rounded=1;arcSize=7;fontSize=9;spacingTop=0;fillColor=#f5f5f5;strokeColor=#666666;fontColor=#333333;" vertex="1" parent="xoTi9fuggT8uE5LKsVuU-1">
          <mxGeometry x="680" y="410" width="75" height="30" as="geometry" />
        </mxCell>
        <mxCell id="p6frmh_RZJO5k7PuRCkZ-9" value="&lt;font color=&quot;#262626&quot;&gt;&lt;span style=&quot;letter-spacing: 0.05px&quot;&gt;spu&lt;br&gt;&lt;/span&gt;&lt;/font&gt;" style="whiteSpace=wrap;html=1;align=center;verticalAlign=middle;rounded=1;arcSize=7;fontSize=9;spacingTop=0;fillColor=#f5f5f5;strokeColor=#666666;fontColor=#333333;" vertex="1" parent="xoTi9fuggT8uE5LKsVuU-1">
          <mxGeometry x="680" y="455" width="75" height="30" as="geometry" />
        </mxCell>
        <mxCell id="p6frmh_RZJO5k7PuRCkZ-11" value="元数据" style="whiteSpace=wrap;html=1;align=left;verticalAlign=top;rounded=1;fillColor=none;dashed=1;arcSize=3;" vertex="1" parent="xoTi9fuggT8uE5LKsVuU-1">
          <mxGeometry x="540" y="367.5" width="100" height="152.5" as="geometry" />
        </mxCell>
        <mxCell id="p6frmh_RZJO5k7PuRCkZ-12" value="&lt;font color=&quot;#262626&quot;&gt;&lt;span style=&quot;letter-spacing: 0.05px&quot;&gt;字段定义数据&lt;/span&gt;&lt;/font&gt;" style="whiteSpace=wrap;html=1;align=center;verticalAlign=middle;rounded=1;arcSize=7;fontSize=9;spacingTop=0;fillColor=#f5f5f5;strokeColor=#666666;fontColor=#333333;" vertex="1" parent="xoTi9fuggT8uE5LKsVuU-1">
          <mxGeometry x="552.5" y="410" width="75" height="30" as="geometry" />
        </mxCell>
        <mxCell id="p6frmh_RZJO5k7PuRCkZ-13" value="&lt;font color=&quot;#262626&quot;&gt;&lt;span style=&quot;letter-spacing: 0.05px&quot;&gt;约束规则数据&lt;/span&gt;&lt;/font&gt;" style="whiteSpace=wrap;html=1;align=center;verticalAlign=middle;rounded=1;arcSize=7;fontSize=9;spacingTop=0;fillColor=#f5f5f5;strokeColor=#666666;fontColor=#333333;" vertex="1" parent="xoTi9fuggT8uE5LKsVuU-1">
          <mxGeometry x="552.5" y="455" width="75" height="30" as="geometry" />
        </mxCell>
      </root>
    </mxGraphModel>
  </diagram>
</mxfile>
